<svg width="54" height="82" viewBox="0 0 54 82" xmlns="http://www.w3.org/2000/svg" xmlns:xlink="http://www.w3.org/1999/xlink">
    <g id="Layer2">
        <g id="Layer1-2">
            <path id="Path" fill="none" stroke="#211d1e" stroke-width="2.188567" stroke-linecap="round" stroke-linejoin="round" d="M 4.048674 22.742271 L 1.107241 19.809593"/>
            <path id="path1" fill="none" stroke="#211d1e" stroke-width="2.188567" stroke-linecap="round" stroke-linejoin="round" d="M 1.107241 22.742271 L 4.048674 19.809593"/>
            <path id="path2" fill="none" stroke="#211d1e" stroke-width="2.188567" stroke-linecap="round" stroke-linejoin="round" d="M 49.185677 30.192154 L 46.24424 27.250725"/>
            <path id="path3" fill="none" stroke="#211d1e" stroke-width="2.188567" stroke-linecap="round" stroke-linejoin="round" d="M 46.24424 30.192154 L 49.185677 27.250725"/>
            <path id="path4" fill="none" stroke="#211d1e" stroke-width="2.188567" stroke-linecap="round" stroke-linejoin="round" d="M 7.786747 40.189529 L 4.845312 37.256851"/>
            <path id="path5" fill="none" stroke="#211d1e" stroke-width="2.188567" stroke-linecap="round" stroke-linejoin="round" d="M 4.845312 40.189529 L 7.786747 37.256851"/>
            <path id="path6" fill="none" stroke="#e51f39" stroke-width="2.188567" stroke-linecap="round" stroke-linejoin="round" d="M 9.441303 27.250725 C 9.441303 27.990456 8.841633 28.590126 8.101898 28.590126 C 7.362167 28.590126 6.762497 27.990456 6.762497 27.250725 C 6.762497 26.510994 7.362167 25.911316 8.101898 25.911316 C 8.841633 25.911316 9.441303 26.510994 9.441303 27.250725 Z"/>
            <path id="path7" fill="none" stroke="#e51f39" stroke-width="2.188567" stroke-linecap="round" stroke-linejoin="round" d="M 45.403831 40.189529 C 45.403831 40.92926 44.804161 41.528934 44.06443 41.528934 C 43.324699 41.528934 42.725029 40.92926 42.725029 40.189529 C 42.725029 39.449799 43.324699 38.850128 44.06443 38.850128 C 44.804161 38.850128 45.403831 39.449799 45.403831 40.189529 Z"/>
            <path id="path8" fill="none" stroke="#e51f39" stroke-width="2.188567" stroke-linecap="round" stroke-linejoin="round" d="M 52.284691 20.256065 C 52.284691 20.995796 51.685013 21.595467 50.94529 21.595467 C 50.205559 21.595467 49.605881 20.995796 49.605881 20.256065 C 49.605881 19.516327 50.205559 18.916656 50.94529 18.916656 C 51.685013 18.916656 52.284691 19.516327 52.284691 20.256065 Z"/>
            <path id="path9" fill="#e6e6e6" stroke="none" d="M 42.497414 79.15477 C 42.497414 80.421509 35.097553 81.448395 25.96936 81.448395 C 16.841164 81.448395 9.441303 80.421509 9.441303 79.15477 C 9.441303 77.888046 16.841164 76.86116 25.96936 76.86116 C 35.097553 76.86116 42.497414 77.888046 42.497414 79.15477 Z"/>
            <path id="path10" fill="none" stroke="#e51f39" stroke-width="2.188567" stroke-linecap="round" stroke-linejoin="round" d="M 23.500656 9.462051 L 23.500656 11.624352 C 21.8461 14.373192 17.372669 16.211594 13.87096 16.211594 C 11.892498 16.211594 9.038609 15.064781 8.084393 13.497765"/>
            <path id="path11" fill="none" stroke="#e51f39" stroke-width="2.188567" stroke-linecap="round" stroke-linejoin="round" d="M 5.580671 15.012253 C 7.138929 18.120018 11.70866 20.264816 15.376698 20.264816 C 17.271023 20.266136 19.12215 19.698906 20.690536 18.63652"/>
            <path id="path12" fill="none" stroke="#e51f39" stroke-width="2.188567" stroke-linecap="round" stroke-linejoin="round" d="M 8.101898 13.497765 C 8.101898 12.622337 6.561148 11.939507 4.652718 11.939507 C 2.744287 11.939507 1.21229 12.639847 1.21229 13.497765 C 1.21229 14.355682 2.761797 15.073532 4.652718 15.073532 C 4.962807 15.074486 5.272675 15.056946 5.580671 15.021011"/>
            <path id="path13" fill="none" stroke="#e51f39" stroke-width="2.188567" stroke-linecap="round" stroke-linejoin="round" d="M 43.924362 13.497765 C 42.978905 15.073532 40.116257 16.211594 38.1553 16.211594 C 34.706116 16.211594 30.19767 14.373192 28.525608 11.624352 L 28.525608 9.462051"/>
            <path id="path14" fill="none" stroke="#e51f39" stroke-width="2.188567" stroke-linecap="round" stroke-linejoin="round" d="M 31.344482 18.627769 C 32.91016 19.688965 34.758141 20.256165 36.649567 20.256065 C 40.361374 20.256065 44.896088 18.120018 46.445595 15.003502"/>
            <path id="path15" fill="none" stroke="#e51f39" stroke-width="2.188567" stroke-linecap="round" stroke-linejoin="round" d="M 46.445595 15.012253 C 46.753586 15.048195 47.063461 15.065735 47.373543 15.064781 C 49.273216 15.064781 50.813972 14.364441 50.813972 13.497765 C 50.813972 12.631096 49.273216 11.939507 47.373543 11.939507 C 45.473869 11.939507 43.924362 12.639847 43.924362 13.497765"/>
            <path id="path16" fill="none" stroke="#e51f39" stroke-width="2.188567" stroke-linecap="round" stroke-linejoin="round" d="M 31.248184 18.65403 C 31.246929 19.738129 30.979378 20.805321 30.469055 21.761795 L 30.469055 21.761795"/>
            <path id="path17" fill="none" stroke="#e51f39" stroke-width="2.188567" stroke-linecap="round" stroke-linejoin="round" d="M 21.399632 21.639236 C 20.93449 20.703423 20.691814 19.672806 20.690536 18.627769"/>
            <path id="path18" fill="none" stroke="#e51f39" stroke-width="2.188567" stroke-linecap="round" stroke-linejoin="round" d="M 18.712074 54.152588 L 33.121597 54.152588 L 33.121597 70.593102 L 18.712074 70.593102 Z"/>
            <path id="path19" fill="none" stroke="#e51f39" stroke-width="2.188567" stroke-linecap="round" stroke-linejoin="round" d="M 25.986866 10.696404 C 26.725765 10.417686 27.410172 10.01178 28.009106 9.49707 C 28.096031 9.408386 28.177868 9.314857 28.254223 9.216934 C 30.276459 9.820976 29.777466 7.194695 29.777466 7.194695 C 30.250668 6.546623 30.362747 5.702728 30.075111 4.953606 C 28.858269 0.926636 25.986866 2.432373 25.986866 2.432373 C 22.774052 1.171761 21.942398 4.901077 21.942398 4.901077 C 21.584682 5.647102 21.668907 6.529785 22.161255 7.194695 C 22.161255 7.194695 21.679768 9.820976 23.684498 9.181915 L 23.929615 9.462051 C 24.525864 9.98922 25.210434 10.407074 25.951851 10.696404"/>
            <path id="path20" fill="none" stroke="#e51f39" stroke-width="2.188567" stroke-linecap="round" stroke-linejoin="round" d="M 19.771339 45.494617 L 19.771339 35.488487 L 18.265602 33.676353 C 17.29388 24.965858 21.268318 21.779305 21.43465 21.639236"/>
            <path id="path21" fill="none" stroke="#e51f39" stroke-width="2.188567" stroke-linecap="round" stroke-linejoin="round" d="M 30.469055 21.761795 L 30.469055 21.761795 C 31.195656 22.418365 34.382214 25.780006 33.498032 33.667603 L 32.027313 35.488487 L 32.027313 45.494617"/>
            <path id="path22" fill="none" stroke="#e51f39" stroke-width="2.188567" stroke-linecap="round" stroke-linejoin="round" d="M 16.891182 49.118881 L 34.959991 49.118881 L 34.959991 54.599056 L 16.891182 54.599056 Z"/>
        </g>
    </g>
</svg>
