<svg id="Layer_1" data-name="Layer 1" xmlns="http://www.w3.org/2000/svg" viewBox="0 0 458.69 458.69"><defs><style>.cls-1,.cls-2{font-size:50.81px;font-family:AlternateGotNo3D, Alternate Gothic No3 D;letter-spacing:0.07em;}.cls-1,.cls-6{fill:#e51f39;}.cls-2,.cls-7{fill:#231f20;}.cls-3{letter-spacing:0.08em;}.cls-4{letter-spacing:0.04em;}.cls-5{letter-spacing:0.09em;}</style></defs><text class="cls-1" transform="translate(71.03 319.69)">FUEL</text><text class="cls-2" transform="translate(168.26 319.69)">CINCIN<tspan class="cls-3" x="135.76" y="0">N</tspan><tspan class="cls-4" x="163.6" y="0">A</tspan><tspan class="cls-5" x="188.8" y="0">T</tspan><tspan x="212.28" y="0">I</tspan></text><path class="cls-6" d="M212.12,229.42h31.31a8,8,0,0,1-3.74,9.68s.11-4.08-3.63-4.84c0,0,4,14.18-7.14,17,0,0-5.49,1.86-8.9-1.21,0,0,6.27-5.93,1.43-12.09,0,0-5.93-1-6.26,7.69A15.71,15.71,0,0,1,212.12,229.42Z"/><path class="cls-7" d="M251.48,184.16s28.26-62.76-24-88c-52.29,25.23-24,88-24,88-36.1,16.53-7.62,57.12-7.62,57.12-4.72-20.6,13.06-25.39,13.06-25.39l3.55,9.59h30.08l3.56-9.59s17.77,4.79,13.06,25.39C259.11,241.28,287.58,200.69,251.48,184.16Zm-24-27.62a12.33,12.33,0,1,1,12.33-12.33A12.33,12.33,0,0,1,227.45,156.54Z"/></svg>