<svg id="Layer_1" data-name="Layer 1" xmlns="http://www.w3.org/2000/svg" viewBox="0 0 458.69 458.69"><defs><style>.cls-1,.cls-5{font-size:54.19px;font-family:AlternateGotNo3D, Alternate Gothic No3 D;}.cls-1,.cls-12{fill:#e51f39;}.cls-1{letter-spacing:0em;}.cls-2{letter-spacing:0.02em;}.cls-3{letter-spacing:0.04em;}.cls-4{letter-spacing:0.02em;}.cls-11,.cls-5{fill:#211d1f;}.cls-5{letter-spacing:0.04em;}.cls-6{letter-spacing:0.02em;}.cls-7{letter-spacing:0.03em;}.cls-8{letter-spacing:0.02em;}.cls-9{letter-spacing:0.03em;}.cls-10{fill:#bcbec0;}.cls-13{fill:none;stroke:#fff;stroke-miterlimit:10;stroke-width:6.15px;}</style></defs><text class="cls-1" transform="translate(74.68 368.37)">P<tspan class="cls-2" x="23.68" y="0">AI</tspan><tspan class="cls-3" x="61.61" y="0">N</tspan><tspan class="cls-4" x="89.14" y="0">T</tspan></text><text class="cls-5" transform="translate(194.7 368.36)">T<tspan class="cls-6" x="22.33" y="0">HE </tspan><tspan class="cls-7" x="79.01" y="0">T</tspan><tspan class="cls-8" x="101.12" y="0">O</tspan><tspan class="cls-9" x="126.64" y="0">W</tspan><tspan class="cls-2" x="162.79" y="0">N</tspan></text><path class="cls-10" d="M265.68,94V89.9h-7.25V94l-2.27,7.3V113.4h-2.42v-8.19h-3.56V99.64L248,96.57l-1.84,2.84v13.26h-2.79V89.88h-.93V87.64h-.94V85.33c-.39-5.7-4.36-7.47-4.36-7.47-4.33,2.15-4.59,7.63-4.59,7.63v2.29h-.7v2.16h-1.19v13.41h-2v-1.69h-2V100h-1.56V98.19h-4.59v18H219v-5.15h-1.42V97H215.4V94.65h-5.84V97h-2v14.3H206v3.59l-1.64,0v-12H203V100.4h-1.4V96.5h-1.54l-1.25-2.88-1.32,2.85H196.1v4.09h-1.25V103h-1.56v7.26H191V92.89h-7.93V199.11s26.54,10.81,31.46,24.58c3.1,8.68-4.22,17.22-7.41,24.73-4,9.49-3.13,20.57.24,30.11,2.5,7.1,6.78,14,13.49,17.43a10.06,10.06,0,0,0,4.82,1.3,10.32,10.32,0,0,0,3.84-1c8-3.6,12.75-12,15.15-20.44s2.92-17.82-.12-26.18c-3-8.13-11.23-16.7-7.92-25.94,4.92-13.77,31.46-24.58,31.46-24.58v-98ZM225.61,283.48a8.9,8.9,0,1,1,8.9-8.9A8.89,8.89,0,0,1,225.61,283.48Z"/><path class="cls-11" d="M177.21,164.72V91.6h7.93V109h2.25v-7.26H189V99.26h1.25V95.18h1.42l1.32-2.85,1.25,2.88h1.54v3.9h1.4v2.46h1.32v12h1.64V110h1.53V95.67h2V93.36h5.84v2.31h2.17v14.11h1.42v5.15h1.48v-18h4.59v1.85h1.56v1.62h2v1.69h2V88.65h1.19V86.49h.7v-2.3s.26-5.48,4.59-7.62c0,0,4,1.77,4.36,7.47v2.31h.94v2.23h.93v22.8h2.79V98.12l1.84-2.85,2.19,3.08v5.57h3.56v8.19h2.42V100l2.27-7.31V88.6h7.25v4.08l2.44,7.19v64.85"/><path class="cls-12" d="M262.22,197.82v-33.1h-85v33.1s26.53,10.81,31.46,24.57c3.1,8.69-4.22,17.22-7.41,24.74-4,9.49-3.13,20.57.24,30.11,2.5,7.1,6.78,14,13.49,17.43a10.29,10.29,0,0,0,4.82,1.3,10.15,10.15,0,0,0,3.84-1c8-3.59,12.75-12,15.15-20.43s2.92-17.82-.12-26.18c-3-8.13-11.23-16.7-7.92-26C235.68,208.63,262.22,197.82,262.22,197.82Zm-42.51,84.37a8.9,8.9,0,1,1,8.9-8.9A8.91,8.91,0,0,1,219.71,282.19Z"/><line class="cls-13" x1="172.66" y1="174.89" x2="264.04" y2="174.89"/></svg>