<svg id="Layer_1" data-name="Layer 1" xmlns="http://www.w3.org/2000/svg" viewBox="0 0 458.69 458.69"><defs><style>.cls-1,.cls-4,.cls-5{font-size:51.4px;font-family:AlternateGotNo3D, Alternate Gothic No3 D;}.cls-1,.cls-5,.cls-9{fill:#e51f39;}.cls-1{letter-spacing:0.05em;}.cls-2{letter-spacing:0.07em;}.cls-3,.cls-4{letter-spacing:0.09em;}.cls-4{fill:#231f20;}.cls-5{letter-spacing:0.08em;}.cls-6{letter-spacing:0.07em;}.cls-7{letter-spacing:0.08em;}.cls-8{fill:#211d1f;}.cls-10{fill:none;stroke:#fff;stroke-miterlimit:10;stroke-width:3.98px;}</style></defs><text class="cls-1" transform="translate(74.6 328.96)">P<tspan class="cls-2" x="25.03" y="0">AI</tspan><tspan class="cls-3" x="66.16" y="0">N</tspan><tspan class="cls-2" x="94.84" y="0">T</tspan></text><text class="cls-4" transform="translate(196.1 328.96)">T<tspan class="cls-2" x="23.75" y="0">HE</tspan></text><text class="cls-5" transform="translate(272.96 328.96)">T<tspan class="cls-6" x="23.54" y="0">O</tspan><tspan class="cls-7" x="50.32" y="0">W</tspan><tspan class="cls-2" x="87.18" y="0">N</tspan></text><path class="cls-8" d="M203.27,173.75s4.65-34.63-5.69-56.34c0,0,7.48,3.09,11.86,3.09l3.58,9.56s2.73-9.36,2.78-9.56,4.56,1.31,4.88,1.4a25.74,25.74,0,0,0,7.52,1.17c6.85,0,12.91-2.63,19.51-3.84a47.48,47.48,0,0,1,12.77-.21s-11.93,29.16-8.45,54.73Z"/><path class="cls-9" d="M255.5,199.06V177.64h-55v21.42s17.17,7,20.36,15.91c2,5.62-2.74,11.14-4.8,16-2.6,6.14-2,13.31.15,19.49,1.63,4.59,4.39,9.07,8.74,11.28a6.63,6.63,0,0,0,3.12.84,6.53,6.53,0,0,0,2.48-.66c5.17-2.32,8.25-7.77,9.81-13.22s1.89-11.53-.08-16.94C238.36,226.5,233,221,235.14,215,238.33,206.06,255.5,199.06,255.5,199.06ZM228,253.66a5.76,5.76,0,1,1,5.76-5.76A5.75,5.75,0,0,1,228,253.66Z"/><line class="cls-10" x1="197.54" y1="184.22" x2="256.68" y2="184.22"/></svg>