<svg xmlns="http://www.w3.org/2000/svg" viewBox="0 0 114.23 156.37"><defs><style>.cls-1{fill:#ffd4db;}.cls-2{font-size:24.77px;fill:#211d1e;font-family:AlternateGotNo3D, Alternate Gothic No3 D;letter-spacing:0.02em;}.cls-3{letter-spacing:0.03em;}.cls-4{letter-spacing:0.03em;}.cls-5{letter-spacing:0.03em;}.cls-6{letter-spacing:0.02em;}.cls-7{letter-spacing:0.02em;}.cls-8{letter-spacing:0.04em;}.cls-10,.cls-9{fill:none;}.cls-9{stroke:#211d1e;}.cls-10,.cls-12,.cls-9{stroke-linecap:round;stroke-linejoin:round;stroke-width:2.5px;}.cls-10,.cls-12{stroke:#e51f39;}.cls-11{fill:#e6e6e6;}.cls-12{fill:#fff;}</style></defs><g id="Layer_2" data-name="Layer 2"><g id="Layer_1-2" data-name="Layer 1"><path class="cls-1" d="M57.1,11.84S59.23,23.64,50,50.75V39.32l-1.9-4.42L50,27.15l1.9-3.65-.81-3.44-5,1.81-9.7-2.94L32.73,16,28.8,14.2l3.93-1.78,2.4.38,1.93,1.93,3.28,2,5.13,0,6.39-2.16L54.66,11Z"/><path class="cls-1" d="M57.1,1.56S54,5.37,56.52,11l-4.3-3.76.26-2.86,1.36-3.13Z"/><text class="cls-2" transform="translate(34.08 124.17)">C<tspan class="cls-3" x="11.54" y="0">I</tspan><tspan class="cls-4" x="17.39" y="0">V</tspan><tspan x="28.91" y="0">IC</tspan><tspan x="-34.08" y="26">EN</tspan><tspan class="cls-5" x="-12.08" y="26">G</tspan><tspan class="cls-6" x="-0.19" y="26">A</tspan><tspan class="cls-7" x="11.43" y="26">GEME</tspan><tspan class="cls-8" x="57.73" y="26">N</tspan><tspan class="cls-7" x="70.32" y="26">T</tspan></text><line class="cls-9" x1="32.04" y1="24.76" x2="28.68" y2="21.41"/><line class="cls-9" x1="28.68" y1="24.76" x2="32.04" y2="21.41"/><line class="cls-9" x1="83.6" y1="33.27" x2="80.24" y2="29.91"/><line class="cls-9" x1="80.24" y1="33.27" x2="83.6" y2="29.91"/><line class="cls-9" x1="36.31" y1="44.69" x2="32.95" y2="41.34"/><line class="cls-9" x1="32.95" y1="44.69" x2="36.31" y2="41.34"/><circle class="cls-10" cx="36.67" cy="29.91" r="1.53"/><circle class="cls-10" cx="77.75" cy="44.69" r="1.53"/><circle class="cls-10" cx="85.61" cy="21.92" r="1.53"/><ellipse class="cls-11" cx="57.08" cy="89.2" rx="18.88" ry="2.62"/><path class="cls-10" d="M54.26,9.59v2.47c-1.89,3.14-7,5.24-11,5.24-2.26,0-5.52-1.31-6.61-3.1"/><path class="cls-10" d="M33.79,15.93c1.78,3.55,7,6,11.19,6a10.81,10.81,0,0,0,6.07-1.86"/><path class="cls-10" d="M36.67,14.2c0-1-1.76-1.78-3.94-1.78s-3.93.8-3.93,1.78S30.57,16,32.73,16a8.91,8.91,0,0,0,1.06-.06"/><path class="cls-10" d="M77.59,14.2C76.51,16,73.24,17.3,71,17.3c-3.94,0-9.09-2.1-11-5.24V9.59"/><path class="cls-10" d="M63.22,20.06a10.8,10.8,0,0,0,6.06,1.86c4.24,0,9.42-2.44,11.19-6"/><path class="cls-10" d="M80.47,15.93a8.91,8.91,0,0,0,1.06.06c2.17,0,3.93-.8,3.93-1.79s-1.76-1.78-3.93-1.78-3.94.8-3.94,1.78"/><path class="cls-10" d="M63.11,20.09a7.56,7.56,0,0,1-.89,3.55h0"/><path class="cls-10" d="M51.86,23.5a7.75,7.75,0,0,1-.81-3.44"/><rect class="cls-12" x="48.79" y="60.64" width="16.46" height="18.78"/><path class="cls-10" d="M57.1,11a7.73,7.73,0,0,0,2.31-1.37,3.76,3.76,0,0,0,.28-.32C62,10,61.43,7,61.43,7a2.7,2.7,0,0,0,.34-2.56C60.38-.16,57.1,1.56,57.1,1.56,53.43.12,52.48,4.38,52.48,4.38A2.55,2.55,0,0,0,52.73,7s-.55,3,1.74,2.27l.28.32A7.73,7.73,0,0,0,57.06,11"/><path class="cls-10" d="M50,50.75V39.32l-1.72-2.07c-1.11-9.95,3.43-13.59,3.62-13.75"/><path class="cls-10" d="M62.22,23.64h0c.83.75,4.47,4.59,3.46,13.6L64,39.32V50.75"/><rect class="cls-12" x="46.71" y="54.89" width="20.64" height="6.26"/></g></g></svg>