<svg id="Layer_1" data-name="Layer 1" xmlns="http://www.w3.org/2000/svg" viewBox="0 0 458.69 458.69"><defs><style>.cls-1,.cls-3{font-size:62.05px;font-family:AlternateGotNo3D, Alternate Gothic No3 D;}.cls-1,.cls-8{fill:#e51f39;}.cls-1{letter-spacing:0.04em;}.cls-2{letter-spacing:0.07em;}.cls-3{fill:#231f20;letter-spacing:0.07em;}.cls-4{letter-spacing:0.09em;}.cls-5{letter-spacing:0.08em;}.cls-6{letter-spacing:0.09em;}.cls-7,.cls-9{fill:none;stroke-miterlimit:10;}.cls-7{stroke:#e51f39;stroke-width:4.81px;}.cls-9{stroke:#fff;stroke-width:4.29px;}</style></defs><text class="cls-1" transform="translate(102.73 346.51)">F<tspan class="cls-2" x="25.44" y="0">ALL</tspan></text><text class="cls-3" transform="translate(217.66 346.51)">F<tspan class="cls-4" x="27.24" y="0">E</tspan><tspan class="cls-5" x="56.09" y="0">A</tspan><tspan class="cls-6" x="88.91" y="0">S</tspan><tspan x="120.93" y="0">T</tspan></text><line class="cls-7" x1="222.79" y1="198.79" x2="222.79" y2="262.02"/><path class="cls-8" d="M301.19,133.55c-26.73,23.77-60,27.33-60,27.33,10.7-24.36,0-38,0-38a175.89,175.89,0,0,1-18.26-33.14V89l-.14.36-.15-.36v.72a175.26,175.26,0,0,1-18.26,33.14s-10.69,13.66,0,38c0,0-33.27-3.56-60-27.33,0,0,8.91,45.75,36.83,64.16L152.1,212s38,32,70.69.11c32.65,31.89,70.68-.11,70.68-.11l-29.11-14.26C292.28,179.3,301.19,133.55,301.19,133.55Z"/><line class="cls-9" x1="222.79" y1="165.03" x2="222.79" y2="215.46"/></svg>