<svg id="Layer_1" data-name="Layer 1" xmlns="http://www.w3.org/2000/svg" viewBox="0 0 458.69 458.69"><defs><style>.cls-1{font-size:62.46px;letter-spacing:0.07em;}.cls-1,.cls-14{fill:#e51f39;}.cls-1,.cls-7{font-family:AlternateGotNo3D, Alternate Gothic No3 D;}.cls-2{letter-spacing:0.08em;}.cls-3{letter-spacing:0.08em;}.cls-4{letter-spacing:0.07em;}.cls-5{letter-spacing:0.07em;}.cls-6{letter-spacing:0.07em;}.cls-7{font-size:114.43px;fill:#231f20;stroke:#231f20;stroke-miterlimit:10;letter-spacing:0.03em;}.cls-8{letter-spacing:0.06em;}.cls-9{letter-spacing:0.09em;}.cls-10{letter-spacing:0.1em;}.cls-11{letter-spacing:0.06em;}.cls-12,.cls-13{fill:#211d1f;}.cls-13,.cls-15,.cls-16{stroke:#fff;stroke-linecap:round;stroke-linejoin:round;}.cls-13{stroke-width:2px;}.cls-15,.cls-16{fill:none;}.cls-15{stroke-width:2.8px;}.cls-16{stroke-width:3.02px;}.cls-17{fill:#fff;}</style></defs><text class="cls-1" transform="translate(102.12 176.51)">G<tspan class="cls-2" x="32.48" y="0">I</tspan><tspan class="cls-3" x="50.34" y="0">V</tspan><tspan x="82.5" y="0">E </tspan><tspan class="cls-4" x="124.35" y="0">B</tspan><tspan class="cls-5" x="157.01" y="0">A</tspan><tspan class="cls-6" x="189.43" y="0">CK</tspan></text><text class="cls-7" transform="translate(54.93 269.19)">B<tspan class="cls-8" x="55.84" y="0">E</tspan><tspan class="cls-9" x="104.93" y="0">Y</tspan><tspan class="cls-10" x="165.35" y="0">ON</tspan><tspan class="cls-11" x="293.62" y="0">D</tspan></text><path class="cls-12" d="M271.89,263.33s5.75,3.15,11.31,0c4.74-2.69,8.57-10.48,7.52-15,0,0-1.78-10.58-5.17-4.3Z"/><path class="cls-13" d="M207.72,201.1s-12.42,9.49-10.95,13.76a15.34,15.34,0,0,0,5.17,7.52Z"/><circle class="cls-14" cx="244.84" cy="230.71" r="45.88"/><path class="cls-15" d="M205.1,205.1c-6.34,14.37,1.5,29,15.34,33.32,14.06,4.43,29.07-1.8,39.83-10.82"/><text/><path class="cls-15" d="M217.17,201.29a14,14,0,0,0-.92,10.66,13.15,13.15,0,0,0,4.5,6.63,14.91,14.91,0,0,0,11.3,2.46c5.06-.81,10.13-3,13.39-7.08,3.8-4.72,5.36-11.71,1.8-17C239.74,185.79,222.47,190.8,217.17,201.29Z"/><path class="cls-16" d="M196.08,237c13.15,35,60.4,29.75,80,9.85a55.59,55.59,0,0,0,7.68-9.85"/><path class="cls-15" d="M245,186.18s19.81-1.35,24.86,19.24"/><path class="cls-15" d="M242.37,277.66c-16.26-13.91-20.58-41.67-18.25-60.47,1.43-11.51,11-31.4,25.12-31.08"/><path class="cls-12" d="M249.49,207.85l36-5.46-2.31,5.46c.15-.35,6.61,3.65,7,3.91a27.11,27.11,0,0,1,10.07,13.54c4,12.76-2.5,25.69-11.58,34.49,0,0,8.84-14.93-17-27.33l-4,8.83Z"/><path class="cls-17" d="M288.6,260.79a1.05,1.05,0,0,1-.62-.21,1,1,0,0,1-.24-1.3,13.06,13.06,0,0,0,.69-9.8c-1.81-5.9-7.32-11.16-16.37-15.67l-3.57,7.89a1,1,0,0,1-.88.59,1,1,0,0,1-.91-.53l-18.09-33.43a1,1,0,0,1,0-.92,1,1,0,0,1,.74-.54l36-5.47a1,1,0,0,1,.94.37,1,1,0,0,1,.13,1l-1.92,4.54c.09-.21,5.6,3.21,5.95,3.47a30.52,30.52,0,0,1,7.49,7.59,25.51,25.51,0,0,1,4.34,12.35,32.09,32.09,0,0,1-.83,11.09,36.45,36.45,0,0,1-5.92,11.67,56.45,56.45,0,0,1-6.18,7A1,1,0,0,1,288.6,260.79Zm-17-29.33a1,1,0,0,1,.43.09c10.16,4.88,16.34,10.73,18.36,17.39a15.63,15.63,0,0,1,.51,7c.84-.93,1.64-1.9,2.4-2.9s1.34-1.81,2-2.76,1.07-1.71,1.55-2.59.83-1.6,1.2-2.42.62-1.45.88-2.2.45-1.3.63-2,.29-1.13.4-1.71.17-1,.23-1.43.09-.75.11-1.13,0-.54,0-.81c0-.54,0-1.07,0-1.61s0-.92,0-1.38a25.59,25.59,0,0,0-.13-2.63,22.63,22.63,0,0,0-.37-2.45,21.92,21.92,0,0,0-.58-2.29c-.23-.72-.49-1.43-.78-2.12s-.6-1.33-.94-2-.69-1.22-1.08-1.8-.76-1.12-1.18-1.66-.82-1-1.26-1.5-.86-.92-1.31-1.36-.88-.83-1.33-1.22-.88-.74-1.33-1.08-.86-.65-1.3-1-.82-.56-1.24-.82-.76-.47-1.15-.69-.69-.39-1-.57l-.89-.46c-.24-.11-.48-.23-.73-.33l-.52-.23-.3-.12-.06,0a1,1,0,0,1-.58-.54,1,1,0,0,1,0-.79l1.61-3.82-32.78,5L267.5,239l3.16-7a1,1,0,0,1,.57-.52A1,1,0,0,1,271.57,231.46Z"/><path class="cls-13" d="M196.71,214.72a31.88,31.88,0,0,1,8.82-18.45s11.09-6.54,20.58,3.08C226.11,199.35,211,197.74,196.71,214.72Z"/></svg>