<svg xmlns="http://www.w3.org/2000/svg" viewBox="0 0 88.09 132.26"><defs><style>.cls-1{fill:#ffd4db;}.cls-2{font-size:24.77px;fill:#211d1e;font-family:AlternateGotNo3D, Alternate Gothic No3 D;letter-spacing:0.03em;}.cls-3{letter-spacing:0.02em;}.cls-4{letter-spacing:0.05em;}.cls-5{letter-spacing:0.05em;}.cls-6{letter-spacing:0.02em;}.cls-7,.cls-8{fill:none;stroke-linecap:round;stroke-linejoin:round;stroke-width:2.5px;}.cls-7{stroke:#e51f39;}.cls-8{stroke:#211d1e;}.cls-9{fill:#e6e6e6;}</style></defs><g id="Layer_2" data-name="Layer 2"><g id="Layer_1-2" data-name="Layer 1"><path class="cls-1" d="M49.23,11.18s-.91,20.46,7.23,24.53V10.84Z"/><text class="cls-2" transform="translate(0 126.07)">H<tspan class="cls-3" x="11.92" y="0">AND</tspan><tspan class="cls-4" x="47.54" y="0">S</tspan><tspan class="cls-5" x="59.38" y="0">-</tspan><tspan class="cls-6" x="64.14" y="0">ON</tspan></text><path class="cls-1" d="M48.8,44v3.38s-7.48,3.42-4.61,10.79l5.05-5.23,7.17-4.13V43.36"/><path class="cls-7" d="M56.41,48.79V43.36H28.24v5.43S37,52.37,38.66,56.93c1,2.87-1.4,5.7-2.46,8.2a14,14,0,0,0,.08,10,10,10,0,0,0,4.47,5.78,3.4,3.4,0,0,0,1.61.43A3.33,3.33,0,0,0,43.63,81c2.64-1.19,4.22-4,5-6.77a14.29,14.29,0,0,0,0-8.68c-1-2.69-3.72-5.53-2.63-8.59C47.61,52.37,56.41,48.79,56.41,48.79ZM28.24,39.14H56.41M44.19,73.36a1.89,1.89,0,1,1-1.89-1.89A1.89,1.89,0,0,1,44.19,73.36Z"/><polyline class="cls-8" points="37.13 11.14 56.41 11.14 56.41 34.92"/><polyline class="cls-8" points="28.24 34.92 28.24 11.14 33.16 11.14"/><polyline class="cls-8" points="33.16 11.14 35.21 17.13 37.13 11.14"/><line class="cls-8" x1="35.15" y1="23.03" x2="35.15" y2="30.15"/><line class="cls-8" x1="61.4" y1="5.7" x2="56.95" y2="1.25"/><line class="cls-8" x1="56.95" y1="5.7" x2="61.4" y2="1.25"/><circle class="cls-7" cx="63.96" cy="13.8" r="2.03"/><ellipse class="cls-9" cx="42.3" cy="91.1" rx="18.88" ry="2.62"/></g></g></svg>