<svg xmlns="http://www.w3.org/2000/svg" viewBox="0 0 88.09 132.59"><defs><style>.cls-1{fill:#ffd4db;}.cls-2{font-size:24.77px;fill:#211d1e;font-family:AlternateGotNo3D, Alternate Gothic No3 D;letter-spacing:0.03em;}.cls-3{letter-spacing:0.02em;}.cls-4{letter-spacing:0.05em;}.cls-5{letter-spacing:0.05em;}.cls-6{letter-spacing:0.02em;}.cls-7,.cls-8{fill:none;stroke-linecap:round;stroke-linejoin:round;stroke-width:2.5px;}.cls-7{stroke:#211d1e;}.cls-8{stroke:#e51f39;}.cls-9{fill:#e6e6e6;}</style></defs><g id="Layer_2" data-name="Layer 2"><g id="Layer_1-2" data-name="Layer 1"><path class="cls-1" d="M34.82,21.15a13.26,13.26,0,0,0,1.72.76,20.43,20.43,0,0,0,15.73-.76l-3,2.83.4,3.69H38.71"/><path class="cls-1" d="M43.29,35.89S42.88,58.76,46,77.73H38.71V35.89Z"/><text class="cls-2" transform="translate(0 126.4)">H<tspan class="cls-3" x="11.92" y="0">AND</tspan><tspan class="cls-4" x="47.54" y="0">S</tspan><tspan class="cls-5" x="59.38" y="0">-</tspan><tspan class="cls-6" x="64.14" y="0">ON</tspan></text><line class="cls-7" x1="19.09" y1="5.7" x2="14.65" y2="1.25"/><line class="cls-7" x1="14.65" y1="5.7" x2="19.09" y2="1.25"/><circle class="cls-8" cx="11.84" cy="14.13" r="2.03"/><ellipse class="cls-9" cx="43.98" cy="91.43" rx="18.88" ry="2.62"/><path class="cls-7" d="M26.36,10.9s0,0,0,0a3.52,3.52,0,0,0-2.48-1.15A3.24,3.24,0,0,0,20.62,13"/><path class="cls-7" d="M26.44,22.68a2.5,2.5,0,0,1-.58.59h0a3.16,3.16,0,0,1-2,.7,3.24,3.24,0,0,1-3.24-3.24"/><line class="cls-7" x1="20.62" y1="12.96" x2="20.62" y2="20.74"/><path class="cls-7" d="M25.91,10.47a2.38,2.38,0,0,0,.36.35,7.25,7.25,0,0,0,4.92,1.91,7.31,7.31,0,0,0,6.15-3.34"/><path class="cls-7" d="M38.71,27.67a7.33,7.33,0,0,0-7.32-6.93,7.23,7.23,0,0,0-4.95,1.94,4.11,4.11,0,0,0-.58.6"/><path class="cls-7" d="M37.54,9.39h12s16,2.55,22.37,16.67l-1.68,1.61s-9.54-9.09-19.32-6.19c0,0-1.45.84-1.22,6.19H38.93"/><line class="cls-8" x1="38.71" y1="31.9" x2="49.25" y2="31.9"/><rect class="cls-8" x="38.71" y="35.89" width="10.54" height="41.83"/><circle class="cls-8" cx="43.98" cy="71.46" r="1.89"/></g></g></svg>