<svg width="66" height="94" viewBox="0 0 66 94" xmlns="http://www.w3.org/2000/svg" xmlns:xlink="http://www.w3.org/1999/xlink">
    <g id="Layer2">
        <g id="Layer1-2">
            <path id="Path" fill="none" stroke="#211d1e" stroke-width="2.485337" stroke-linecap="round" stroke-linejoin="round" d="M 11.191372 5.666565 L 6.777412 1.242668"/>
            <path id="path1" fill="none" stroke="#211d1e" stroke-width="2.485337" stroke-linecap="round" stroke-linejoin="round" d="M 6.777412 5.666565 L 11.191372 1.242668"/>
            <path id="path2" fill="none" stroke="#e51f39" stroke-width="2.485337" stroke-linecap="round" stroke-linejoin="round" d="M 6.001987 14.047119 C 6.001987 15.161682 5.098457 16.065216 3.983894 16.065216 C 2.869333 16.065216 1.965802 15.161682 1.965802 14.047119 C 1.965802 12.932556 2.869333 12.02903 3.983894 12.02903 C 5.098457 12.02903 6.001987 12.932556 6.001987 14.047119 Z"/>
            <path id="path3" fill="#e6e6e6" stroke="none" d="M 54.704643 90.89373 C 54.704643 92.332222 46.301357 93.49836 35.935379 93.49836 C 25.569405 93.49836 17.166121 92.332222 17.166121 90.89373 C 17.166121 89.455231 25.569405 88.289093 35.935379 88.289093 C 46.301357 88.289093 54.704643 89.455231 54.704643 90.89373 Z"/>
            <path id="path4" fill="none" stroke="#211d1e" stroke-width="2.485337" stroke-linecap="round" stroke-linejoin="round" d="M 18.418732 10.836067 C 18.418732 10.836067 18.418732 10.836067 18.418732 10.836067 C 17.784491 10.138397 16.895554 9.726189 15.953276 9.69281 C 15.093849 9.6875 14.267942 10.025879 13.659292 10.63266 C 13.050638 11.239449 12.709728 12.064308 12.712399 12.923752"/>
            <path id="path5" fill="none" stroke="#211d1e" stroke-width="2.485337" stroke-linecap="round" stroke-linejoin="round" d="M 18.49826 22.546974 C 18.33997 22.773155 18.145103 22.971382 17.921663 23.133514 L 17.921663 23.133514 C 17.358749 23.587395 16.656487 23.833183 15.933393 23.829407 C 14.154486 23.829407 12.712399 22.387321 12.712399 20.608414"/>
            <path id="path6" fill="none" stroke="#211d1e" stroke-width="2.485337" stroke-linecap="round" stroke-linejoin="round" d="M 12.712399 12.883987 L 12.712399 20.618355"/>
            <path id="path7" fill="none" stroke="#211d1e" stroke-width="2.485337" stroke-linecap="round" stroke-linejoin="round" d="M 17.971369 10.408592 C 18.078064 10.536865 18.198025 10.653496 18.329258 10.756538 C 19.663177 11.981499 21.409367 12.659386 23.220402 12.655334 C 25.690201 12.659378 27.993 11.40876 29.334328 9.334923"/>
            <path id="path8" fill="none" stroke="#211d1e" stroke-width="2.485337" stroke-linecap="round" stroke-linejoin="round" d="M 30.696289 27.507706 C 30.485085 23.64312 27.289574 20.617867 23.419228 20.618355 C 21.593491 20.6129 19.834103 21.302437 18.49826 22.546974 C 18.28632 22.725723 18.093128 22.925583 17.921663 23.143456"/>
            <path id="path9" fill="none" stroke="#211d1e" stroke-width="2.485337" stroke-linecap="round" stroke-linejoin="round" d="M 29.533154 9.334923 L 41.462772 9.334923 C 41.462772 9.334923 57.368927 11.869965 63.701561 25.90715 L 62.031418 27.507706 C 62.031418 27.507706 52.547371 18.471024 42.824734 21.354012 C 42.824734 21.354012 41.38324 22.189087 41.611889 27.507706 L 30.915001 27.507706"/>
            <path id="path10" fill="none" stroke="#e51f39" stroke-width="2.485337" stroke-linecap="round" stroke-linejoin="round" d="M 30.696289 31.712891 L 41.174469 31.712891"/>
            <path id="path11" fill="none" stroke="#e51f39" stroke-width="2.485337" stroke-linecap="round" stroke-linejoin="round" d="M 30.696289 35.679489 L 41.174469 35.679489 L 41.174469 77.264145 L 30.696289 77.264145 Z"/>
            <path id="path12" fill="none" stroke="#e51f39" stroke-width="2.485337" stroke-linecap="round" stroke-linejoin="round" d="M 37.814293 71.040855 C 37.814293 72.078552 36.97308 72.919769 35.935379 72.919769 C 34.897682 72.919769 34.056465 72.078552 34.056465 71.040855 C 34.056465 70.003166 34.897682 69.161942 35.935379 69.161942 C 36.97308 69.161942 37.814293 70.003166 37.814293 71.040855 Z"/>
        </g>
    </g>
</svg>
