<svg xmlns="http://www.w3.org/2000/svg" viewBox="0 0 110.86 105.59"><defs><style>.cls-1{fill:#ffd4db;}.cls-2{font-size:24.77px;fill:#211d1e;font-family:AlternateGotNo3D, Alternate Gothic No3 D;letter-spacing:0.02em;}.cls-3{letter-spacing:0.04em;}.cls-4{letter-spacing:0.04em;}.cls-5{letter-spacing:0.02em;}.cls-6{letter-spacing:0.03em;}.cls-7{letter-spacing:0.03em;}.cls-8{letter-spacing:0.03em;}.cls-10,.cls-12,.cls-9{fill:none;}.cls-9{stroke:#211d1e;}.cls-10,.cls-9{stroke-linecap:round;stroke-linejoin:round;stroke-width:2.5px;}.cls-10{stroke:#e51f39;}.cls-11{fill:#e6e6e6;}</style></defs><g id="Layer_2" data-name="Layer 2"><g id="Layer_1-2" data-name="Layer 1"><polyline class="cls-1" points="60.33 26.9 64.48 32.86 69.08 36.18"/><path class="cls-1" d="M74.19,38.8s-1-16.22-18.86-16.93l2.11,2.58,5.44,6.18,6.2,6"/><path class="cls-1" d="M44.93,22.58s-10.12,13.41.82,29L36.42,44.7,34.35,35l4.34-9.29Z"/><text class="cls-2" transform="translate(0 99.39)">I<tspan class="cls-3" x="5.62" y="0">NT</tspan><tspan x="28.42" y="0">E</tspan><tspan class="cls-4" x="38.2" y="0">R</tspan><tspan class="cls-5" x="50.02" y="0">A</tspan><tspan class="cls-6" x="61.64" y="0">C</tspan><tspan class="cls-3" x="73.5" y="0">T</tspan><tspan class="cls-7" x="83.71" y="0">I</tspan><tspan class="cls-8" x="89.56" y="0">V</tspan><tspan x="101.07" y="0">E</tspan></text><line class="cls-9" x1="59.05" y1="5.7" x2="54.6" y2="1.25"/><line class="cls-9" x1="54.6" y1="5.7" x2="59.05" y2="1.25"/><circle class="cls-10" cx="47.25" cy="9.03" r="2.03"/><line class="cls-10" x1="36.42" y1="22.24" x2="30.3" y2="22.24"/><ellipse class="cls-11" cx="56.83" cy="64.42" rx="18.88" ry="2.62"/><path class="cls-10" d="M47.45,22.3A14.53,14.53,0,0,0,47.26,51h0"/><path class="cls-10" d="M55.33,23.33A14.42,14.42,0,0,1,62,29.15a25.78,25.78,0,0,0,3.35,4.75,15.06,15.06,0,0,0,4.51,3.41c1.51.76,4.27,1.11,4.33,3.25,0,1.6-1.42,2.7-2.89,3.18a5.32,5.32,0,0,1-1.11.25,10.72,10.72,0,0,1-5.81-1.29,14.49,14.49,0,0,1-5.7-5.39"/><path class="cls-10" d="M55.33,23.33c-2.72,2.24-5.66,6.85-9.73,6.23A2.22,2.22,0,0,1,44,26.15a19.9,19.9,0,0,1,3.28-3.7c1.21-1.15,2.26-2.46,3.55-3.52a14.64,14.64,0,0,1,9-3.37h.3A14.51,14.51,0,0,1,73,23.28h6.08"/><polygon class="cls-9" points="18.21 18.74 30.3 18.74 30.3 22.25 30.3 43.55 18.21 43.55 18.21 18.74"/><rect class="cls-9" x="79.06" y="18.74" width="12.09" height="24.8"/><path class="cls-10" d="M71.3,43.74c.39,1.88-1.48,3.18-3.44,3.88a11,11,0,0,1-2.37.62h-.14a9.14,9.14,0,0,1-5-.76,14.5,14.5,0,0,1-5.88-5.18"/><path class="cls-10" d="M67.86,47.62c.26,2.41-3.36,4.05-5.51,4.53a.8.8,0,0,0-.15,0c-.31.06-.62.11-.92.14h0a9.26,9.26,0,0,1-4.16-.52,14.82,14.82,0,0,1-6.51-5"/><path class="cls-10" d="M61.28,52.32h0a9.47,9.47,0,0,1-5,2.15c-3.49.52-6.61-1-9-3.45h0"/><line class="cls-12" x1="60.33" y1="35.37" x2="49.16" y2="48.51"/><line class="cls-9" x1="24.24" y1="36.18" x2="24.24" y2="42.31"/><line class="cls-9" x1="85.1" y1="36.18" x2="85.1" y2="42.31"/></g></g></svg>