<svg xmlns="http://www.w3.org/2000/svg" viewBox="0 0 68.05 116.54"><defs><style>.cls-1{fill:#ffd4db;}.cls-2{font-size:24.77px;fill:#211d1e;font-family:AlternateGotNo3D, Alternate Gothic No3 D;letter-spacing:0.03em;}.cls-3{letter-spacing:0.02em;}.cls-4{letter-spacing:0.03em;}.cls-5{letter-spacing:0.02em;}.cls-6,.cls-7{fill:none;stroke-linecap:round;stroke-linejoin:round;stroke-width:2.5px;}.cls-6{stroke:#211d1e;}.cls-7{stroke:#e51f39;}.cls-8{fill:#e6e6e6;}</style></defs><g id="Layer_2" data-name="Layer 2"><g id="Layer_1-2" data-name="Layer 1"><path class="cls-1" d="M3.08,49.64s7.91,4.54,15.47,0l-5-2.14-6.13-.78"/><path class="cls-1" d="M25.05,17.39s7.91,4.53,15.47,0l-5-2.15-6.13-.78"/><path class="cls-1" d="M47.68,49.64s7.91,4.54,15.47,0l-5-2.14L52,46.72"/><text class="cls-2" transform="translate(2.61 110.35)">S<tspan class="cls-3" x="11.35" y="0">OC</tspan><tspan class="cls-4" x="34.63" y="0">I</tspan><tspan class="cls-5" x="40.36" y="0">AL</tspan></text><line class="cls-6" x1="22.21" y1="5.7" x2="17.76" y2="1.25"/><line class="cls-6" x1="17.76" y1="5.7" x2="22.21" y2="1.25"/><circle class="cls-7" cx="64.77" cy="31.92" r="2.03"/><ellipse class="cls-8" cx="32.67" cy="75.38" rx="18.88" ry="2.62"/><circle class="cls-7" cx="32.79" cy="9.78" r="5.47"/><path class="cls-7" d="M37.06,14.46A9.57,9.57,0,0,1,42.35,23H23.22a9.57,9.57,0,0,1,5.29-8.56"/><circle class="cls-7" cx="10.81" cy="42.03" r="5.47"/><path class="cls-7" d="M15.09,46.72a9.54,9.54,0,0,1,5.29,8.55H1.25a9.55,9.55,0,0,1,5.28-8.55"/><circle class="cls-7" cx="54.92" cy="42.03" r="5.47"/><path class="cls-7" d="M59.19,46.72a9.54,9.54,0,0,1,5.29,8.55H45.35a9.54,9.54,0,0,1,5.29-8.55"/><path class="cls-6" d="M9.41,29.19A25.76,25.76,0,0,1,17.67,19"/><path class="cls-6" d="M48,19.1a25.89,25.89,0,0,1,8.42,10.62"/><path class="cls-6" d="M40.25,61.66a25.88,25.88,0,0,1-13.56.06"/></g></g></svg>