<svg width="65" height="73" viewBox="0 0 65 73" xmlns="http://www.w3.org/2000/svg" xmlns:xlink="http://www.w3.org/1999/xlink">
    <g id="Layer2">
        <g id="Layer1-2">
            <path id="Path" fill="none" stroke="#211d1e" stroke-width="2.328036" stroke-linecap="round" stroke-linejoin="round" d="M 20.997704 5.307922 L 16.853798 1.164017"/>
            <path id="path1" fill="none" stroke="#211d1e" stroke-width="2.328036" stroke-linecap="round" stroke-linejoin="round" d="M 16.853798 5.307922 L 20.997704 1.164017"/>
            <path id="path2" fill="none" stroke="#e51f39" stroke-width="2.328036" stroke-linecap="round" stroke-linejoin="round" d="M 62.520554 29.724361 C 62.520554 30.768379 61.674202 31.614727 60.63018 31.614727 C 59.586166 31.614727 58.739822 30.768379 58.739822 29.724361 C 58.739822 28.68034 59.586166 27.833996 60.63018 27.833996 C 61.674202 27.833996 62.520554 28.68034 62.520554 29.724361 Z"/>
            <path id="path3" fill="#e6e6e6" stroke="none" d="M 48.319527 70.194931 C 48.319527 71.542389 40.448105 72.634712 30.738201 72.634712 C 21.028309 72.634712 13.156879 71.542389 13.156879 70.194931 C 13.156879 68.847481 21.028309 67.755157 30.738201 67.755157 C 40.448105 67.755157 48.319527 68.847481 48.319527 70.194931 Z"/>
            <path id="path4" fill="none" stroke="#e51f39" stroke-width="2.328036" stroke-linecap="round" stroke-linejoin="round" d="M 35.943691 9.107277 C 35.943691 11.920471 33.663147 14.201019 30.849953 14.201019 C 28.036755 14.201019 25.756207 11.920471 25.756207 9.107277 C 25.756207 6.294083 28.036755 4.013535 30.849953 4.013535 C 33.663147 4.013535 35.943691 6.294083 35.943691 9.107277 Z"/>
            <path id="path5" fill="none" stroke="#e51f39" stroke-width="2.328036" stroke-linecap="round" stroke-linejoin="round" d="M 34.826237 13.465359 C 37.839428 14.972019 39.745464 18.049053 39.752357 21.417931 L 21.938229 21.417931 C 21.938084 18.042339 23.845165 14.956402 26.864353 13.446735"/>
            <path id="path6" fill="none" stroke="#e51f39" stroke-width="2.328036" stroke-linecap="round" stroke-linejoin="round" d="M 15.475601 39.138935 C 15.475601 41.952133 13.195057 44.232681 10.381861 44.232681 C 7.568665 44.232681 5.288118 41.952133 5.288118 39.138935 C 5.288118 36.325741 7.568665 34.045197 10.381861 34.045197 C 13.195057 34.045197 15.475601 36.325741 15.475601 39.138935 Z"/>
            <path id="path7" fill="none" stroke="#e51f39" stroke-width="2.328036" stroke-linecap="round" stroke-linejoin="round" d="M 14.367458 43.506332 C 17.388237 45.009468 19.296753 48.094116 19.293579 51.468216 L 1.479452 51.468216 C 1.476707 48.096817 3.380634 45.013752 6.396263 43.506332"/>
            <path id="path8" fill="none" stroke="#e51f39" stroke-width="2.328036" stroke-linecap="round" stroke-linejoin="round" d="M 56.551468 39.138935 C 56.551468 41.952133 54.27092 44.232681 51.457718 44.232681 C 48.644524 44.232681 46.363983 41.952133 46.363983 39.138935 C 46.363983 36.325741 48.644524 34.045197 51.457718 34.045197 C 54.27092 34.045197 56.551468 36.325741 56.551468 39.138935 Z"/>
            <path id="path9" fill="none" stroke="#e51f39" stroke-width="2.328036" stroke-linecap="round" stroke-linejoin="round" d="M 55.434006 43.506332 C 58.454788 45.009468 60.363304 48.094116 60.360138 51.468216 L 42.546001 51.468216 C 42.542828 48.094116 44.451344 45.009468 47.472122 43.506332"/>
            <path id="path10" fill="none" stroke="#211d1e" stroke-width="2.328036" stroke-linecap="round" stroke-linejoin="round" d="M 9.078159 27.182144 C 10.780331 23.408382 13.430185 20.139374 16.769989 17.693073"/>
            <path id="path11" fill="none" stroke="#211d1e" stroke-width="2.328036" stroke-linecap="round" stroke-linejoin="round" d="M 45.013721 17.786194 C 48.459091 20.327991 51.165436 23.741451 52.854546 27.67569"/>
            <path id="path12" fill="none" stroke="#211d1e" stroke-width="2.328036" stroke-linecap="round" stroke-linejoin="round" d="M 37.79681 57.418674 C 33.667496 58.559265 29.308784 58.578552 25.169544 57.474548"/>
        </g>
    </g>
</svg>
