<svg width="164" height="92" viewBox="0 0 164 92" xmlns="http://www.w3.org/2000/svg" xmlns:xlink="http://www.w3.org/1999/xlink">
    <path id="Path" fill="rgb(60,60,60)" stroke="none" d="M 50.129997 63.389999 L 50.129997 64.669998 L 51.75 64.669998 L 51.75 63.389999 Z M 55.620003 51.389999 C 55.499069 49.931519 54.257065 48.823257 52.794289 48.868546 C 51.331512 48.913849 50.160461 50.096832 50.129997 51.559998 L 50.129997 51.639999 L 50.239998 51.270004 C 50.33725 50.929901 50.646301 50.694046 51 50.690002 L 51 50.690002 C 51.348206 50.688766 51.658234 50.910217 51.769997 51.240005 L 51.769997 51.240005 C 51.932869 50.705704 52.458878 50.368118 53.012451 50.442581 C 53.566032 50.517059 53.984123 50.981659 54 51.539993 L 54 56.990005 L 52 56.990005 L 52.529999 58.599991 L 54 58.599991 L 54 63.199997 L 54.059998 63.389999 L 54.059998 53.830002 L 55.620003 53.830002 L 55.620003 51.429993 Z M 61.270004 54.550003 L 60.110001 54.550003 L 60.110001 56.119995 L 60.419998 56.990005 L 60.110001 56.990005 L 60.110001 57.349991 L 61.720001 57.349991 L 61.720001 55.830002 Z M 65.729996 55.630005 L 65.729996 55.630005 C 65.230957 55.85318 64.749573 56.113922 64.289993 56.410004 L 64.759995 56.990005 L 63.470001 56.990005 C 62.871338 57.458588 62.339722 58.007034 61.889999 58.619995 L 64 58.619995 C 64.79892 57.89183 65.728683 57.321747 66.740005 56.940002 Z M 67.669998 58.039993 C 67.135498 58.161209 66.620529 58.356415 66.139999 58.619995 L 68.139999 58.619995 Z M 61.240005 52.639999 L 62.429993 51.539993 L 61.429993 50.279999 L 58.429993 46.550003 L 58.429993 46.149994 L 57 46.149994 L 57 44.289993 L 55.400002 44.289993 L 55.400002 46.149994 L 50.300003 46.149994 L 50.300003 44.289993 L 48.68 44.289993 L 48.68 46.149994 L 47.360001 46.149994 L 47.360001 46.679993 L 38.129997 58.119995 L 28.800003 46.509995 L 28.800003 46.110001 L 27.410004 46.110001 L 27.410004 44.25 L 25.800003 44.25 L 25.800003 46.110001 L 20.699997 46.110001 L 20.699997 44.25 L 19.080002 44.25 L 19.080002 46.110001 L 17.760002 46.110001 L 17.760002 46.630005 L 8.120003 58.630005 L 17.760002 58.630005 L 17.760002 64.800003 L 19.379997 64.800003 L 19.379997 58.630005 L 20.510002 58.630005 L 20.510002 64.800003 L 22.120003 64.800003 L 22.120003 58.619995 L 24.419998 58.619995 L 24.419998 64.619995 L 26 64.619995 L 26 58.619995 L 27.150002 58.619995 L 27.150002 64.790009 L 28.800003 64.790009 L 28.800003 58.619995 L 47.360001 58.619995 L 47.360001 64.619995 L 49 64.619995 L 49 63.430008 L 48.360001 63.430008 L 49 61.259995 L 49 58.619995 L 49.779999 58.619995 L 51.080002 54.209991 L 51.769997 56.309998 L 51.769997 51.559998 C 51.754913 51.460571 51.754913 51.359436 51.769997 51.259995 C 51.932869 50.725708 52.458878 50.388107 53.012451 50.462585 C 53.566032 50.537064 53.984123 51.001663 54 51.559998 L 54 57.009995 L 52 57.009995 L 52.529999 58.619995 L 54 58.619995 L 54 63.220001 L 54.059998 63.410004 L 54.059998 63.410004 L 54 63.410004 L 54 64.600006 L 55.620003 64.600006 L 55.620003 58.599991 L 55.68 58.599991 L 55.68 56.990005 L 55.620003 56.990005 L 55.620003 51.369995 L 55.620003 51.369995 C 55.499069 49.91153 54.257065 48.803253 52.794289 48.848557 C 51.331512 48.893845 50.160461 50.076843 50.129997 51.539993 L 50.129997 56.990005 L 49 56.990005 L 49 47.740005 L 56.800003 47.740005 L 56.800003 55.369995 L 58.330002 55.369995 L 58.419998 55.289993 L 58.419998 51.349991 L 58.889999 52.660004 L 59.479996 54.309998 L 60.770004 53.110001 L 60.179993 51.459991 L 60.080002 51.190002 L 60.25 51.389999 Z M 11.5 56.970001 L 16.199997 51.139999 L 14.120003 56.970001 Z M 15.839996 56.970001 L 17.760002 51.569992 L 17.760002 56.970001 Z M 19.379997 56.970001 L 19.379997 47.720001 L 20.519997 47.720001 L 20.519997 56.970001 Z M 22.139999 47.720001 L 24.419998 47.720001 L 24.419998 49.509995 C 24.067101 49.353943 23.685852 49.272247 23.300003 49.270004 C 22.894753 49.271713 22.495018 49.363968 22.129997 49.539993 Z M 22.139999 56.970001 L 22.139999 51.970001 L 22.139999 51.970001 C 22.194778 51.389633 22.682053 50.946182 23.264999 50.946182 C 23.847946 50.946182 24.33522 51.389633 24.389999 51.970001 L 24.389999 56.970001 Z M 26.050003 56.970001 L 26.050003 51.970001 L 26.050003 51.970001 C 26.050003 51.970001 26.050003 51.970001 26.050003 51.899994 L 26.050003 47.679993 L 27.199997 47.679993 L 27.199997 56.929993 Z M 28.82 56.970001 L 28.82 51.319992 L 30.82 56.970001 Z M 32.550003 56.970001 L 30.470001 51.160004 L 35.169998 56.970001 Z M 41.129997 56.970001 L 45.830002 51.139999 L 43.739998 56.970001 Z M 45.459999 56.970001 L 47.379997 51.580002 L 47.379997 56.970001 Z"/>
    <path id="path1" fill="rgb(60,60,60)" stroke="none" d="M 80.449997 15.199997 L 78.830002 15.199997 L 78.830002 14.199997 C 78.830002 9.660004 80.360001 5.389999 82.910004 2.759995 C 84.369293 1.151993 86.419556 0.206268 88.589996 0.139999 L 88.589996 1.759995 L 88.589996 1.759995 C 86.865158 1.809311 85.234116 2.556274 84.070007 3.830002 C 81.800003 6.160004 80.449997 10.009995 80.449997 14.139999 Z"/>
    <path id="path2" fill="rgb(60,60,60)" stroke="none" d="M 82.704239 3.469086 L 84.277054 3.081009 L 87.292999 15.304443 L 85.720169 15.69252 Z"/>
    <path id="path3" fill="rgb(60,60,60)" stroke="none" d="M 81.710007 17.270004 L 81.710007 17.259995 L 83.330002 17.259995 L 81.710007 17.270004 Z"/>
    <path id="path4" fill="rgb(60,60,60)" stroke="none" d="M 81.800003 15.199997 L 81.800003 15.119995 C 81.80191 14.56189 81.835297 14.004349 81.899994 13.449997 C 82.100098 11.243622 82.914169 9.13739 84.25 7.369995 C 85.33223 5.892563 87.029953 4.990311 88.860001 4.919998 L 88.860001 6.539993 C 87.507462 6.600449 86.257645 7.278809 85.470001 8.380005 C 84.329269 9.910614 83.63678 11.728363 83.470001 13.630005 C 83.409103 14.124313 83.379044 14.621948 83.380005 15.119995 Z"/>
    <path id="path5" fill="rgb(60,60,60)" stroke="none" d="M 81.710007 17.270004 L 81.710007 17.259995 L 83.330002 17.259995 L 81.710007 17.270004 Z"/>
    <path id="path6" fill="rgb(60,60,60)" stroke="none" d="M 77 14.389999 L 77 29.830002 L 83.399994 29.830002 L 83.399994 14.389999 Z M 78.610001 28.220001 L 78.610001 16 L 81.789993 16 L 81.789993 28.220001 Z"/>
    <path id="path7" fill="rgb(60,60,60)" stroke="none" d="M 75.720001 28.220001 L 75.720001 51.220001 L 77.339996 52.720001 L 77.339996 29.830002 L 81.830002 29.830002 L 81.830002 55.339996 L 82.639999 55.339996 L 82.699997 55.339996 L 82.699997 73.979996 L 83.449997 73.979996 L 83.449997 28.220001 Z M 79.619995 73.220001 C 79.524841 72.920868 79.368164 72.644958 79.160004 72.410004 L 77.339996 72.410004 L 77.339996 60.080002 C 77.113068 59.596039 76.841919 59.134079 76.529999 58.699997 C 76.287537 58.345276 76.016647 58.010834 75.720001 57.699997 L 75.720001 60.380005 C 76.163071 61.186554 76.438583 62.074326 76.529999 62.990005 C 76.544708 63.193069 76.544708 63.396942 76.529999 63.600006 L 76.529999 71.600006 L 76.529999 71.600006 C 76.232864 71.689987 75.95723 71.839722 75.720001 72.040009 L 75.720001 73.979996 L 76.429993 73.979996 L 76.429993 73.979996 C 76.42926 73.646896 76.625397 73.344833 76.929993 73.210007 C 77.151291 73.103973 77.408707 73.103973 77.630005 73.210007 C 77.934601 73.344833 78.130753 73.646896 78.130005 73.979996 L 78.130005 73.979996 L 79.75 73.979996 L 79.75 73.979996 C 79.754349 73.714264 79.710297 73.449966 79.619995 73.199997 Z M 76.570007 54.529999 L 76.570007 57.330002 L 77.339996 57.330002 L 77.339996 54.529999 Z"/>
    <path id="path8" fill="rgb(60,60,60)" stroke="none" d="M 83.429993 22.099991 L 81.839996 21.830002 C 82.153595 20.049194 82.894821 18.37114 84 16.940002 C 84.92804 15.703262 86.282211 14.855133 87.800003 14.559998 L 87.800003 0.910004 L 89.419998 0.910004 L 89.419998 16.110001 L 88.610001 16.110001 C 87.270004 16.184799 86.036987 16.865707 85.259995 17.959991 C 84.32431 19.171783 83.696381 20.592361 83.429993 22.099991 Z"/>
    <path id="path9" fill="rgb(60,60,60)" stroke="none" d="M 98.360001 15.199997 L 96.75 15.199997 L 96.75 14.199997 C 96.75 10.069992 95.389999 6.199997 93.130005 3.889999 C 91.970123 2.591019 90.330353 1.821701 88.589996 1.759995 L 88.589996 0.139999 C 90.78299 0.192627 92.85817 1.143448 94.330002 2.770004 C 96.880005 5.389999 98.399994 9.660004 98.399994 14.199997 Z"/>
    <path id="path10" fill="rgb(60,60,60)" stroke="none" d="M 89.894028 15.304672 L 92.905701 3.080185 L 94.478668 3.467712 L 91.466995 15.6922 Z"/>
    <path id="path11" fill="rgb(60,60,60)" stroke="none" d="M 95.479996 17.270004 L 93.869995 17.270004 L 95.479996 17.259995 L 95.479996 17.270004 Z"/>
    <path id="path12" fill="rgb(60,60,60)" stroke="none" d="M 93.779999 15.199997 C 93.784088 14.678589 93.754028 14.157471 93.690002 13.639999 C 93.525024 11.734894 92.832458 9.913437 91.690002 8.380005 C 90.911926 7.288376 89.67865 6.610992 88.339996 6.539993 L 88.289993 4.919998 L 88.289993 4.919998 C 90.130707 4.981247 91.841324 5.884476 92.929993 7.369995 C 94.271133 9.139114 95.088806 11.24913 95.289993 13.459991 C 95.351807 14.011154 95.381866 14.565399 95.380005 15.119995 Z"/>
    <path id="path13" fill="rgb(60,60,60)" stroke="none" d="M 95.479996 17.270004 L 93.869995 17.270004 L 95.479996 17.259995 L 95.479996 17.270004 Z"/>
    <path id="path14" fill="rgb(60,60,60)" stroke="none" d="M 93.759995 14.389999 L 93.759995 29.830002 L 100.160004 29.830002 L 100.160004 14.389999 Z M 95.369995 28.220001 L 95.369995 16 L 98.550003 16 L 98.550003 28.220001 Z"/>
    <path id="path15" fill="rgb(60,60,60)" stroke="none" d="M 95.369995 73.199997 L 93.75 73.199997 L 93.75 25.899994 L 82.630005 25.899994 L 82.630005 24.279999 L 95.369995 24.279999 L 95.369995 73.199997 Z"/>
    <path id="path16" fill="rgb(60,60,60)" stroke="none" d="M 93.759995 29.830002 L 93.759995 73.180008 L 93.759995 73.180008 L 93.759995 43.649994 L 95.350006 43.649994 L 95.350006 29.830002 Z M 93.759995 28.209991 L 93.759995 73.990005 L 95.399994 73.990005 L 95.399994 72.380005 L 95.399994 72.380005 L 95.399994 29.830002 L 99.889999 29.830002 L 99.889999 45.259995 L 101.509995 45.259995 L 101.509995 28.259995 Z M 100.580002 71.279999 L 100.580002 73.990005 L 101.479996 73.990005 L 101.479996 71.279999 Z M 100.580002 65.949997 L 100.580002 69.259995 L 101.479996 69.259995 L 101.479996 65.949997 Z M 100.580002 60.440002 L 100.580002 63.75 L 101.479996 63.75 L 101.479996 60.440002 Z M 100.580002 55.029999 L 100.580002 58.339996 L 101.479996 58.339996 L 101.479996 55.029999 Z M 100.580002 49.699997 L 100.580002 53.009995 L 101.479996 53.009995 L 101.479996 49.699997 Z"/>
    <path id="path17" fill="rgb(60,60,60)" stroke="none" d="M 93.770004 22.099991 C 93.507889 20.591064 92.879517 19.169495 91.940002 17.959991 C 91.168182 16.86499 89.937668 16.183426 88.600006 16.110001 L 87.789993 16.110001 L 87.789993 0.910004 L 89.399994 0.910004 L 89.399994 14.559998 C 90.917786 14.855133 92.271957 15.703262 93.199997 16.940002 C 94.30545 18.369843 95.04364 20.048813 95.350006 21.830002 Z"/>
    <path id="path18" fill="rgb(60,60,60)" stroke="none" d="M 152.169998 53.190002 C 152.612289 51.965134 153.868469 51.232986 155.152222 51.451874 C 156.435974 51.670746 157.378571 52.777771 157.389999 54.080002 C 157.391846 54.74379 157.141663 55.383545 156.690002 55.869995"/>
    <path id="path19" fill="rgb(60,60,60)" stroke="none" d="M 149.339996 55.830002 C 149.337326 55.118408 149.618835 54.435181 150.122009 53.932007 C 150.625183 53.428833 151.308411 53.147324 152.020004 53.149994 L 152.169998 53.149994 L 152.289993 52.880005"/>
    <path id="path20" fill="rgb(60,60,60)" stroke="none" d="M 159.179993 55.869995 L 156.690002 55.869995 L 156.880005 55.639999"/>
    <path id="path21" fill="rgb(60,60,60)" stroke="none" d="M 150.149994 55.869995 L 147.539993 55.869995"/>
    <path id="path22" fill="rgb(60,60,60)" stroke="none" d="M 62.690002 22.330002 C 62.240234 21.843094 61.993423 21.202805 62 20.539993 C 62.001953 19.233643 62.945526 18.119019 64.233658 17.901443 C 65.521774 17.683868 66.779083 18.426743 67.210007 19.660004"/>
    <path id="path23" fill="rgb(60,60,60)" stroke="none" d="M 67.100006 19.380005 L 67.210007 19.660004 L 67.360001 19.660004 C 68.07251 19.657333 68.756744 19.938522 69.26152 20.441406 C 69.766281 20.94429 70.050003 21.627487 70.050003 22.339996"/>
    <path id="path24" fill="rgb(60,60,60)" stroke="none" d="M 62.5 22.099991 L 62.690002 22.330002 L 60.199997 22.330002"/>
    <path id="path25" fill="rgb(60,60,60)" stroke="none" d="M 71.839996 22.330002 L 69.240005 22.330002"/>
    <path id="path26" fill="rgb(60,60,60)" stroke="none" d="M 117.149994 8.959991 C 117.149994 7.954834 117.964844 7.139999 118.970001 7.139999 C 119.975159 7.139999 120.789993 7.954834 120.789993 8.959991"/>
    <path id="path27" fill="rgb(60,60,60)" stroke="none" d="M 120.809998 8.959991 C 120.809998 7.954834 121.624847 7.139999 122.630005 7.139999 C 123.635162 7.139999 124.449997 7.954834 124.449997 8.959991"/>
    <path id="path28" fill="rgb(60,60,60)" stroke="none" d="M 123.789993 45.830002 L 123.789993 63.040009 L 139.270004 63.040009 L 139.270004 45.830002 Z M 137.660004 61.419998 L 125.410004 61.419998 L 125.410004 47.419998 L 137.660004 47.419998 Z"/>
    <path id="path29" fill="rgb(60,60,60)" stroke="none" d="M 124.320007 76.990005 L 124.320007 78.610001 L 125.929993 78.610001 L 125.929993 76.990005 Z M 122.520004 61.400009 L 122.520004 75.650009 L 123.330002 75 L 123.690002 74.710007 L 124.139999 74.710007 L 124.139999 63.020004 L 138.779999 63.020004 L 138.779999 77.020004 L 135.580002 77.020004 L 135.580002 78.639999 L 140.399994 78.639999 L 140.399994 61.400009 Z M 131.089996 76.990005 L 131.089996 78.610001 L 132.710007 78.610001 L 132.710007 76.990005 Z"/>
    <path id="path30" fill="rgb(60,60,60)" stroke="none" d="M 129.089996 45.660004 L 129.089996 45.830002 L 130.600006 45.830002 L 130.600006 45.679993 Z M 129.089996 45.660004 L 129.089996 45.830002 L 130.600006 45.830002 L 130.600006 45.679993 Z M 124.779999 38.599991 L 124.779999 47.279999 L 138.050003 47.279999 L 138.050003 38.599991 Z M 136.429993 40.209991 L 136.429993 45.660004 L 126.429993 45.660004 L 126.429993 40.209991 Z M 129.089996 45.660004 L 129.089996 45.830002 L 130.600006 45.830002 L 130.600006 45.679993 Z"/>
    <path id="path31" fill="rgb(60,60,60)" stroke="none" d="M 122.199997 45.809998 L 140.610001 45.809998 L 140.610001 47.429993 L 122.199997 47.429993 Z"/>
    <path id="path32" fill="rgb(60,60,60)" stroke="none" d="M 130.630005 22.75 L 132.25 22.75 L 132.25 25.369995 L 130.630005 25.369995 Z"/>
    <path id="path33" fill="rgb(60,60,60)" stroke="none" d="M 127.460007 49.149994 L 127.460007 51.589996"/>
    <path id="path34" fill="rgb(60,60,60)" stroke="none" d="M 130.169998 49.149994 L 130.169998 51.589996"/>
    <path id="path35" fill="rgb(60,60,60)" stroke="none" d="M 127.460007 53.089996 L 127.460007 55.539993"/>
    <path id="path36" fill="rgb(60,60,60)" stroke="none" d="M 130.169998 53.089996 L 130.169998 55.539993"/>
    <path id="path37" fill="rgb(60,60,60)" stroke="none" d="M 127.460007 57.089996 L 127.460007 59.529999"/>
    <path id="path38" fill="rgb(60,60,60)" stroke="none" d="M 130.169998 57.089996 L 130.169998 59.529999"/>
    <path id="path39" fill="rgb(60,60,60)" stroke="none" d="M 132.779999 49.149994 L 132.779999 51.589996"/>
    <path id="path40" fill="rgb(60,60,60)" stroke="none" d="M 135.490005 49.149994 L 135.490005 51.589996"/>
    <path id="path41" fill="rgb(60,60,60)" stroke="none" d="M 132.779999 53.089996 L 132.779999 55.539993"/>
    <path id="path42" fill="rgb(60,60,60)" stroke="none" d="M 135.490005 53.089996 L 135.490005 55.539993"/>
    <path id="path43" fill="rgb(60,60,60)" stroke="none" d="M 132.779999 57.089996 L 132.779999 59.529999"/>
    <path id="path44" fill="rgb(60,60,60)" stroke="none" d="M 135.490005 57.089996 L 135.490005 59.529999"/>
    <path id="path45" fill="rgb(60,60,60)" stroke="none" d="M 126.330002 39.729996 L 124.850006 39.080002 L 129.190002 29.059998 L 133.880005 29.059998 L 137.990005 39.099991 L 136.490005 39.709991 L 132.789993 30.679993 L 130.25 30.679993 L 126.330002 39.729996 Z"/>
    <path id="path46" fill="rgb(60,60,60)" stroke="none" d="M 129.289993 24.559998 L 129.289993 30.139999 L 133.639999 30.139999 L 133.639999 24.559998 Z M 132 26.179993 L 132 28.520004 L 130.880005 28.520004 L 130.880005 26.179993 Z"/>
    <path id="path47" fill="rgb(60,60,60)" stroke="none" d="M 127.470001 39.410004 L 129.089996 39.410004 L 129.089996 46.479996 L 127.470001 46.479996 Z"/>
    <path id="path48" fill="rgb(60,60,60)" stroke="none" d="M 133.660004 39.410004 L 135.279999 39.410004 L 135.279999 46.479996 L 133.660004 46.479996 Z"/>
    <path id="path49" fill="rgb(60,60,60)" stroke="none" d="M 130.600006 39.410004 L 132.220001 39.410004 L 132.220001 46.479996 L 130.600006 46.479996 Z"/>
    <path id="path50" fill="rgb(60,60,60)" stroke="none" d="M 46.690002 63.389999 L 46.690002 91.150009 L 55.690002 91.150009 L 55.690002 63.389999 Z M 54.080002 89.529999 L 48.309998 89.529999 L 48.309998 65.009995 L 54.080002 65.009995 Z"/>
    <path id="path51" fill="rgb(60,60,60)" stroke="none" d="M 55.699997 63.169998 L 55.699997 63.430008 C 55.690742 63.499435 55.670486 63.56694 55.639999 63.630005 C 55.548393 63.835052 55.373848 63.991409 55.160004 64.059998 C 54.743324 64.19165 54.298103 63.964584 54.160004 63.550003 L 54.160004 63.389999 L 54.160004 63.389999 L 54.099998 63.199997 L 52.589996 58.599991 L 52.059998 56.990005 L 51.830002 56.289993 L 51.139999 54.190002 L 49.839996 58.599991 L 49.059998 61.240005 L 48.419998 63.410004 L 48.360001 63.610001 C 48.333458 63.687973 48.296455 63.761978 48.25 63.830002 C 48.09919 64.052582 47.848846 64.187103 47.580002 64.190002 C 47.533783 64.199158 47.486214 64.199158 47.440002 64.190002 L 47.349998 64.190002 C 47.020409 64.089676 46.788681 63.794022 46.769997 63.449997 L 46.769997 63.449997 C 46.755623 63.367294 46.755623 63.282715 46.769997 63.199997 L 47.400002 61.059998 L 49.019997 55.569992 L 50.169998 51.660004 L 50.279999 51.289993 C 50.377251 50.949905 50.686302 50.71405 51.040001 50.709991 L 51.040001 50.709991 C 51.388206 50.708771 51.698235 50.930222 51.809998 51.259995 L 51.809998 51.259995 L 53.699997 57.009995 L 54.099998 58.229996 L 55.660004 62.990005 L 55.660004 63.080002 C 55.675194 63.109146 55.688553 63.139206 55.699997 63.169998 Z"/>
    <path id="path52" fill="rgb(60,60,60)" stroke="none" d="M 55.639999 56.970001 L 55.639999 53.75 L 54.080002 53.75 L 54.080002 63.360001 L 55.629997 63.360001 L 55.629997 62.919998 L 55.629997 63.009995 C 55.633568 63.053268 55.633568 63.096741 55.629997 63.139999 L 55.629997 56.940002 Z M 55.639999 58.580002 L 55.639999 62.949997 L 55.639999 63.040009 C 55.64357 63.083267 55.64357 63.12674 55.639999 63.169998 L 55.639999 58.580002 Z M 55.639999 58.580002 L 55.639999 62.949997 L 55.639999 63.040009 C 55.64357 63.083267 55.64357 63.12674 55.639999 63.169998 L 55.639999 58.580002 Z M 60.229996 51.339996 L 60.160004 51.410004 L 60.75 53.059998 L 61.240005 52.599991 Z M 58.869995 52.610001 L 58.399994 53.039993 L 58.399994 55.240005 L 59.460007 54.240005 Z M 55.639999 53.75 L 54.080002 53.75 L 54.080002 63.360001 L 55.690002 63.360001 L 55.690002 55.360001 L 56.769997 55.360001 L 56.769997 53.729996 Z M 60.229996 51.339996 L 60.160004 51.410004 L 60.75 53.059998 L 61.240005 52.599991 Z M 58.869995 52.610001 L 58.399994 53.039993 L 58.399994 55.240005 L 59.460007 54.240005 Z M 55.639999 53.75 L 54.080002 53.75 L 54.080002 63.360001 L 55.690002 63.360001 L 55.690002 55.360001 L 56.769997 55.360001 L 56.769997 53.729996 Z M 60.229996 51.339996 L 60.160004 51.410004 L 60.75 53.059998 L 61.240005 52.599991 Z M 58.869995 52.610001 L 58.399994 53.039993 L 58.399994 55.240005 L 59.460007 54.240005 Z M 55.639999 53.75 L 54.080002 53.75 L 54.080002 63.360001 L 55.690002 63.360001 L 55.690002 55.360001 L 56.769997 55.360001 L 56.769997 53.729996 Z M 60.229996 51.339996 L 60.160004 51.410004 L 60.75 53.059998 L 61.240005 52.599991 Z M 58.869995 52.610001 L 58.399994 53.039993 L 58.399994 55.240005 L 59.460007 54.240005 Z M 55.639999 53.75 L 54.080002 53.75 L 54.080002 63.360001 L 55.690002 63.360001 L 55.690002 55.360001 L 56.769997 55.360001 L 56.769997 53.729996 Z M 60.229996 51.339996 L 60.160004 51.410004 L 60.75 53.059998 L 61.240005 52.599991 Z M 58.869995 52.610001 L 58.399994 53.039993 L 58.399994 55.240005 L 59.460007 54.240005 Z M 55.639999 53.75 L 54.080002 53.75 L 54.080002 63.360001 L 55.690002 63.360001 L 55.690002 55.360001 L 56.769997 55.360001 L 56.769997 53.729996 Z M 60.229996 51.339996 L 60.160004 51.410004 L 60.75 53.059998 L 61.240005 52.599991 Z M 58.869995 52.610001 L 58.399994 53.039993 L 58.399994 55.240005 L 59.460007 54.240005 Z M 55.639999 53.75 L 54.080002 53.75 L 54.080002 63.360001 L 55.690002 63.360001 L 55.690002 55.360001 L 56.769997 55.360001 L 56.769997 53.729996 Z M 60.229996 51.339996 L 60.160004 51.410004 L 60.75 53.059998 L 61.240005 52.599991 Z M 58.869995 52.610001 L 58.399994 53.039993 L 58.399994 55.240005 L 59.460007 54.240005 Z M 55.639999 53.75 L 54.080002 53.75 L 54.080002 63.360001 L 55.690002 63.360001 L 55.690002 55.360001 L 56.769997 55.360001 L 56.769997 53.729996 Z M 60.229996 51.339996 L 60.160004 51.410004 L 60.75 53.059998 L 61.240005 52.599991 Z M 58.399994 53.039993 L 58.399994 55.240005 L 59.460007 54.240005 L 58.869995 52.589996 Z M 54.080002 53.779999 L 54.080002 63.389999 L 55.690002 63.389999 L 55.690002 55.389999 L 56.769997 55.389999 L 56.769997 53.729996 L 55.629997 53.729996 Z M 83.449997 53.779999 L 81.830002 53.779999 L 80.729996 53.779999 L 77.339996 50.630005 L 75.720001 49.130005 L 69.789993 43.619995 L 69.25 44.209991 L 69.789993 43.599991 L 69.190002 43.069992 L 61.410004 50.300003 L 60.229996 51.399994 L 60.160004 51.470001 L 58.869995 52.669998 L 58.399994 53.099991 L 57.669998 53.779999 L 56.779999 53.779999 L 55.639999 53.779999 L 54.080002 53.779999 L 54.080002 91.150009 L 84.320007 91.150009 L 84.320007 53.830002 Z M 82.699997 89.550003 L 55.699997 89.550003 L 55.699997 55.369995 L 56.779999 55.369995 L 58.309998 55.369995 L 58.399994 55.289993 L 59.460007 54.289993 L 60.75 53.089996 L 61.240005 52.630005 L 62.429993 51.529999 L 69.199997 45.240005 L 75.720001 51.300003 L 77.339996 52.800003 L 80.080002 55.349991 L 81.830002 55.349991 L 82.639999 55.349991 L 82.699997 55.349991 Z M 55.639999 53.770004 L 54.080002 53.770004 L 54.080002 63.380005 L 55.690002 63.380005 L 55.690002 55.380005 L 56.769997 55.380005 L 56.769997 53.729996 Z M 58.869995 52.630005 L 58.399994 53.059998 L 58.399994 55.259995 L 59.460007 54.259995 Z M 60.229996 51.360001 L 60.160004 51.429993 L 60.75 53.080002 L 61.240005 52.619995 Z M 55.639999 53.770004 L 54.080002 53.770004 L 54.080002 63.380005 L 55.690002 63.380005 L 55.690002 55.380005 L 56.769997 55.380005 L 56.769997 53.729996 Z M 58.869995 52.630005 L 58.399994 53.059998 L 58.399994 55.259995 L 59.460007 54.259995 Z M 60.229996 51.360001 L 60.160004 51.429993 L 60.75 53.080002 L 61.240005 52.619995 Z M 55.639999 53.770004 L 54.080002 53.770004 L 54.080002 63.380005 L 55.690002 63.380005 L 55.690002 55.380005 L 56.769997 55.380005 L 56.769997 53.729996 Z M 58.869995 52.630005 L 58.399994 53.059998 L 58.399994 55.259995 L 59.460007 54.259995 Z M 60.229996 51.360001 L 60.160004 51.429993 L 60.75 53.080002 L 61.240005 52.619995 Z M 55.639999 53.770004 L 54.080002 53.770004 L 54.080002 63.380005 L 55.690002 63.380005 L 55.690002 55.380005 L 56.769997 55.380005 L 56.769997 53.729996 Z M 58.869995 52.630005 L 58.399994 53.059998 L 58.399994 55.259995 L 59.460007 54.259995 Z M 60.229996 51.360001 L 60.160004 51.429993 L 60.75 53.080002 L 61.240005 52.619995 Z M 55.639999 53.770004 L 54.080002 53.770004 L 54.080002 63.380005 L 55.690002 63.380005 L 55.690002 55.380005 L 56.769997 55.380005 L 56.769997 53.729996 Z M 58.869995 52.630005 L 58.399994 53.059998 L 58.399994 55.259995 L 59.460007 54.259995 Z M 60.229996 51.360001 L 60.160004 51.429993 L 60.75 53.080002 L 61.240005 52.619995 Z M 55.639999 53.770004 L 54.080002 53.770004 L 54.080002 63.380005 L 55.690002 63.380005 L 55.690002 55.380005 L 56.769997 55.380005 L 56.769997 53.729996 Z M 58.869995 52.630005 L 58.399994 53.059998 L 58.399994 55.259995 L 59.460007 54.259995 Z M 60.229996 51.360001 L 60.160004 51.429993 L 60.75 53.080002 L 61.240005 52.619995 Z M 55.639999 53.770004 L 54.080002 53.770004 L 54.080002 63.380005 L 55.690002 63.380005 L 55.690002 55.380005 L 56.769997 55.380005 L 56.769997 53.729996 Z M 58.869995 52.630005 L 58.399994 53.059998 L 58.399994 55.259995 L 59.460007 54.259995 Z M 60.229996 51.360001 L 60.160004 51.429993 L 60.75 53.080002 L 61.240005 52.619995 Z M 55.639999 53.770004 L 54.080002 53.770004 L 54.080002 63.380005 L 55.690002 63.380005 L 55.690002 55.380005 L 56.769997 55.380005 L 56.769997 53.729996 Z M 58.869995 52.630005 L 58.399994 53.059998 L 58.399994 55.259995 L 59.460007 54.259995 Z M 60.229996 51.360001 L 60.160004 51.429993 L 60.75 53.080002 L 61.240005 52.619995 Z M 55.639999 58.599991 L 55.639999 62.970001 L 55.639999 63.059998 C 55.64357 63.103256 55.64357 63.146744 55.639999 63.190002 L 55.639999 58.599991 Z M 55.639999 58.599991 L 55.639999 62.970001 L 55.639999 63.059998 C 55.64357 63.103256 55.64357 63.146744 55.639999 63.190002 L 55.639999 58.599991 Z M 55.639999 56.990005 L 55.639999 53.770004 L 54.080002 53.770004 L 54.080002 63.380005 L 55.629997 63.380005 L 55.629997 62.940002 L 55.629997 63.029999 C 55.633568 63.073257 55.633568 63.116745 55.629997 63.160004 L 55.629997 56.959991 Z"/>
    <path id="path53" fill="rgb(60,60,60)" stroke="none" d="M 82.830002 63.389999 L 82.830002 91.150009 L 91.830002 91.150009 L 91.830002 63.389999 Z M 90.220001 89.529999 L 84.440002 89.529999 L 84.440002 65.009995 L 90.220001 65.009995 Z"/>
    <path id="path54" fill="rgb(60,60,60)" stroke="none" d="M 84.389999 64.040009 L 82.850006 63.559998 L 87.539993 48.649994 L 91.800003 63.529999 L 90.25 63.979996 L 87.470001 54.270004 L 84.389999 64.040009 Z"/>
    <path id="path55" fill="rgb(60,60,60)" stroke="none" d="M 69.149994 57.830002 C 68.651138 57.828857 68.154037 57.889313 67.669998 58.009995 C 67.135498 58.13121 66.620529 58.326416 66.139999 58.589996 C 63.312653 60.112198 62.063477 63.503159 63.227615 66.495773 C 64.391769 69.488373 67.604065 71.143784 70.716797 70.355225 C 73.829529 69.566666 75.866196 66.581512 75.465118 63.395599 C 75.064056 60.209686 72.351059 57.822464 69.139999 57.830002 Z M 69.149994 68.940002 C 66.526642 68.940002 64.399994 66.813354 64.399994 64.190002 C 64.399994 61.56665 66.526642 59.440002 69.149994 59.440002 C 71.773346 59.440002 73.899994 61.56665 73.899994 64.190002 C 73.894485 66.809448 71.769455 68.930008 69.149994 68.930008 Z"/>
    <path id="path56" fill="rgb(60,60,60)" stroke="none" d="M 72.610001 63.330002 C 72.592957 62.360992 71.845703 61.561905 70.880005 61.479996 C 70.539291 60.860428 69.88707 60.476761 69.179993 60.479996 C 68.48053 60.494797 67.839661 60.874023 67.490005 61.479996 C 66.4991 61.537277 65.719238 62.347626 65.699997 63.339996 C 65.702347 63.659973 65.788544 63.97374 65.949997 64.25 C 65.787582 64.522202 65.701248 64.833023 65.699997 65.150009 C 65.717041 66.119019 66.464294 66.918106 67.429993 67 C 67.76741 67.622757 68.421753 68.00766 69.130005 68 C 69.829468 67.985199 70.470352 67.605988 70.820007 67 C 71.810913 66.942719 72.590759 66.13237 72.610001 65.139999 C 72.608765 64.823029 72.522415 64.512207 72.360001 64.240005 C 72.521454 63.963745 72.607651 63.649979 72.610001 63.330002 Z M 70.850006 64.940002 C 70.928253 64.977798 70.981262 65.053528 70.990005 65.139999 C 70.990005 65.309998 70.75 65.440002 70.539993 65.360001 C 70.294968 65.265045 70.019089 65.294876 69.800003 65.440002 C 69.579971 65.593109 69.446228 65.842026 69.440002 66.110001 C 69.440002 66.369995 68.820007 66.369995 68.820007 66.110001 C 68.813034 65.852798 68.6828 65.614639 68.470001 65.470001 C 68.336761 65.371872 68.175461 65.319275 68.009995 65.320007 C 67.92395 65.30545 67.83606 65.30545 67.75 65.320007 C 67.479996 65.410004 67.320007 65.259995 67.320007 65.100006 C 67.320007 64.940002 67.429993 64.919998 67.460007 64.900009 C 67.719772 64.760681 67.881882 64.489777 67.881882 64.195007 C 67.881882 63.900223 67.719772 63.629333 67.460007 63.490005 C 67.460007 63.490005 67.320007 63.400009 67.320007 63.290009 C 67.320007 63.180008 67.570007 62.990005 67.770004 63.070007 C 68.014297 63.170334 68.292786 63.140228 68.509995 62.990005 C 68.73259 62.839188 68.867096 62.588852 68.869995 62.320007 C 68.869995 62.059998 69.490005 62.059998 69.490005 62.320007 C 69.499634 62.57637 69.628677 62.813446 69.83876 62.960709 C 70.048843 63.107956 70.31572 63.148392 70.559998 63.070007 C 70.839996 62.979996 70.990005 63.130005 70.990005 63.290009 C 70.981262 63.376465 70.928253 63.452194 70.850006 63.490005 C 70.595917 63.633743 70.438843 63.903076 70.438843 64.195007 C 70.438843 64.486923 70.595917 64.756256 70.850006 64.900009 Z"/>
    <path id="path57" fill="rgb(60,60,60)" stroke="none" d="M 49.059998 66.110001 L 50.68 66.110001 L 50.68 67.75 L 49.059998 67.75 Z"/>
    <path id="path58" fill="rgb(60,60,60)" stroke="none" d="M 51.510002 66.110001 L 53.129997 66.110001 L 53.129997 67.75 L 51.510002 67.75 Z"/>
    <path id="path59" fill="rgb(60,60,60)" stroke="none" d="M 60.110001 54.509995 L 61.720001 54.509995 L 61.720001 57.309998 L 60.110001 57.309998 Z"/>
    <path id="path60" fill="rgb(60,60,60)" stroke="none" d="M 64.190002 50.490005 L 65.809998 50.490005 L 65.809998 53.289993 L 64.190002 53.289993 Z"/>
    <path id="path61" fill="rgb(60,60,60)" stroke="none" d="M 68.389999 46.910004 L 70.009995 46.910004 L 70.009995 49.709991 L 68.389999 49.709991 Z"/>
    <path id="path62" fill="rgb(60,60,60)" stroke="none" d="M 76.570007 54.509995 L 78.190002 54.509995 L 78.190002 57.309998 L 76.570007 57.309998 Z"/>
    <path id="path63" fill="rgb(60,60,60)" stroke="none" d="M 72.490005 50.490005 L 74.100006 50.490005 L 74.100006 53.289993 L 72.490005 53.289993 Z"/>
    <path id="path64" fill="rgb(60,60,60)" stroke="none" d="M 85.289993 66.110001 L 86.910004 66.110001 L 86.910004 67.75 L 85.289993 67.75 Z"/>
    <path id="path65" fill="rgb(60,60,60)" stroke="none" d="M 87.729996 66.110001 L 89.350006 66.110001 L 89.350006 67.75 L 87.729996 67.75 Z"/>
    <path id="path66" fill="rgb(60,60,60)" stroke="none" d="M 61.770004 71.650009 C 61.513428 71.557449 61.242752 71.510086 60.970001 71.509995 C 60.693985 71.510132 60.420044 71.55748 60.160004 71.650009 C 59.165146 71.985641 58.496552 72.920059 58.5 73.970001 L 58.5 79.210007 L 63.440002 79.210007 L 63.440002 73.970001 C 63.438919 72.918411 62.766876 71.984787 61.770004 71.650009 Z M 61.770004 77.589996 L 60.070007 77.589996 L 60.070007 73.970001 C 60.070007 73.500565 60.450562 73.119995 60.919998 73.119995 C 61.389435 73.119995 61.770004 73.500565 61.770004 73.970001 Z"/>
    <path id="path67" fill="rgb(60,60,60)" stroke="none" d="M 64.880005 81.830002 C 64.34285 81.194244 63.552292 80.828247 62.720001 80.830002 C 61.03183 80.905701 59.722244 82.331497 59.789993 84.020004 L 59.789993 91.190002 L 65.660004 91.190002 L 65.660004 84.020004 C 65.670639 83.220154 65.39386 82.443039 64.880005 81.830002 Z M 61.410004 89.540009 L 61.410004 83.990005 C 61.305984 83.459061 61.531464 82.917633 61.981613 82.617477 C 62.431763 82.317337 63.01825 82.317337 63.468399 82.617477 C 63.918549 82.917633 64.144028 83.459061 64.039993 83.990005 L 64.039993 89.540009 Z"/>
    <path id="path68" fill="rgb(60,60,60)" stroke="none" d="M 69.179993 81.830002 C 68.656082 81.179138 67.865524 80.800644 67.029999 80.800644 C 66.194473 80.800644 65.403915 81.179138 64.880005 81.830002 C 64.372864 82.435181 64.096512 83.200439 64.100006 83.990005 L 64.100006 91.160004 L 70 91.160004 L 70 83.990005 C 69.992325 83.195374 69.701584 82.429535 69.179993 81.830002 Z M 65.710007 89.540009 L 65.710007 83.990005 C 65.618011 83.463593 65.84761 82.932846 66.294235 82.63942 C 66.74086 82.345993 67.319138 82.345993 67.765762 82.63942 C 68.212402 82.932846 68.441986 83.463593 68.350006 83.990005 L 68.350006 89.540009 Z"/>
    <path id="path69" fill="rgb(60,60,60)" stroke="none" d="M 74.259995 83.830002 C 74.225647 83.090546 73.939896 82.384964 73.449997 81.830002 C 72.925781 81.190125 72.142197 80.819107 71.315002 80.819107 C 70.487808 80.819107 69.704224 81.190125 69.179993 81.830002 C 68.672867 82.435181 68.396515 83.200439 68.399994 83.990005 L 68.399994 91.160004 L 74.270004 91.160004 L 74.270004 83.990005 C 74.270203 83.936508 74.266861 83.883057 74.259995 83.830002 Z M 70 89.529999 L 70 83.979996 C 69.936371 83.18367 70.524567 82.48407 71.320007 82.410004 C 72.062454 82.477737 72.628296 83.104507 72.619995 83.850006 C 72.624954 83.893188 72.624954 83.936813 72.619995 83.979996 L 72.619995 89.529999 Z"/>
    <path id="path70" fill="rgb(60,60,60)" stroke="none" d="M 75.559998 80.830002 C 74.744293 80.838837 73.973312 81.204239 73.449997 81.830002 C 72.944351 82.402893 72.657455 83.136078 72.639999 83.900009 C 72.63504 83.943192 72.63504 83.986816 72.639999 84.029999 L 72.639999 91.199997 L 78.509995 91.199997 L 78.509995 84.029999 C 78.577652 82.33223 77.25766 80.900375 75.559998 80.830002 Z M 74.240005 89.570007 L 74.240005 84.020004 C 74.23024 83.957047 74.23024 83.89296 74.240005 83.830002 C 74.24855 83.101944 74.813736 82.501953 75.539993 82.449997 C 76.335434 82.524063 76.92363 83.223663 76.860001 84.020004 L 76.860001 89.570007 Z"/>
    <path id="path71" fill="rgb(60,60,60)" stroke="none" d="M 69.100006 71.509995 C 67.739746 71.509995 66.635513 72.609772 66.630005 73.970001 L 66.630005 79.210007 L 71.570007 79.210007 L 71.570007 73.970001 C 71.564499 72.609772 70.460251 71.509995 69.100006 71.509995 Z M 69.949997 77.589996 L 68.25 77.589996 L 68.25 73.970001 C 68.25 73.500565 68.630554 73.119995 69.100006 73.119995 C 69.569443 73.119995 69.949997 73.500565 69.949997 73.970001 Z"/>
    <path id="path72" fill="rgb(60,60,60)" stroke="none" d="M 79.619995 73.199997 C 79.524841 72.900864 79.368164 72.624954 79.160004 72.389999 C 78.892883 72.074051 78.548309 71.83284 78.160004 71.690002 C 77.893509 71.578674 77.608704 71.517654 77.320007 71.509995 L 77.259995 71.509995 C 77.015869 71.510742 76.773209 71.547806 76.539993 71.619995 L 76.539993 71.619995 C 76.242859 71.709991 75.967224 71.859711 75.729996 72.059998 C 75.150055 72.519241 74.814301 73.220276 74.820007 73.960007 L 74.820007 79.199997 L 79.759995 79.199997 L 79.759995 73.960007 C 79.758759 73.700378 79.711349 73.443039 79.619995 73.199997 Z M 78.130005 77.589996 L 76.429993 77.589996 L 76.429993 73.970001 C 76.42926 73.636902 76.625397 73.334824 76.929993 73.199997 C 77.151291 73.093979 77.408707 73.093979 77.630005 73.199997 C 77.934601 73.334824 78.130753 73.636902 78.130005 73.970001 Z"/>
    <path id="path73" fill="rgb(60,60,60)" stroke="none" d="M 69.479996 56.160004 L 69.169998 56.220001 L 69.169998 56.220001 C 68.35643 56.368698 67.559326 56.596436 66.789993 56.899994 C 65.778671 57.281754 64.848923 57.851822 64.050003 58.580002 C 62.624115 59.85347 61.800171 61.668335 61.779999 63.580002 L 61.779999 71.919998 L 60.169998 71.919998 L 60.169998 63.619995 C 60.195084 61.8125 60.797806 60.060425 61.889999 58.619995 C 62.339722 58.007034 62.871338 57.458588 63.470001 56.990005 C 63.72995 56.778412 64.003922 56.584641 64.289993 56.410004 C 64.749573 56.113922 65.230957 55.85318 65.729996 55.630005 L 65.729996 55.630005 C 66.817307 55.156479 67.959473 54.820557 69.130005 54.630005 L 69.210007 54.630005 L 69.210007 54.630005 Z"/>
    <path id="path74" fill="rgb(60,60,60)" stroke="none" d="M 78.179993 71.690002 L 78.179993 71.919998 L 76.559998 71.919998 L 76.559998 63.619995 C 76.574722 63.416931 76.574722 63.213074 76.559998 63.009995 C 76.468582 62.094315 76.193069 61.206558 75.75 60.400009 C 74.860001 58.75 73.009995 56.949997 69.199997 56.220001 L 69.199997 56.220001 L 68.889999 56.160004 L 69.169998 54.580002 L 69.169998 54.580002 L 69.25 54.580002 C 71.701477 54.898438 73.98468 55.99971 75.759995 57.720001 C 76.056641 58.030838 76.32753 58.365265 76.570007 58.720001 C 76.881912 59.154083 77.153061 59.616043 77.380005 60.100006 C 77.925949 61.214462 78.209854 62.438995 78.210007 63.680008 Z"/>
    <path id="path75" fill="rgb(60,60,60)" stroke="none" d="M 50.300003 69.940002 L 51.919998 69.940002 L 51.919998 76.220001 L 50.300003 76.220001 Z"/>
    <path id="path76" fill="rgb(60,60,60)" stroke="none" d="M 86.520004 69.940002 L 88.139999 69.940002 L 88.139999 76.220001 L 86.520004 76.220001 Z"/>
    <path id="path77" fill="rgb(60,60,60)" stroke="none" d="M 48.32 86.910004 L 46.699997 86.910004 L 46.699997 79.070007 L 42.230003 79.070007 L 42.230003 75.600006 L 38.760002 75.600006 L 38.519997 75.240005 C 35.325951 70.401199 29.907883 67.498535 24.110001 67.520004 L 24.110001 65.910004 C 30.295547 65.883163 36.097198 68.905563 39.620003 73.990005 L 43.849998 73.990005 L 43.849998 77.449997 L 48.32 77.449997 Z"/>
    <path id="path78" fill="rgb(60,60,60)" stroke="none" d="M 1.629997 86.910004 L 0 86.910004 L 0 77.449997 L 4.470001 77.449997 L 4.470001 73.990005 L 8.699997 73.990005 C 12.228348 68.906662 18.032188 65.885071 24.220001 65.910004 L 24.220001 67.520004 C 18.422119 67.498535 13.004044 70.401199 9.809998 75.240005 L 9.57 75.600006 L 6.099998 75.600006 L 6.099998 79.070007 L 1.629997 79.070007 Z"/>
    <path id="path79" fill="rgb(60,60,60)" stroke="none" d="M 38.309998 84.119995 C 37.865227 76.65036 31.677879 70.820465 24.195 70.820465 C 16.71212 70.820465 10.524773 76.65036 10.080002 84.119995 C 10.080002 84.393326 10.080002 84.66333 10.080002 84.930008 L 10.080002 91.110001 L 38.370003 91.110001 L 38.370003 84.930008 C 38.349998 84.66333 38.329994 84.393326 38.309998 84.119995 Z M 36.720001 89.490005 L 11.660004 89.490005 L 11.660004 84.930008 C 11.649986 81.354309 13.180321 77.947495 15.860001 75.580002 C 16.286827 75.193924 16.741379 74.839645 17.220001 74.520004 C 17.736938 74.174393 18.278374 73.866913 18.839996 73.600006 C 22.161057 72.02887 26.005409 71.999603 29.349998 73.520004 C 29.908257 73.768143 30.446518 74.059006 30.959999 74.389999 C 31.435738 74.691742 31.890144 75.025864 32.32 75.389999 C 32.90947 75.892807 33.451721 76.448456 33.940002 77.050003 C 35.738846 79.278534 36.719978 82.056046 36.720001 84.919998 Z"/>
    <path id="path80" fill="rgb(60,60,60)" stroke="none" d="M 36.720001 84.119995 L 36.720001 91.119995 L 48.32 91.119995 L 48.32 84.119995 Z M 46.720001 89.490005 L 38.349998 89.490005 L 38.349998 85.740005 L 46.720001 85.740005 Z"/>
    <path id="path81" fill="rgb(60,60,60)" stroke="none" d="M 24.190002 73.979996 C 21.826218 73.979996 19.910004 75.896225 19.910004 78.259995 C 19.910004 80.623779 21.826218 82.540009 24.190002 82.540009 C 26.55378 82.540009 28.470001 80.623779 28.470001 78.259995 C 28.470001 75.896225 26.55378 73.979996 24.190002 73.979996 Z M 24.190002 80.919998 C 22.720924 80.919998 21.529999 79.72908 21.529999 78.259995 C 21.529999 76.790924 22.720924 75.600006 24.190002 75.600006 C 25.659081 75.600006 26.849998 76.790924 26.849998 78.259995 C 26.844513 79.726807 25.656799 80.91452 24.190002 80.919998 Z"/>
    <path id="path82" fill="rgb(60,60,60)" stroke="none" d="M 0 84.119995 L 0 91.119995 L 11.599998 91.119995 L 11.599998 84.119995 Z M 10 89.490005 L 1.629997 89.490005 L 1.629997 85.740005 L 10 85.740005 Z"/>
    <path id="path83" fill="rgb(60,60,60)" stroke="none" d="M 14.239998 75.220001 L 15.860001 75.220001 L 15.860001 90.300003 L 14.239998 90.300003 Z"/>
    <path id="path84" fill="rgb(60,60,60)" stroke="none" d="M 26.150002 79.070007 L 23.379997 79.070007 L 23.379997 76.080002 L 25 76.080002 L 25 77.460007 L 26.150002 77.460007 L 26.150002 79.070007 Z"/>
    <path id="path85" fill="rgb(60,60,60)" stroke="none" d="M 17.220001 73.110001 L 18.839996 73.110001 L 18.839996 90.309998 L 17.220001 90.309998 Z"/>
    <path id="path86" fill="rgb(60,60,60)" stroke="none" d="M 29.339996 73 L 30.959999 73 L 30.959999 90.300003 L 29.339996 90.300003 Z"/>
    <path id="path87" fill="rgb(60,60,60)" stroke="none" d="M 32.32 75.029999 L 33.940002 75.029999 L 33.940002 90.309998 L 32.32 90.309998 Z"/>
    <path id="path88" fill="rgb(60,60,60)" stroke="none" d="M 158.130005 70.930008 L 158 70.830002 L 157.289993 70.020004 L 152.839996 64.830002 L 148.339996 69.990005 L 147.630005 70.800003 L 147.509995 70.940002 L 146.970001 71.559998 L 147.509995 71.559998 L 156.779999 71.559998 L 158.779999 71.559998 Z M 150.509995 69.930008 L 152.839996 67.270004 L 155.169998 69.960007 Z"/>
    <path id="path89" fill="rgb(60,60,60)" stroke="none" d="M 158.940002 73.630005 L 158.270004 73.089996 L 147.270004 73.089996 L 146.729996 73.520004 L 144.220001 75.520004 L 144.220001 82.889999 L 161.350006 82.889999 L 161.350006 75.520004 Z M 145.809998 76.309998 L 147.809998 74.710007 L 157.699997 74.710007 L 159.699997 76.309998 L 159.699997 81.309998 L 145.809998 81.309998 Z"/>
    <path id="path90" fill="rgb(60,60,60)" stroke="none" d="M 161.320007 81.759995 L 160.759995 81.309998 L 144.759995 81.309998 L 144.199997 81.759995 L 141.710007 83.759995 L 141.710007 91.130005 L 163.820007 91.130005 L 163.820007 83.759995 Z M 162.190002 89.5 L 143.320007 89.5 L 143.320007 84.5 L 145.320007 82.900009 L 160.190002 82.900009 L 162.190002 84.5 Z"/>
    <path id="path91" fill="rgb(60,60,60)" stroke="none" d="M 146.699997 70 L 146.699997 74.699997 L 158.940002 74.699997 L 158.940002 70 Z M 157.330002 71.619995 L 157.330002 73.080002 L 148.330002 73.080002 L 148.330002 71.619995 Z"/>
    <path id="path92" fill="rgb(60,60,60)" stroke="none" d="M 134 70.940002 L 133.889999 70.809998 L 133.190002 70 L 128.720001 64.830002 L 124.220001 69.990005 L 124.139999 70.080002 L 123.509995 70.800003 L 123.380005 70.949997 L 123.380005 71.009995 L 122.899994 71.559998 L 124.190002 71.559998 L 132.699997 71.559998 L 134.699997 71.559998 Z M 126.380005 69.940002 L 128.710007 67.279999 L 131.039993 69.970001 Z"/>
    <path id="path93" fill="rgb(60,60,60)" stroke="none" d="M 134.820007 73.630005 L 134.149994 73.089996 L 123.149994 73.089996 L 122.610001 73.520004 L 122.550003 73.570007 L 120.100006 75.570007 L 120.100006 82.940002 L 137.199997 82.940002 L 137.199997 75.570007 Z M 135.580002 81.290009 L 121.690002 81.290009 L 121.690002 76.290009 L 122.520004 75.630005 L 123.330002 74.979996 L 123.690002 74.690002 L 133.580002 74.690002 L 135.580002 76.290009 Z"/>
    <path id="path94" fill="rgb(60,60,60)" stroke="none" d="M 137.199997 81.759995 L 136.639999 81.309998 L 120.639999 81.309998 L 120.080002 81.759995 L 119.199997 82.460007 L 118.639999 82.910004 L 118.399994 83.100006 L 117.589996 83.75 L 117.589996 91.119995 L 139.699997 91.119995 L 139.699997 83.75 Z M 119.199997 89.5 L 119.199997 84.5 L 121.199997 82.900009 L 136.070007 82.900009 L 138.070007 84.5 L 138.070007 89.5 Z"/>
    <path id="path95" fill="rgb(60,60,60)" stroke="none" d="M 122.580002 70 L 122.580002 74.699997 L 134.820007 74.699997 L 134.820007 70 Z M 133.199997 71.619995 L 133.199997 73.080002 L 124.199997 73.080002 L 124.199997 71.619995 Z"/>
    <path id="path96" fill="rgb(60,60,60)" stroke="none" d="M 136.389999 77.680008 L 145 77.680008 L 145 79.300003 L 136.389999 79.300003 Z"/>
    <path id="path97" fill="rgb(60,60,60)" stroke="none" d="M 136.389999 89.520004 L 145 89.520004 L 145 91.139999 L 136.389999 91.139999 Z"/>
    <path id="path98" fill="rgb(60,60,60)" stroke="none" d="M 124.320007 74.080002 L 125.929993 74.080002 L 125.929993 81.850006 L 124.320007 81.850006 Z"/>
    <path id="path99" fill="rgb(60,60,60)" stroke="none" d="M 131.089996 74.080002 L 132.710007 74.080002 L 132.710007 81.850006 L 131.089996 81.850006 Z"/>
    <path id="path100" fill="rgb(60,60,60)" stroke="none" d="M 148.559998 74.080002 L 150.179993 74.080002 L 150.179993 81.850006 L 148.559998 81.850006 Z"/>
    <path id="path101" fill="rgb(60,60,60)" stroke="none" d="M 155.330002 74.080002 L 156.949997 74.080002 L 156.949997 81.850006 L 155.330002 81.850006 Z"/>
    <path id="path102" fill="rgb(60,60,60)" stroke="none" d="M 101.520004 45.169998 L 94.929993 45.169998 L 94.929993 38.399994 L 97.559998 38.399994 L 97.559998 33.569992 L 101.520004 33.569992 L 101.520004 35.190002 L 99.179993 35.190002 L 99.179993 40.020004 L 96.550003 40.020004 L 96.550003 43.559998 L 101.520004 43.559998 L 101.520004 45.169998 Z"/>
    <path id="path103" fill="rgb(60,60,60)" stroke="none" d="M 115.270004 45.169998 L 108.679993 45.169998 L 108.679993 43.559998 L 113.660004 43.559998 L 113.660004 40.020004 L 111.029999 40.020004 L 111.029999 35.190002 L 108.679993 35.190002 L 108.679993 33.569992 L 112.639999 33.569992 L 112.639999 38.399994 L 115.270004 38.399994 L 115.270004 45.169998 Z"/>
    <path id="path104" fill="rgb(60,60,60)" stroke="none" d="M 100.710007 28.25 L 100.710007 45.25 L 109.529999 45.25 L 109.529999 28.25 Z M 102.330002 29.830002 L 107.910004 29.830002 L 107.910004 43.619995 L 102.330002 43.619995 Z"/>
    <path id="path105" fill="rgb(60,60,60)" stroke="none" d="M 100.669998 44.459991 L 100.669998 45.270004 L 100.669998 45.270004 L 100.669998 44.459991 Z M 94.589996 81.290009 L 94.589996 82.100006 L 95.399994 82.100006 L 95.399994 81.290009 Z M 94.589996 73.199997 L 94.589996 79.040009 L 95.399994 79.040009 L 95.399994 73.199997 Z M 100.669998 44.459991 L 100.669998 45.270004 L 100.669998 45.270004 L 100.669998 44.459991 Z M 94.589996 81.290009 L 94.589996 82.100006 L 95.399994 82.100006 L 95.399994 81.290009 Z M 94.589996 73.199997 L 94.589996 79.040009 L 95.399994 79.040009 L 95.399994 73.199997 Z M 100.669998 44.459991 L 100.669998 45.270004 L 100.669998 45.270004 L 100.669998 44.459991 Z M 94.589996 81.290009 L 94.589996 82.100006 L 95.399994 82.100006 L 95.399994 81.290009 Z M 94.589996 73.199997 L 94.589996 79.040009 L 95.399994 79.040009 L 95.399994 73.199997 Z M 100.669998 44.459991 L 100.669998 45.270004 L 100.669998 45.270004 L 100.669998 44.459991 Z M 94.589996 81.290009 L 94.589996 82.100006 L 95.399994 82.100006 L 95.399994 81.290009 Z M 94.589996 73.199997 L 94.589996 79.040009 L 95.399994 79.040009 L 95.399994 73.199997 Z M 100.669998 44.459991 L 100.669998 45.270004 L 100.669998 45.270004 L 100.669998 44.459991 Z M 94.589996 81.290009 L 94.589996 82.100006 L 95.399994 82.100006 L 95.399994 81.290009 Z M 94.589996 73.199997 L 94.589996 79.040009 L 95.399994 79.040009 L 95.399994 73.199997 Z M 100.669998 44.459991 L 100.669998 45.270004 L 100.669998 45.270004 L 100.669998 44.459991 Z M 94.589996 81.290009 L 94.589996 82.100006 L 95.399994 82.100006 L 95.399994 81.290009 Z M 94.589996 73.199997 L 94.589996 79.040009 L 95.399994 79.040009 L 95.399994 73.199997 Z M 99.860001 43.649994 L 99.860001 45.169998 L 95.369995 45.169998 L 95.369995 43.649994 L 93.779999 43.649994 L 93.779999 74 L 94.589996 74 L 94.589996 79 L 95.399994 79 L 95.399994 45.270004 L 100.710007 45.270004 L 100.710007 43.649994 Z M 115.089996 81.290009 L 115.089996 82.910004 L 116.699997 82.910004 L 116.699997 81.290009 Z M 93.779999 89.509995 L 93.779999 91.130005 L 116.699997 91.130005 L 116.699997 89.509995 Z M 93.779999 43.649994 L 93.779999 82.910004 L 95.399994 82.910004 L 95.399994 81.290009 L 94.149994 81.290009 L 94.149994 79.040009 L 95.399994 79.040009 L 95.399994 45.270004 L 115.089996 45.270004 L 115.089996 79.059998 L 116.699997 79.059998 L 116.699997 43.649994 Z M 99.860001 43.649994 L 99.860001 45.169998 L 95.369995 45.169998 L 95.369995 43.649994 L 93.779999 43.649994 L 93.779999 74 L 94.589996 74 L 94.589996 79 L 95.399994 79 L 95.399994 45.270004 L 100.710007 45.270004 L 100.710007 43.649994 Z M 94.589996 81.290009 L 94.589996 82.100006 L 95.399994 82.100006 L 95.399994 81.290009 Z M 94.589996 73.199997 L 94.589996 79.040009 L 95.399994 79.040009 L 95.399994 73.199997 Z M 100.669998 44.459991 L 100.669998 45.270004 L 100.669998 45.270004 L 100.669998 44.459991 Z M 94.589996 81.290009 L 94.589996 82.100006 L 95.399994 82.100006 L 95.399994 81.290009 Z M 94.589996 73.199997 L 94.589996 79.040009 L 95.399994 79.040009 L 95.399994 73.199997 Z M 100.669998 44.459991 L 100.669998 45.270004 L 100.669998 45.270004 L 100.669998 44.459991 Z M 94.589996 81.290009 L 94.589996 82.100006 L 95.399994 82.100006 L 95.399994 81.290009 Z M 94.589996 73.199997 L 94.589996 79.040009 L 95.399994 79.040009 L 95.399994 73.199997 Z M 100.669998 44.459991 L 100.669998 45.270004 L 100.669998 45.270004 L 100.669998 44.459991 Z M 94.589996 81.290009 L 94.589996 82.100006 L 95.399994 82.100006 L 95.399994 81.290009 Z M 94.589996 73.199997 L 94.589996 79.040009 L 95.399994 79.040009 L 95.399994 73.199997 Z M 100.669998 44.459991 L 100.669998 45.270004 L 100.669998 45.270004 L 100.669998 44.459991 Z M 94.589996 81.290009 L 94.589996 82.100006 L 95.399994 82.100006 L 95.399994 81.290009 Z M 94.589996 73.199997 L 94.589996 79.040009 L 95.399994 79.040009 L 95.399994 73.199997 Z M 100.669998 44.459991 L 100.669998 45.270004 L 100.669998 45.270004 L 100.669998 44.459991 Z M 94.589996 81.290009 L 94.589996 82.100006 L 95.399994 82.100006 L 95.399994 81.290009 Z M 94.589996 73.199997 L 94.589996 79.040009 L 95.399994 79.040009 L 95.399994 73.199997 Z M 100.669998 44.459991 L 100.669998 45.270004 L 100.669998 45.270004 L 100.669998 44.459991 Z M 94.589996 81.290009 L 94.589996 82.100006 L 95.399994 82.100006 L 95.399994 81.290009 Z M 94.589996 73.199997 L 94.589996 79.040009 L 95.399994 79.040009 L 95.399994 73.199997 Z M 100.669998 44.459991 L 100.669998 45.270004 L 100.669998 45.270004 L 100.669998 44.459991 Z"/>
    <path id="path106" fill="rgb(60,60,60)" stroke="none" d="M 92.529999 77.419998 L 92.529999 82.910004 L 99.669998 82.910004 L 99.669998 77.419998 Z M 94.149994 81.290009 L 94.149994 79.040009 L 98.059998 79.040009 L 98.059998 81.290009 Z"/>
    <path id="path107" fill="rgb(60,60,60)" stroke="none" d="M 90.220001 81.290009 L 90.220001 91.130005 L 99.679993 91.130005 L 99.679993 81.290009 Z M 91.839996 89.509995 L 91.839996 82.910004 L 98.059998 82.910004 L 98.059998 89.509995 Z"/>
    <path id="path108" fill="rgb(60,60,60)" stroke="none" d="M 110.520004 81.290009 L 110.520004 91.130005 L 119.190002 91.130005 L 119.190002 81.290009 Z M 112.139999 89.509995 L 112.139999 82.910004 L 117.580002 82.910004 L 117.580002 89.509995 Z"/>
    <path id="path109" fill="rgb(60,60,60)" stroke="none" d="M 110.520004 77.440002 L 110.520004 81.290009 L 112.130005 81.290009 L 112.130005 79.059998 L 115.130005 79.059998 L 115.130005 77.440002 Z M 110.520004 77.440002 L 110.520004 81.290009 L 112.130005 81.290009 L 112.130005 79.059998 L 115.130005 79.059998 L 115.130005 77.440002 Z M 110.520004 77.440002 L 110.520004 82.910004 L 119.190002 82.910004 L 119.190002 77.440002 Z M 112.130005 81.290009 L 112.130005 79.059998 L 117.580002 79.059998 L 117.580002 81.290009 Z M 110.520004 77.440002 L 110.520004 81.290009 L 112.130005 81.290009 L 112.130005 79.059998 L 115.130005 79.059998 L 115.130005 77.440002 Z M 110.520004 77.440002 L 110.520004 81.290009 L 112.130005 81.290009 L 112.130005 79.059998 L 115.130005 79.059998 L 115.130005 77.440002 Z"/>
    <path id="path110" fill="rgb(60,60,60)" stroke="none" d="M 100.580002 49.709991 L 102.190002 49.709991 L 102.190002 53.020004 L 100.580002 53.020004 Z"/>
    <path id="path111" fill="rgb(60,60,60)" stroke="none" d="M 104.369995 49.709991 L 105.990005 49.709991 L 105.990005 53.020004 L 104.369995 53.020004 Z"/>
    <path id="path112" fill="rgb(60,60,60)" stroke="none" d="M 100.580002 55.039993 L 102.190002 55.039993 L 102.190002 58.349991 L 100.580002 58.349991 Z"/>
    <path id="path113" fill="rgb(60,60,60)" stroke="none" d="M 104.369995 55.039993 L 105.990005 55.039993 L 105.990005 58.349991 L 104.369995 58.349991 Z"/>
    <path id="path114" fill="rgb(60,60,60)" stroke="none" d="M 100.580002 60.449997 L 102.190002 60.449997 L 102.190002 63.759995 L 100.580002 63.759995 Z"/>
    <path id="path115" fill="rgb(60,60,60)" stroke="none" d="M 104.369995 60.449997 L 105.990005 60.449997 L 105.990005 63.759995 L 104.369995 63.759995 Z"/>
    <path id="path116" fill="rgb(60,60,60)" stroke="none" d="M 108.039993 49.709991 L 109.660004 49.709991 L 109.660004 53.020004 L 108.039993 53.020004 Z"/>
    <path id="path117" fill="rgb(60,60,60)" stroke="none" d="M 108.039993 55.039993 L 109.660004 55.039993 L 109.660004 58.349991 L 108.039993 58.349991 Z"/>
    <path id="path118" fill="rgb(60,60,60)" stroke="none" d="M 108.039993 60.449997 L 109.660004 60.449997 L 109.660004 63.759995 L 108.039993 63.759995 Z"/>
    <path id="path119" fill="rgb(60,60,60)" stroke="none" d="M 100.580002 65.960007 L 102.190002 65.960007 L 102.190002 69.270004 L 100.580002 69.270004 Z"/>
    <path id="path120" fill="rgb(60,60,60)" stroke="none" d="M 104.369995 65.960007 L 105.990005 65.960007 L 105.990005 69.270004 L 104.369995 69.270004 Z"/>
    <path id="path121" fill="rgb(60,60,60)" stroke="none" d="M 100.580002 71.290009 L 102.190002 71.290009 L 102.190002 74.610001 L 100.580002 74.610001 Z"/>
    <path id="path122" fill="rgb(60,60,60)" stroke="none" d="M 104.369995 71.300003 L 105.990005 71.300003 L 105.990005 74.610001 L 104.369995 74.610001 Z"/>
    <path id="path123" fill="rgb(60,60,60)" stroke="none" d="M 108.039993 65.960007 L 109.660004 65.960007 L 109.660004 69.270004 L 108.039993 69.270004 Z"/>
    <path id="path124" fill="rgb(60,60,60)" stroke="none" d="M 108.039993 71.300003 L 109.660004 71.300003 L 109.660004 74.610001 L 108.039993 74.610001 Z"/>
    <path id="path125" fill="rgb(60,60,60)" stroke="none" d="M 102.710007 82.830002 L 102.710007 91.059998 L 107.529999 91.059998 L 107.529999 82.830002 Z M 104.320007 84.449997 L 105.910004 84.449997 L 105.910004 89.449997 L 104.320007 89.449997 Z"/>
    <path id="path126" fill="rgb(60,60,60)" stroke="none" d="M 104.320007 21.050003 L 104.320007 29.300003 L 105.929993 29.300003 L 105.929993 25.190002 L 110.050003 25.190002 L 110.050003 21.050003 Z M 108.429993 23.569992 L 105.929993 23.569992 L 105.929993 22.660004 L 108.429993 22.660004 Z"/>
    <path id="path127" fill="rgb(60,60,60)" stroke="none" d="M 7.879997 63.400009 L 48.169998 63.400009 L 48.169998 65.020004 L 7.879997 65.020004 Z"/>
</svg>
