<svg width="324" height="287" viewBox="0 0 324 287" xmlns="http://www.w3.org/2000/svg" xmlns:xlink="http://www.w3.org/1999/xlink">
    <path id="CK" fill="#d8371d" fill-rule="evenodd" stroke="none" d="M 194.323532 165.490692 L 194.323532 172.324219 L 198.012421 165.490692 L 200.757935 165.490692 L 197.262558 171.489685 L 201.253815 182 L 198.45993 182 L 195.678146 174.210999 L 194.323532 176.521088 L 194.323532 182 L 191.759445 182 L 191.759445 165.490692 Z M 189.03862 170.860748 L 186.486633 170.860748 C 186.486633 170.70755 186.486633 170.594666 186.486633 170.522095 C 186.486633 168.603058 185.841583 167.643555 184.551483 167.643555 C 183.849976 167.643555 183.346039 167.913666 183.039642 168.453903 C 182.854187 168.792557 182.741302 169.155396 182.700989 169.542435 C 182.668732 169.91333 182.652603 170.340683 182.652603 170.824463 L 182.652603 176.315475 C 182.652603 177.468506 182.745331 178.290955 182.930786 178.782806 C 183.204941 179.492371 183.757248 179.847137 184.587769 179.847137 C 185.902069 179.847137 186.559204 178.766693 186.559204 176.605743 C 186.559204 176.509003 186.559204 176.371918 186.559204 176.194534 L 189.111191 176.194534 C 189.119247 176.476746 189.123291 176.682343 189.123291 176.811371 C 189.123291 178.407867 188.800766 179.673767 188.155701 180.6091 C 187.397766 181.697632 186.208466 182.241898 184.587769 182.241898 C 182.8703 182.241898 181.636658 181.629105 180.88678 180.403503 C 180.491684 179.76651 180.257858 179.060974 180.185287 178.286926 C 180.120773 177.641861 180.088531 176.867798 180.088531 175.964722 L 180.088531 171.356644 C 180.088531 169.776245 180.189316 168.679688 180.3909 168.066864 C 180.745667 166.970276 181.390717 166.1922 182.32605 165.73259 C 182.9711 165.410065 183.712906 165.24881 184.551483 165.24881 C 185.954468 165.24881 187.047028 165.680176 187.829147 166.542938 C 188.643539 167.446014 189.05072 168.707886 189.05072 170.328583 C 189.05072 170.457611 189.046692 170.634979 189.03862 170.860748 Z"/>
    <path id="A" fill="#d8371d" fill-rule="evenodd" stroke="none" d="M 174.353592 178.407867 L 170.83403 178.407867 L 170.168823 182 L 167.665207 182 L 170.83403 165.490692 L 174.341492 165.490692 L 177.679642 182 L 175.055084 182 Z M 173.918182 176.049393 L 172.563568 168.659515 L 171.245255 176.049393 Z"/>
    <path id="B" fill="#d8371d" fill-rule="evenodd" stroke="none" d="M 156.257858 182 L 156.257858 165.490692 L 160.079788 165.490692 C 161.531158 165.490692 162.676117 165.821289 163.514694 166.482468 C 164.450012 167.224274 164.917679 168.292633 164.917679 169.687561 C 164.917679 170.776093 164.60321 171.654968 163.974289 172.324219 C 163.571121 172.7677 162.978485 173.106354 162.196365 173.340179 C 163.059128 173.590134 163.708206 173.90863 164.143616 174.295654 C 164.917679 174.98909 165.304703 175.996979 165.304703 177.319336 C 165.304703 178.786835 164.845108 179.951965 163.925903 180.814728 C 163.079269 181.604919 161.906097 182 160.406342 182 Z M 158.82193 172.203278 L 159.753235 172.203278 C 160.551483 172.203278 161.180405 171.985565 161.639999 171.550156 C 162.091537 171.122803 162.317307 170.566452 162.317307 169.881073 C 162.317307 169.252151 162.107666 168.748215 161.688385 168.369232 C 161.309418 168.022522 160.680496 167.849167 159.801605 167.849167 L 158.82193 167.849167 Z M 158.82193 179.641525 L 160.103973 179.641525 C 160.958679 179.641525 161.595657 179.427856 162.014938 179.000519 C 162.442291 178.565094 162.65596 178.004715 162.65596 177.319336 C 162.65596 176.545273 162.410034 175.900238 161.918182 175.384186 C 161.410202 174.835876 160.688553 174.561737 159.753235 174.561737 L 158.82193 174.561737 Z"/>
    <path id="E-" fill="#d8371d" fill-rule="evenodd" stroke="none" d="M 149.744492 165.490692 L 149.744492 167.849167 L 144.82193 167.849167 L 144.82193 172.191177 L 148.450348 172.191177 L 148.450348 174.549652 L 144.82193 174.549652 L 144.82193 179.641525 L 149.744492 179.641525 L 149.744492 182 L 142.257858 182 L 142.257858 165.490692 Z"/>
    <path id="V" fill="#d8371d" fill-rule="evenodd" stroke="none" d="M 137.123795 182 L 133.954971 182 L 130.411224 165.490692 L 133.047867 165.490692 L 135.539383 178.045013 L 137.716431 165.490692 L 140.304703 165.490692 Z"/>
    <path id="I" fill="#d8371d" fill-rule="evenodd" stroke="none" d="M 127.82193 165.490692 L 127.82193 182 L 125.257851 182 L 125.257851 165.490692 Z"/>
    <path id="G" fill="#d8371d" fill-rule="evenodd" stroke="none" d="M 117.45472 173.799774 L 122.111191 173.799774 L 122.111191 182 L 120.780769 182 L 120.333267 180.597015 C 119.986549 181.064667 119.643867 181.415421 119.305214 181.649261 C 118.716599 182.044342 118.023178 182.241898 117.224922 182.241898 C 116.46698 182.241898 115.787666 182.070557 115.186958 181.727875 C 114.58625 181.385193 114.12867 180.911469 113.814209 180.306732 C 113.467491 179.637497 113.257851 178.911819 113.18528 178.129684 C 113.120781 177.468506 113.088524 176.7267 113.088524 175.904266 L 113.088524 171.356644 C 113.088524 169.776245 113.189316 168.679688 113.390892 168.066864 C 113.73761 166.978348 114.38266 166.200256 115.32605 165.73259 C 115.979172 165.410065 116.72097 165.24881 117.551483 165.24881 C 119.389885 165.24881 120.688042 165.982544 121.445984 167.450043 C 121.849144 168.224121 122.046684 169.360992 122.03862 170.860748 L 119.474541 170.860748 C 119.474541 169.885101 119.377785 169.175568 119.184265 168.732086 C 118.86174 168.006409 118.313454 167.643555 117.539383 167.643555 C 116.821762 167.643555 116.313789 167.925766 116.01545 168.490189 C 115.838058 168.828842 115.733238 169.191681 115.700989 169.578705 C 115.668732 169.941559 115.652611 170.368896 115.652611 170.860748 L 115.652611 175.904266 C 115.652611 177.137924 115.745331 178.032928 115.930786 178.589294 C 116.204933 179.427856 116.781441 179.847137 117.660332 179.847137 C 118.402145 179.847137 118.918182 179.516556 119.208458 178.855377 C 119.434227 178.347382 119.547112 177.585419 119.547112 176.569458 L 119.547112 175.904266 L 117.45472 175.904266 Z"/>
    <path id="path1" fill="#d8371d" fill-rule="evenodd" stroke="none" d="M 62.456211 146.066956 L 62.456211 148 L 60.700508 148 L 60.700508 146.066956 Z"/>
    <path id="t" fill="#d8371d" fill-rule="evenodd" stroke="none" d="M 59.735077 138.982071 L 59.735077 140.498352 L 58.192188 140.498352 L 58.192188 145.304382 C 58.192188 145.765472 58.277905 146.093552 58.449337 146.288635 C 58.62077 146.483719 58.886784 146.581253 59.247383 146.581253 C 59.43655 146.581253 59.652317 146.545776 59.894688 146.474838 L 59.894688 148 C 59.480885 148.082764 59.099598 148.124146 58.75082 148.124146 C 57.893654 148.124146 57.281826 147.899506 56.915314 147.450241 C 56.708412 147.20195 56.587227 146.900467 56.551758 146.545776 C 56.516289 146.256119 56.498554 145.901428 56.498554 145.48172 L 56.498554 140.498352 L 55.19508 140.498352 L 55.19508 138.982071 L 56.498554 138.982071 L 56.498554 136.499252 L 58.192188 136.499252 L 58.192188 138.982071 Z"/>
    <path id="s" fill="#d8371d" fill-rule="evenodd" stroke="none" d="M 53.065155 140.977188 L 51.531132 141.651093 C 51.371521 141.237289 51.206005 140.938766 51.034569 140.755508 C 50.786289 140.483582 50.48185 140.34761 50.12125 140.34761 C 49.884792 140.34761 49.689713 140.406738 49.536015 140.524963 C 49.335026 140.678665 49.234531 140.885559 49.234531 141.14566 C 49.234531 141.417587 49.361626 141.659958 49.615822 141.872772 C 49.804989 142.026474 50.189228 142.262924 50.768555 142.582153 C 51.667099 143.0728 52.275974 143.480682 52.595196 143.805817 C 53.020821 144.243271 53.233631 144.813721 53.233631 145.517181 C 53.233631 146.285675 52.988308 146.918198 52.497658 147.414764 C 51.989269 147.923157 51.306503 148.177338 50.449337 148.177338 C 49.533054 148.177338 48.785263 147.861084 48.205936 147.228561 C 47.868984 146.862045 47.588192 146.335922 47.363556 145.650192 L 48.941914 145.091568 C 49.089703 145.546753 49.246353 145.880737 49.411877 146.093552 C 49.689716 146.454163 50.038486 146.63446 50.458202 146.63446 C 50.72422 146.63446 50.945896 146.557602 51.123241 146.4039 C 51.318321 146.232468 51.415859 146.007843 51.415859 145.729996 C 51.415859 145.452164 51.303543 145.206833 51.078907 144.994019 C 50.895649 144.816681 50.5853 144.606827 50.14785 144.364456 C 49.373447 143.938828 48.870979 143.640305 48.64043 143.468872 C 47.883759 142.889542 47.505428 142.17131 47.505428 141.314148 C 47.505428 140.592941 47.756664 139.992935 48.25914 139.514099 C 48.755707 139.041183 49.385269 138.804733 50.14785 138.804733 C 51.542961 138.804733 52.515388 139.52887 53.065155 140.977188 Z"/>
    <path id="e" fill="#d8371d" fill-rule="evenodd" stroke="none" d="M 46.322304 143.76149 L 42.420742 143.76149 L 42.420742 144.577271 C 42.420742 145.345764 42.49168 145.868912 42.633556 146.146759 C 42.804989 146.471893 43.115337 146.63446 43.56461 146.63446 C 44.291721 146.63446 44.655273 146.137894 44.655273 145.14476 C 44.655273 145.091568 44.655273 145.002884 44.655273 144.878754 L 46.348907 144.878754 C 46.348907 145.056091 46.348907 145.183197 46.348907 145.26004 C 46.348907 146.199966 46.139053 146.903427 45.719337 147.370422 C 45.234592 147.908371 44.516357 148.177338 43.56461 148.177338 C 42.518276 148.177338 41.761616 147.861084 41.294609 147.228561 C 41.046326 146.897507 40.889675 146.528046 40.82465 146.120163 C 40.759621 145.724091 40.727108 145.280731 40.727108 144.790085 L 40.727108 142.094452 C 40.727108 141.172256 40.818737 140.524963 41.001991 140.152542 C 41.439442 139.253998 42.275906 138.804733 43.511406 138.804733 C 44.433598 138.804733 45.142967 139.082565 45.63953 139.638245 C 45.941017 139.969284 46.13018 140.34761 46.207031 140.773239 C 46.283882 141.192963 46.322304 141.692474 46.322304 142.27179 Z M 44.628674 142.28067 L 44.628674 141.792969 C 44.628674 141.296402 44.554779 140.932846 44.406994 140.702301 C 44.235558 140.424469 43.939987 140.285553 43.520275 140.285553 C 43.106468 140.285553 42.810898 140.424469 42.633556 140.702301 C 42.49168 140.932846 42.420742 141.296402 42.420742 141.792969 L 42.420742 142.28067 Z"/>
    <path id="2000" fill="#d8371d" fill-rule="evenodd" stroke="none" d="M 276.200562 139.744644 L 276.200562 144.151642 C 276.200562 144.837372 276.151794 145.400436 276.05426 145.840836 C 275.956726 146.28125 275.795654 146.672882 275.571014 147.015747 C 275.050781 147.790146 274.246857 148.177338 273.159119 148.177338 C 272.071411 148.177338 271.270416 147.790146 270.756134 147.015747 C 270.330505 146.377304 270.117676 145.422607 270.117676 144.151642 L 270.117676 139.744644 C 270.117676 139.064835 270.166443 138.50325 270.264008 138.059875 C 270.361542 137.616516 270.525574 137.223419 270.756134 136.880554 C 271.270416 136.10614 272.071411 135.718948 273.159119 135.718948 C 274.246857 135.718948 275.050781 136.10614 275.571014 136.880554 C 275.842926 137.294357 276.017334 137.755447 276.094177 138.263824 C 276.1651 138.719009 276.200562 139.212616 276.200562 139.744644 Z M 271.873383 139.372223 L 271.873383 144.524063 C 271.873383 145.038361 271.894073 145.381226 271.935455 145.552658 C 272.100983 146.191101 272.508881 146.510315 273.159119 146.510315 C 273.661621 146.510315 274.016296 146.321152 274.223206 145.94281 C 274.341431 145.729996 274.409393 145.508316 274.427124 145.277771 C 274.438965 145.094513 274.444885 144.843277 274.444885 144.524063 L 274.444885 139.372223 C 274.444885 138.85202 274.424194 138.509155 274.382813 138.343628 C 274.217285 137.705185 273.809387 137.385971 273.159119 137.385971 C 272.656647 137.385971 272.301971 137.575134 272.095062 137.953476 C 271.976837 138.16629 271.908844 138.38797 271.891113 138.618515 C 271.879303 138.807678 271.873383 139.058914 271.873383 139.372223 Z M 268.388947 139.744644 L 268.388947 144.151642 C 268.388947 144.837372 268.340179 145.400436 268.242645 145.840836 C 268.145081 146.28125 267.984009 146.672882 267.759369 147.015747 C 267.239166 147.790146 266.435211 148.177338 265.347504 148.177338 C 264.259766 148.177338 263.458771 147.790146 262.944489 147.015747 C 262.51886 146.377304 262.306061 145.422607 262.306061 144.151642 L 262.306061 139.744644 C 262.306061 139.064835 262.354828 138.50325 262.452362 138.059875 C 262.549896 137.616516 262.713928 137.223419 262.944489 136.880554 C 263.458771 136.10614 264.259766 135.718948 265.347504 135.718948 C 266.435211 135.718948 267.239166 136.10614 267.759369 136.880554 C 268.031311 137.294357 268.205688 137.755447 268.282532 138.263824 C 268.353485 138.719009 268.388947 139.212616 268.388947 139.744644 Z M 264.061737 139.372223 L 264.061737 144.524063 C 264.061737 145.038361 264.082428 145.381226 264.12381 145.552658 C 264.289337 146.191101 264.697235 146.510315 265.347504 146.510315 C 265.849976 146.510315 266.204651 146.321152 266.41156 145.94281 C 266.529785 145.729996 266.597778 145.508316 266.615509 145.277771 C 266.627319 145.094513 266.63324 144.843277 266.63324 144.524063 L 266.63324 139.372223 C 266.63324 138.85202 266.612549 138.509155 266.571167 138.343628 C 266.40564 137.705185 265.997772 137.385971 265.347504 137.385971 C 264.845032 137.385971 264.490326 137.575134 264.283417 137.953476 C 264.165192 138.16629 264.097229 138.38797 264.079498 138.618515 C 264.067657 138.807678 264.061737 139.058914 264.061737 139.372223 Z M 260.577301 139.744644 L 260.577301 144.151642 C 260.577301 144.837372 260.528534 145.400436 260.431 145.840836 C 260.333466 146.28125 260.172363 146.672882 259.947723 147.015747 C 259.427521 147.790146 258.623566 148.177338 257.535858 148.177338 C 256.448151 148.177338 255.647141 147.790146 255.132843 147.015747 C 254.707214 146.377304 254.494415 145.422607 254.494415 144.151642 L 254.494415 139.744644 C 254.494415 139.064835 254.543182 138.50325 254.640717 138.059875 C 254.738266 137.616516 254.902298 137.223419 255.132843 136.880554 C 255.647141 136.10614 256.448151 135.718948 257.535858 135.718948 C 258.623566 135.718948 259.427521 136.10614 259.947723 136.880554 C 260.219666 137.294357 260.394043 137.755447 260.470886 138.263824 C 260.54184 138.719009 260.577301 139.212616 260.577301 139.744644 Z M 256.250122 139.372223 L 256.250122 144.524063 C 256.250122 145.038361 256.270813 145.381226 256.312195 145.552658 C 256.477692 146.191101 256.88559 146.510315 257.535858 146.510315 C 258.03833 146.510315 258.393005 146.321152 258.599915 145.94281 C 258.71814 145.729996 258.786133 145.508316 258.803864 145.277771 C 258.815674 145.094513 258.821594 144.843277 258.821594 144.524063 L 258.821594 139.372223 C 258.821594 138.85202 258.800903 138.509155 258.759521 138.343628 C 258.593994 137.705185 258.186127 137.385971 257.535858 137.385971 C 257.033386 137.385971 256.678711 137.575134 256.471802 137.953476 C 256.353577 138.16629 256.285583 138.38797 256.267853 138.618515 C 256.256012 138.807678 256.250122 139.058914 256.250122 139.372223 Z M 252.490784 146.368439 L 252.490784 148 L 246.594101 148 L 246.594101 146.368439 C 248.166565 144.311234 249.209915 142.892502 249.724213 142.112183 C 250.232605 141.337784 250.566605 140.699356 250.726212 140.196869 C 250.856262 139.783066 250.921295 139.351532 250.921295 138.902267 C 250.921295 137.885483 250.528183 137.377106 249.741959 137.377106 C 249.357712 137.377106 249.053268 137.513077 248.828629 137.785004 C 248.586258 138.080582 248.465073 138.50029 248.465073 139.044144 C 248.465073 139.138718 248.468033 139.262863 248.473938 139.416565 L 246.718246 139.416565 C 246.718246 138.949554 246.735977 138.568268 246.771439 138.27269 C 246.883759 137.36824 247.273911 136.691376 247.94191 136.242111 C 248.462128 135.893326 249.082825 135.718948 249.804016 135.718948 C 250.702576 135.718948 251.417847 135.999741 251.94989 136.561325 C 252.475998 137.122925 252.739059 137.909134 252.739059 138.919998 C 252.739059 139.682587 252.582413 140.412643 252.269104 141.110199 C 251.949875 141.81366 251.228683 142.913177 250.105515 144.408783 C 249.44342 145.283691 248.952774 145.936905 248.63356 146.368439 Z"/>
    <path id="Path" fill="#d8371d" stroke="none" d="M 121.129997 131.389999 L 121.129997 132.669998 L 122.75 132.669998 L 122.75 131.389999 Z M 126.620003 119.389999 C 126.499069 117.931519 125.257065 116.823257 123.794289 116.868546 C 122.331512 116.913849 121.160461 118.096832 121.129997 119.559998 L 121.129997 119.639999 L 121.239998 119.270004 C 121.33725 118.929901 121.646301 118.694046 122 118.690002 L 122 118.690002 C 122.348206 118.688766 122.658234 118.910217 122.769997 119.240005 L 122.769997 119.240005 C 122.932869 118.705704 123.458878 118.368118 124.012451 118.442581 C 124.566032 118.517059 124.984123 118.981659 125 119.539993 L 125 124.990005 L 123 124.990005 L 123.529999 126.599991 L 125 126.599991 L 125 131.199997 L 125.059998 131.389999 L 125.059998 121.830002 L 126.620003 121.830002 L 126.620003 119.429993 Z M 132.270004 122.550003 L 131.110001 122.550003 L 131.110001 124.119995 L 131.419998 124.990005 L 131.110001 124.990005 L 131.110001 125.349991 L 132.720001 125.349991 L 132.720001 123.830002 Z M 136.729996 123.630005 L 136.729996 123.630005 C 136.230957 123.85318 135.749573 124.113922 135.289993 124.410004 L 135.759995 124.990005 L 134.470001 124.990005 C 133.871338 125.458588 133.339722 126.007034 132.889999 126.619995 L 135 126.619995 C 135.79892 125.89183 136.728683 125.321747 137.740005 124.940002 Z M 138.669998 126.039993 C 138.135498 126.161209 137.620529 126.356415 137.139999 126.619995 L 139.139999 126.619995 Z M 132.240005 120.639999 L 133.429993 119.539993 L 132.429993 118.279999 L 129.429993 114.550003 L 129.429993 114.149994 L 128 114.149994 L 128 112.289993 L 126.400002 112.289993 L 126.400002 114.149994 L 121.300003 114.149994 L 121.300003 112.289993 L 119.68 112.289993 L 119.68 114.149994 L 118.360001 114.149994 L 118.360001 114.679993 L 109.129997 126.119995 L 99.800003 114.509995 L 99.800003 114.110001 L 98.410004 114.110001 L 98.410004 112.25 L 96.800003 112.25 L 96.800003 114.110001 L 91.699997 114.110001 L 91.699997 112.25 L 90.080002 112.25 L 90.080002 114.110001 L 88.760002 114.110001 L 88.760002 114.630005 L 79.120003 126.630005 L 88.760002 126.630005 L 88.760002 132.800003 L 90.379997 132.800003 L 90.379997 126.630005 L 91.510002 126.630005 L 91.510002 132.800003 L 93.120003 132.800003 L 93.120003 126.619995 L 95.419998 126.619995 L 95.419998 132.619995 L 97 132.619995 L 97 126.619995 L 98.150002 126.619995 L 98.150002 132.790009 L 99.800003 132.790009 L 99.800003 126.619995 L 118.360001 126.619995 L 118.360001 132.619995 L 120 132.619995 L 120 131.430008 L 119.360001 131.430008 L 120 129.259995 L 120 126.619995 L 120.779999 126.619995 L 122.080002 122.209991 L 122.769997 124.309998 L 122.769997 119.559998 C 122.754913 119.460571 122.754913 119.359436 122.769997 119.259995 C 122.932869 118.725708 123.458878 118.388107 124.012451 118.462585 C 124.566032 118.537064 124.984123 119.001663 125 119.559998 L 125 125.009995 L 123 125.009995 L 123.529999 126.619995 L 125 126.619995 L 125 131.220001 L 125.059998 131.410004 L 125.059998 131.410004 L 125 131.410004 L 125 132.600006 L 126.620003 132.600006 L 126.620003 126.599991 L 126.68 126.599991 L 126.68 124.990005 L 126.620003 124.990005 L 126.620003 119.369995 L 126.620003 119.369995 C 126.499069 117.91153 125.257065 116.803253 123.794289 116.848557 C 122.331512 116.893845 121.160461 118.076843 121.129997 119.539993 L 121.129997 124.990005 L 120 124.990005 L 120 115.740005 L 127.800003 115.740005 L 127.800003 123.369995 L 129.330002 123.369995 L 129.419998 123.289993 L 129.419998 119.349991 L 129.889999 120.660004 L 130.479996 122.309998 L 131.770004 121.110001 L 131.179993 119.459991 L 131.080002 119.190002 L 131.25 119.389999 Z M 82.5 124.970001 L 87.199997 119.139999 L 85.120003 124.970001 Z M 86.839996 124.970001 L 88.760002 119.569992 L 88.760002 124.970001 Z M 90.379997 124.970001 L 90.379997 115.720001 L 91.519997 115.720001 L 91.519997 124.970001 Z M 93.139999 115.720001 L 95.419998 115.720001 L 95.419998 117.509995 C 95.067101 117.353943 94.685852 117.272247 94.300003 117.270004 C 93.894753 117.271713 93.495018 117.363968 93.129997 117.539993 Z M 93.139999 124.970001 L 93.139999 119.970001 L 93.139999 119.970001 C 93.194778 119.389633 93.682053 118.946182 94.264999 118.946182 C 94.847946 118.946182 95.33522 119.389633 95.389999 119.970001 L 95.389999 124.970001 Z M 97.050003 124.970001 L 97.050003 119.970001 L 97.050003 119.970001 C 97.050003 119.970001 97.050003 119.970001 97.050003 119.899994 L 97.050003 115.679993 L 98.199997 115.679993 L 98.199997 124.929993 Z M 99.82 124.970001 L 99.82 119.319992 L 101.82 124.970001 Z M 103.550003 124.970001 L 101.470001 119.160004 L 106.169998 124.970001 Z M 112.129997 124.970001 L 116.830002 119.139999 L 114.739998 124.970001 Z M 116.459999 124.970001 L 118.379997 119.580002 L 118.379997 124.970001 Z"/>
    <path id="path2" fill="#d8371d" stroke="none" d="M 151.449997 83.199997 L 149.830002 83.199997 L 149.830002 82.199997 C 149.830002 77.660004 151.360001 73.389999 153.910004 70.759995 C 155.369293 69.151993 157.419556 68.206268 159.589996 68.139999 L 159.589996 69.759995 L 159.589996 69.759995 C 157.865158 69.809311 156.234116 70.556274 155.070007 71.830002 C 152.800003 74.160004 151.449997 78.009995 151.449997 82.139999 Z"/>
    <path id="path3" fill="#d8371d" stroke="none" d="M 153.704239 71.469086 L 155.277054 71.081009 L 158.292999 83.304443 L 156.720169 83.69252 Z"/>
    <path id="path4" fill="#d8371d" stroke="none" d="M 152.710007 85.270004 L 152.710007 85.259995 L 154.330002 85.259995 L 152.710007 85.270004 Z"/>
    <path id="path5" fill="#d8371d" stroke="none" d="M 152.800003 83.199997 L 152.800003 83.119995 C 152.80191 82.56189 152.835297 82.004349 152.899994 81.449997 C 153.100098 79.243622 153.914169 77.13739 155.25 75.369995 C 156.33223 73.892563 158.029953 72.990311 159.860001 72.919998 L 159.860001 74.539993 C 158.507462 74.600449 157.257645 75.278809 156.470001 76.380005 C 155.329269 77.910614 154.63678 79.728363 154.470001 81.630005 C 154.409103 82.124313 154.379044 82.621948 154.380005 83.119995 Z"/>
    <path id="path6" fill="#d8371d" stroke="none" d="M 152.710007 85.270004 L 152.710007 85.259995 L 154.330002 85.259995 L 152.710007 85.270004 Z"/>
    <path id="path7" fill="#d8371d" stroke="none" d="M 148 82.389999 L 148 97.830002 L 154.399994 97.830002 L 154.399994 82.389999 Z M 149.610001 96.220001 L 149.610001 84 L 152.789993 84 L 152.789993 96.220001 Z"/>
    <path id="path8" fill="#d8371d" stroke="none" d="M 146.720001 96.220001 L 146.720001 119.220001 L 148.339996 120.720001 L 148.339996 97.830002 L 152.830002 97.830002 L 152.830002 123.339996 L 153.639999 123.339996 L 153.699997 123.339996 L 153.699997 141.979996 L 154.449997 141.979996 L 154.449997 96.220001 Z M 150.619995 141.220001 C 150.524841 140.920868 150.368164 140.644958 150.160004 140.410004 L 148.339996 140.410004 L 148.339996 128.080002 C 148.113068 127.596039 147.841919 127.134079 147.529999 126.699997 C 147.287537 126.345276 147.016647 126.010834 146.720001 125.699997 L 146.720001 128.380005 C 147.163071 129.186554 147.438583 130.074326 147.529999 130.990005 C 147.544708 131.193069 147.544708 131.396942 147.529999 131.600006 L 147.529999 139.600006 L 147.529999 139.600006 C 147.232864 139.689987 146.95723 139.839722 146.720001 140.040009 L 146.720001 141.979996 L 147.429993 141.979996 L 147.429993 141.979996 C 147.42926 141.646896 147.625397 141.344833 147.929993 141.210007 C 148.151291 141.103973 148.408707 141.103973 148.630005 141.210007 C 148.934601 141.344833 149.130753 141.646896 149.130005 141.979996 L 149.130005 141.979996 L 150.75 141.979996 L 150.75 141.979996 C 150.754349 141.714264 150.710297 141.449966 150.619995 141.199997 Z M 147.570007 122.529999 L 147.570007 125.330002 L 148.339996 125.330002 L 148.339996 122.529999 Z"/>
    <path id="path9" fill="#d8371d" stroke="none" d="M 154.429993 90.099991 L 152.839996 89.830002 C 153.153595 88.049194 153.894821 86.37114 155 84.940002 C 155.92804 83.703262 157.282211 82.855133 158.800003 82.559998 L 158.800003 68.910004 L 160.419998 68.910004 L 160.419998 84.110001 L 159.610001 84.110001 C 158.270004 84.184799 157.036987 84.865707 156.259995 85.959991 C 155.32431 87.171783 154.696381 88.592361 154.429993 90.099991 Z"/>
    <path id="path10" fill="#d8371d" stroke="none" d="M 169.360001 83.199997 L 167.75 83.199997 L 167.75 82.199997 C 167.75 78.069992 166.389999 74.199997 164.130005 71.889999 C 162.970123 70.591019 161.330353 69.821701 159.589996 69.759995 L 159.589996 68.139999 C 161.78299 68.192627 163.85817 69.143448 165.330002 70.770004 C 167.880005 73.389999 169.399994 77.660004 169.399994 82.199997 Z"/>
    <path id="path11" fill="#d8371d" stroke="none" d="M 160.894028 83.304672 L 163.905701 71.080185 L 165.478668 71.467712 L 162.466995 83.6922 Z"/>
    <path id="path12" fill="#d8371d" stroke="none" d="M 166.479996 85.270004 L 164.869995 85.270004 L 166.479996 85.259995 L 166.479996 85.270004 Z"/>
    <path id="path13" fill="#d8371d" stroke="none" d="M 164.779999 83.199997 C 164.784088 82.678589 164.754028 82.157471 164.690002 81.639999 C 164.525024 79.734894 163.832458 77.913437 162.690002 76.380005 C 161.911926 75.288376 160.67865 74.610992 159.339996 74.539993 L 159.289993 72.919998 L 159.289993 72.919998 C 161.130707 72.981247 162.841324 73.884476 163.929993 75.369995 C 165.271133 77.139114 166.088806 79.24913 166.289993 81.459991 C 166.351807 82.011154 166.381866 82.565399 166.380005 83.119995 Z"/>
    <path id="path14" fill="#d8371d" stroke="none" d="M 166.479996 85.270004 L 164.869995 85.270004 L 166.479996 85.259995 L 166.479996 85.270004 Z"/>
    <path id="path15" fill="#d8371d" stroke="none" d="M 164.759995 82.389999 L 164.759995 97.830002 L 171.160004 97.830002 L 171.160004 82.389999 Z M 166.369995 96.220001 L 166.369995 84 L 169.550003 84 L 169.550003 96.220001 Z"/>
    <path id="path16" fill="#d8371d" stroke="none" d="M 166.369995 141.199997 L 164.75 141.199997 L 164.75 93.899994 L 153.630005 93.899994 L 153.630005 92.279999 L 166.369995 92.279999 L 166.369995 141.199997 Z"/>
    <path id="path17" fill="#d8371d" stroke="none" d="M 164.759995 97.830002 L 164.759995 141.180008 L 164.759995 141.180008 L 164.759995 111.649994 L 166.350006 111.649994 L 166.350006 97.830002 Z M 164.759995 96.209991 L 164.759995 141.990005 L 166.399994 141.990005 L 166.399994 140.380005 L 166.399994 140.380005 L 166.399994 97.830002 L 170.889999 97.830002 L 170.889999 113.259995 L 172.509995 113.259995 L 172.509995 96.259995 Z M 171.580002 139.279999 L 171.580002 141.990005 L 172.479996 141.990005 L 172.479996 139.279999 Z M 171.580002 133.949997 L 171.580002 137.259995 L 172.479996 137.259995 L 172.479996 133.949997 Z M 171.580002 128.440002 L 171.580002 131.75 L 172.479996 131.75 L 172.479996 128.440002 Z M 171.580002 123.029999 L 171.580002 126.339996 L 172.479996 126.339996 L 172.479996 123.029999 Z M 171.580002 117.699997 L 171.580002 121.009995 L 172.479996 121.009995 L 172.479996 117.699997 Z"/>
    <path id="path18" fill="#d8371d" stroke="none" d="M 164.770004 90.099991 C 164.507889 88.591064 163.879517 87.169495 162.940002 85.959991 C 162.168182 84.86499 160.937668 84.183426 159.600006 84.110001 L 158.789993 84.110001 L 158.789993 68.910004 L 160.399994 68.910004 L 160.399994 82.559998 C 161.917786 82.855133 163.271957 83.703262 164.199997 84.940002 C 165.30545 86.369843 166.04364 88.048813 166.350006 89.830002 Z"/>
    <path id="path19" fill="none" stroke="#d8371d" stroke-width="1.62" stroke-linecap="round" stroke-linejoin="round" d="M 223.169998 121.190002 C 223.612289 119.965134 224.868469 119.232986 226.152222 119.451874 C 227.435974 119.670746 228.378571 120.777771 228.389999 122.080002 C 228.391846 122.74379 228.141663 123.383545 227.690002 123.869995"/>
    <path id="path20" fill="none" stroke="#d8371d" stroke-width="1.62" stroke-linecap="round" stroke-linejoin="round" d="M 220.339996 123.830002 C 220.337326 123.118408 220.618835 122.435181 221.122009 121.932007 C 221.625183 121.428833 222.308411 121.147324 223.020004 121.149994 L 223.169998 121.149994 L 223.289993 120.880005"/>
    <path id="path21" fill="none" stroke="#d8371d" stroke-width="1.62" stroke-linecap="round" stroke-linejoin="round" d="M 230.179993 123.869995 L 227.690002 123.869995 L 227.880005 123.639999"/>
    <path id="path22" fill="none" stroke="#d8371d" stroke-width="1.62" stroke-linecap="round" stroke-linejoin="round" d="M 221.149994 123.869995 L 218.539993 123.869995"/>
    <path id="path23" fill="none" stroke="#d8371d" stroke-width="1.62" stroke-linecap="round" stroke-linejoin="round" d="M 133.690002 90.330002 C 133.240234 89.843094 132.993423 89.202805 133 88.539993 C 133.001953 87.233643 133.945526 86.119019 135.233658 85.901443 C 136.521774 85.683868 137.779083 86.426743 138.210007 87.660004"/>
    <path id="path24" fill="none" stroke="#d8371d" stroke-width="1.62" stroke-linecap="round" stroke-linejoin="round" d="M 138.100006 87.380005 L 138.210007 87.660004 L 138.360001 87.660004 C 139.07251 87.657333 139.756744 87.938522 140.26152 88.441406 C 140.766281 88.94429 141.050003 89.627487 141.050003 90.339996"/>
    <path id="path25" fill="none" stroke="#d8371d" stroke-width="1.62" stroke-linecap="round" stroke-linejoin="round" d="M 133.5 90.099991 L 133.690002 90.330002 L 131.199997 90.330002"/>
    <path id="path26" fill="none" stroke="#d8371d" stroke-width="1.62" stroke-linecap="round" stroke-linejoin="round" d="M 142.839996 90.330002 L 140.240005 90.330002"/>
    <path id="path27" fill="none" stroke="#d8371d" stroke-width="1.62" stroke-linecap="round" stroke-linejoin="round" d="M 188.149994 76.959991 C 188.149994 75.954834 188.964844 75.139999 189.970001 75.139999 C 190.975159 75.139999 191.789993 75.954834 191.789993 76.959991"/>
    <path id="path28" fill="none" stroke="#d8371d" stroke-width="1.62" stroke-linecap="round" stroke-linejoin="round" d="M 191.809998 76.959991 C 191.809998 75.954834 192.624847 75.139999 193.630005 75.139999 C 194.635162 75.139999 195.449997 75.954834 195.449997 76.959991"/>
    <path id="path29" fill="#d8371d" stroke="none" d="M 194.789993 113.830002 L 194.789993 131.040009 L 210.270004 131.040009 L 210.270004 113.830002 Z M 208.660004 129.419998 L 196.410004 129.419998 L 196.410004 115.419998 L 208.660004 115.419998 Z"/>
    <path id="path30" fill="#d8371d" stroke="none" d="M 195.320007 144.990005 L 195.320007 146.610001 L 196.929993 146.610001 L 196.929993 144.990005 Z M 193.520004 129.400009 L 193.520004 143.650009 L 194.330002 143 L 194.690002 142.710007 L 195.139999 142.710007 L 195.139999 131.020004 L 209.779999 131.020004 L 209.779999 145.020004 L 206.580002 145.020004 L 206.580002 146.639999 L 211.399994 146.639999 L 211.399994 129.400009 Z M 202.089996 144.990005 L 202.089996 146.610001 L 203.710007 146.610001 L 203.710007 144.990005 Z"/>
    <path id="path31" fill="#d8371d" stroke="none" d="M 200.089996 113.660004 L 200.089996 113.830002 L 201.600006 113.830002 L 201.600006 113.679993 Z M 200.089996 113.660004 L 200.089996 113.830002 L 201.600006 113.830002 L 201.600006 113.679993 Z M 195.779999 106.599991 L 195.779999 115.279999 L 209.050003 115.279999 L 209.050003 106.599991 Z M 207.429993 108.209991 L 207.429993 113.660004 L 197.429993 113.660004 L 197.429993 108.209991 Z M 200.089996 113.660004 L 200.089996 113.830002 L 201.600006 113.830002 L 201.600006 113.679993 Z"/>
    <path id="path32" fill="#d8371d" stroke="none" d="M 193.199997 113.809998 L 211.610001 113.809998 L 211.610001 115.429993 L 193.199997 115.429993 Z"/>
    <path id="path33" fill="#d8371d" stroke="none" d="M 201.630005 90.75 L 203.25 90.75 L 203.25 93.369995 L 201.630005 93.369995 Z"/>
    <path id="path34" fill="none" stroke="#d8371d" stroke-width="1.62" stroke-linecap="round" stroke-linejoin="round" d="M 198.460007 117.149994 L 198.460007 119.589996"/>
    <path id="path35" fill="none" stroke="#d8371d" stroke-width="1.62" stroke-linecap="round" stroke-linejoin="round" d="M 201.169998 117.149994 L 201.169998 119.589996"/>
    <path id="path36" fill="none" stroke="#d8371d" stroke-width="1.62" stroke-linecap="round" stroke-linejoin="round" d="M 198.460007 121.089996 L 198.460007 123.539993"/>
    <path id="path37" fill="none" stroke="#d8371d" stroke-width="1.62" stroke-linecap="round" stroke-linejoin="round" d="M 201.169998 121.089996 L 201.169998 123.539993"/>
    <path id="path38" fill="none" stroke="#d8371d" stroke-width="1.62" stroke-linecap="round" stroke-linejoin="round" d="M 198.460007 125.089996 L 198.460007 127.529999"/>
    <path id="path39" fill="none" stroke="#d8371d" stroke-width="1.62" stroke-linecap="round" stroke-linejoin="round" d="M 201.169998 125.089996 L 201.169998 127.529999"/>
    <path id="path40" fill="none" stroke="#d8371d" stroke-width="1.62" stroke-linecap="round" stroke-linejoin="round" d="M 203.779999 117.149994 L 203.779999 119.589996"/>
    <path id="path41" fill="none" stroke="#d8371d" stroke-width="1.62" stroke-linecap="round" stroke-linejoin="round" d="M 206.490005 117.149994 L 206.490005 119.589996"/>
    <path id="path42" fill="none" stroke="#d8371d" stroke-width="1.62" stroke-linecap="round" stroke-linejoin="round" d="M 203.779999 121.089996 L 203.779999 123.539993"/>
    <path id="path43" fill="none" stroke="#d8371d" stroke-width="1.62" stroke-linecap="round" stroke-linejoin="round" d="M 206.490005 121.089996 L 206.490005 123.539993"/>
    <path id="path44" fill="none" stroke="#d8371d" stroke-width="1.62" stroke-linecap="round" stroke-linejoin="round" d="M 203.779999 125.089996 L 203.779999 127.529999"/>
    <path id="path45" fill="none" stroke="#d8371d" stroke-width="1.62" stroke-linecap="round" stroke-linejoin="round" d="M 206.490005 125.089996 L 206.490005 127.529999"/>
    <path id="path46" fill="#d8371d" stroke="none" d="M 197.330002 107.729996 L 195.850006 107.080002 L 200.190002 97.059998 L 204.880005 97.059998 L 208.990005 107.099991 L 207.490005 107.709991 L 203.789993 98.679993 L 201.25 98.679993 L 197.330002 107.729996 Z"/>
    <path id="path47" fill="#d8371d" stroke="none" d="M 200.289993 92.559998 L 200.289993 98.139999 L 204.639999 98.139999 L 204.639999 92.559998 Z M 203 94.179993 L 203 96.520004 L 201.880005 96.520004 L 201.880005 94.179993 Z"/>
    <path id="path48" fill="#d8371d" stroke="none" d="M 198.470001 107.410004 L 200.089996 107.410004 L 200.089996 114.479996 L 198.470001 114.479996 Z"/>
    <path id="path49" fill="#d8371d" stroke="none" d="M 204.660004 107.410004 L 206.279999 107.410004 L 206.279999 114.479996 L 204.660004 114.479996 Z"/>
    <path id="path50" fill="#d8371d" stroke="none" d="M 201.600006 107.410004 L 203.220001 107.410004 L 203.220001 114.479996 L 201.600006 114.479996 Z"/>
    <path id="path51" fill="#d8371d" stroke="none" d="M 117.690002 131.389999 L 117.690002 159.150009 L 126.690002 159.150009 L 126.690002 131.389999 Z M 125.080002 157.529999 L 119.309998 157.529999 L 119.309998 133.009995 L 125.080002 133.009995 Z"/>
    <path id="path52" fill="#d8371d" stroke="none" d="M 126.699997 131.169998 L 126.699997 131.430008 C 126.690742 131.499435 126.670486 131.56694 126.639999 131.630005 C 126.548393 131.835052 126.373848 131.991409 126.160004 132.059998 C 125.743324 132.19165 125.298103 131.964584 125.160004 131.550003 L 125.160004 131.389999 L 125.160004 131.389999 L 125.099998 131.199997 L 123.589996 126.599991 L 123.059998 124.990005 L 122.830002 124.289993 L 122.139999 122.190002 L 120.839996 126.599991 L 120.059998 129.240005 L 119.419998 131.410004 L 119.360001 131.610001 C 119.333458 131.687973 119.296455 131.761978 119.25 131.830002 C 119.09919 132.052582 118.848846 132.187103 118.580002 132.190002 C 118.533783 132.199158 118.486214 132.199158 118.440002 132.190002 L 118.349998 132.190002 C 118.020409 132.089676 117.788681 131.794022 117.769997 131.449997 L 117.769997 131.449997 C 117.755623 131.367294 117.755623 131.282715 117.769997 131.199997 L 118.400002 129.059998 L 120.019997 123.569992 L 121.169998 119.660004 L 121.279999 119.289993 C 121.377251 118.949905 121.686302 118.71405 122.040001 118.709991 L 122.040001 118.709991 C 122.388206 118.708771 122.698235 118.930222 122.809998 119.259995 L 122.809998 119.259995 L 124.699997 125.009995 L 125.099998 126.229996 L 126.660004 130.990005 L 126.660004 131.080002 C 126.675194 131.109146 126.688553 131.139206 126.699997 131.169998 Z"/>
    <path id="path53" fill="#d8371d" stroke="none" d="M 126.639999 124.970001 L 126.639999 121.75 L 125.080002 121.75 L 125.080002 131.360001 L 126.629997 131.360001 L 126.629997 130.919998 L 126.629997 131.009995 C 126.633568 131.053268 126.633568 131.096741 126.629997 131.139999 L 126.629997 124.940002 Z M 126.639999 126.580002 L 126.639999 130.949997 L 126.639999 131.040009 C 126.64357 131.083267 126.64357 131.12674 126.639999 131.169998 L 126.639999 126.580002 Z M 126.639999 126.580002 L 126.639999 130.949997 L 126.639999 131.040009 C 126.64357 131.083267 126.64357 131.12674 126.639999 131.169998 L 126.639999 126.580002 Z M 131.229996 119.339996 L 131.160004 119.410004 L 131.75 121.059998 L 132.240005 120.599991 Z M 129.869995 120.610001 L 129.399994 121.039993 L 129.399994 123.240005 L 130.460007 122.240005 Z M 126.639999 121.75 L 125.080002 121.75 L 125.080002 131.360001 L 126.690002 131.360001 L 126.690002 123.360001 L 127.769997 123.360001 L 127.769997 121.729996 Z M 131.229996 119.339996 L 131.160004 119.410004 L 131.75 121.059998 L 132.240005 120.599991 Z M 129.869995 120.610001 L 129.399994 121.039993 L 129.399994 123.240005 L 130.460007 122.240005 Z M 126.639999 121.75 L 125.080002 121.75 L 125.080002 131.360001 L 126.690002 131.360001 L 126.690002 123.360001 L 127.769997 123.360001 L 127.769997 121.729996 Z M 131.229996 119.339996 L 131.160004 119.410004 L 131.75 121.059998 L 132.240005 120.599991 Z M 129.869995 120.610001 L 129.399994 121.039993 L 129.399994 123.240005 L 130.460007 122.240005 Z M 126.639999 121.75 L 125.080002 121.75 L 125.080002 131.360001 L 126.690002 131.360001 L 126.690002 123.360001 L 127.769997 123.360001 L 127.769997 121.729996 Z M 131.229996 119.339996 L 131.160004 119.410004 L 131.75 121.059998 L 132.240005 120.599991 Z M 129.869995 120.610001 L 129.399994 121.039993 L 129.399994 123.240005 L 130.460007 122.240005 Z M 126.639999 121.75 L 125.080002 121.75 L 125.080002 131.360001 L 126.690002 131.360001 L 126.690002 123.360001 L 127.769997 123.360001 L 127.769997 121.729996 Z M 131.229996 119.339996 L 131.160004 119.410004 L 131.75 121.059998 L 132.240005 120.599991 Z M 129.869995 120.610001 L 129.399994 121.039993 L 129.399994 123.240005 L 130.460007 122.240005 Z M 126.639999 121.75 L 125.080002 121.75 L 125.080002 131.360001 L 126.690002 131.360001 L 126.690002 123.360001 L 127.769997 123.360001 L 127.769997 121.729996 Z M 131.229996 119.339996 L 131.160004 119.410004 L 131.75 121.059998 L 132.240005 120.599991 Z M 129.869995 120.610001 L 129.399994 121.039993 L 129.399994 123.240005 L 130.460007 122.240005 Z M 126.639999 121.75 L 125.080002 121.75 L 125.080002 131.360001 L 126.690002 131.360001 L 126.690002 123.360001 L 127.769997 123.360001 L 127.769997 121.729996 Z M 131.229996 119.339996 L 131.160004 119.410004 L 131.75 121.059998 L 132.240005 120.599991 Z M 129.869995 120.610001 L 129.399994 121.039993 L 129.399994 123.240005 L 130.460007 122.240005 Z M 126.639999 121.75 L 125.080002 121.75 L 125.080002 131.360001 L 126.690002 131.360001 L 126.690002 123.360001 L 127.769997 123.360001 L 127.769997 121.729996 Z M 131.229996 119.339996 L 131.160004 119.410004 L 131.75 121.059998 L 132.240005 120.599991 Z M 129.399994 121.039993 L 129.399994 123.240005 L 130.460007 122.240005 L 129.869995 120.589996 Z M 125.080002 121.779999 L 125.080002 131.389999 L 126.690002 131.389999 L 126.690002 123.389999 L 127.769997 123.389999 L 127.769997 121.729996 L 126.629997 121.729996 Z M 154.449997 121.779999 L 152.830002 121.779999 L 151.729996 121.779999 L 148.339996 118.630005 L 146.720001 117.130005 L 140.789993 111.619995 L 140.25 112.209991 L 140.789993 111.599991 L 140.190002 111.069992 L 132.410004 118.300003 L 131.229996 119.399994 L 131.160004 119.470001 L 129.869995 120.669998 L 129.399994 121.099991 L 128.669998 121.779999 L 127.779999 121.779999 L 126.639999 121.779999 L 125.080002 121.779999 L 125.080002 159.150009 L 155.320007 159.150009 L 155.320007 121.830002 Z M 153.699997 157.550003 L 126.699997 157.550003 L 126.699997 123.369995 L 127.779999 123.369995 L 129.309998 123.369995 L 129.399994 123.289993 L 130.460007 122.289993 L 131.75 121.089996 L 132.240005 120.630005 L 133.429993 119.529999 L 140.199997 113.240005 L 146.720001 119.300003 L 148.339996 120.800003 L 151.080002 123.349991 L 152.830002 123.349991 L 153.639999 123.349991 L 153.699997 123.349991 Z M 126.639999 121.770004 L 125.080002 121.770004 L 125.080002 131.380005 L 126.690002 131.380005 L 126.690002 123.380005 L 127.769997 123.380005 L 127.769997 121.729996 Z M 129.869995 120.630005 L 129.399994 121.059998 L 129.399994 123.259995 L 130.460007 122.259995 Z M 131.229996 119.360001 L 131.160004 119.429993 L 131.75 121.080002 L 132.240005 120.619995 Z M 126.639999 121.770004 L 125.080002 121.770004 L 125.080002 131.380005 L 126.690002 131.380005 L 126.690002 123.380005 L 127.769997 123.380005 L 127.769997 121.729996 Z M 129.869995 120.630005 L 129.399994 121.059998 L 129.399994 123.259995 L 130.460007 122.259995 Z M 131.229996 119.360001 L 131.160004 119.429993 L 131.75 121.080002 L 132.240005 120.619995 Z M 126.639999 121.770004 L 125.080002 121.770004 L 125.080002 131.380005 L 126.690002 131.380005 L 126.690002 123.380005 L 127.769997 123.380005 L 127.769997 121.729996 Z M 129.869995 120.630005 L 129.399994 121.059998 L 129.399994 123.259995 L 130.460007 122.259995 Z M 131.229996 119.360001 L 131.160004 119.429993 L 131.75 121.080002 L 132.240005 120.619995 Z M 126.639999 121.770004 L 125.080002 121.770004 L 125.080002 131.380005 L 126.690002 131.380005 L 126.690002 123.380005 L 127.769997 123.380005 L 127.769997 121.729996 Z M 129.869995 120.630005 L 129.399994 121.059998 L 129.399994 123.259995 L 130.460007 122.259995 Z M 131.229996 119.360001 L 131.160004 119.429993 L 131.75 121.080002 L 132.240005 120.619995 Z M 126.639999 121.770004 L 125.080002 121.770004 L 125.080002 131.380005 L 126.690002 131.380005 L 126.690002 123.380005 L 127.769997 123.380005 L 127.769997 121.729996 Z M 129.869995 120.630005 L 129.399994 121.059998 L 129.399994 123.259995 L 130.460007 122.259995 Z M 131.229996 119.360001 L 131.160004 119.429993 L 131.75 121.080002 L 132.240005 120.619995 Z M 126.639999 121.770004 L 125.080002 121.770004 L 125.080002 131.380005 L 126.690002 131.380005 L 126.690002 123.380005 L 127.769997 123.380005 L 127.769997 121.729996 Z M 129.869995 120.630005 L 129.399994 121.059998 L 129.399994 123.259995 L 130.460007 122.259995 Z M 131.229996 119.360001 L 131.160004 119.429993 L 131.75 121.080002 L 132.240005 120.619995 Z M 126.639999 121.770004 L 125.080002 121.770004 L 125.080002 131.380005 L 126.690002 131.380005 L 126.690002 123.380005 L 127.769997 123.380005 L 127.769997 121.729996 Z M 129.869995 120.630005 L 129.399994 121.059998 L 129.399994 123.259995 L 130.460007 122.259995 Z M 131.229996 119.360001 L 131.160004 119.429993 L 131.75 121.080002 L 132.240005 120.619995 Z M 126.639999 121.770004 L 125.080002 121.770004 L 125.080002 131.380005 L 126.690002 131.380005 L 126.690002 123.380005 L 127.769997 123.380005 L 127.769997 121.729996 Z M 129.869995 120.630005 L 129.399994 121.059998 L 129.399994 123.259995 L 130.460007 122.259995 Z M 131.229996 119.360001 L 131.160004 119.429993 L 131.75 121.080002 L 132.240005 120.619995 Z M 126.639999 126.599991 L 126.639999 130.970001 L 126.639999 131.059998 C 126.64357 131.103256 126.64357 131.146744 126.639999 131.190002 L 126.639999 126.599991 Z M 126.639999 126.599991 L 126.639999 130.970001 L 126.639999 131.059998 C 126.64357 131.103256 126.64357 131.146744 126.639999 131.190002 L 126.639999 126.599991 Z M 126.639999 124.990005 L 126.639999 121.770004 L 125.080002 121.770004 L 125.080002 131.380005 L 126.629997 131.380005 L 126.629997 130.940002 L 126.629997 131.029999 C 126.633568 131.073257 126.633568 131.116745 126.629997 131.160004 L 126.629997 124.959991 Z"/>
    <path id="path54" fill="#d8371d" stroke="none" d="M 153.830002 131.389999 L 153.830002 159.150009 L 162.830002 159.150009 L 162.830002 131.389999 Z M 161.220001 157.529999 L 155.440002 157.529999 L 155.440002 133.009995 L 161.220001 133.009995 Z"/>
    <path id="path55" fill="#d8371d" stroke="none" d="M 155.389999 132.040009 L 153.850006 131.559998 L 158.539993 116.649994 L 162.800003 131.529999 L 161.25 131.979996 L 158.470001 122.270004 L 155.389999 132.040009 Z"/>
    <path id="path56" fill="#d8371d" stroke="none" d="M 140.149994 125.830002 C 139.651138 125.828857 139.154037 125.889313 138.669998 126.009995 C 138.135498 126.13121 137.620529 126.326416 137.139999 126.589996 C 134.312653 128.112198 133.063477 131.503159 134.227615 134.495773 C 135.391769 137.488373 138.604065 139.143784 141.716797 138.355225 C 144.829529 137.566666 146.866196 134.581512 146.465118 131.395599 C 146.064056 128.209686 143.351059 125.822464 140.139999 125.830002 Z M 140.149994 136.940002 C 137.526642 136.940002 135.399994 134.813354 135.399994 132.190002 C 135.399994 129.56665 137.526642 127.440002 140.149994 127.440002 C 142.773346 127.440002 144.899994 129.56665 144.899994 132.190002 C 144.894485 134.809448 142.769455 136.930008 140.149994 136.930008 Z"/>
    <path id="path57" fill="#d8371d" stroke="none" d="M 143.610001 131.330002 C 143.592957 130.360992 142.845703 129.561905 141.880005 129.479996 C 141.539291 128.860428 140.88707 128.476761 140.179993 128.479996 C 139.48053 128.494797 138.839661 128.874023 138.490005 129.479996 C 137.4991 129.537277 136.719238 130.347626 136.699997 131.339996 C 136.702347 131.659973 136.788544 131.97374 136.949997 132.25 C 136.787582 132.522202 136.701248 132.833023 136.699997 133.150009 C 136.717041 134.119019 137.464294 134.918106 138.429993 135 C 138.76741 135.622757 139.421753 136.00766 140.130005 136 C 140.829468 135.985199 141.470352 135.605988 141.820007 135 C 142.810913 134.942719 143.590759 134.13237 143.610001 133.139999 C 143.608765 132.823029 143.522415 132.512207 143.360001 132.240005 C 143.521454 131.963745 143.607651 131.649979 143.610001 131.330002 Z M 141.850006 132.940002 C 141.928253 132.977798 141.981262 133.053528 141.990005 133.139999 C 141.990005 133.309998 141.75 133.440002 141.539993 133.360001 C 141.294968 133.265045 141.019089 133.294876 140.800003 133.440002 C 140.579971 133.593109 140.446228 133.842026 140.440002 134.110001 C 140.440002 134.369995 139.820007 134.369995 139.820007 134.110001 C 139.813034 133.852798 139.6828 133.614639 139.470001 133.470001 C 139.336761 133.371872 139.175461 133.319275 139.009995 133.320007 C 138.92395 133.30545 138.83606 133.30545 138.75 133.320007 C 138.479996 133.410004 138.320007 133.259995 138.320007 133.100006 C 138.320007 132.940002 138.429993 132.919998 138.460007 132.900009 C 138.719772 132.760681 138.881882 132.489777 138.881882 132.195007 C 138.881882 131.900223 138.719772 131.629333 138.460007 131.490005 C 138.460007 131.490005 138.320007 131.400009 138.320007 131.290009 C 138.320007 131.180008 138.570007 130.990005 138.770004 131.070007 C 139.014297 131.170334 139.292786 131.140228 139.509995 130.990005 C 139.73259 130.839188 139.867096 130.588852 139.869995 130.320007 C 139.869995 130.059998 140.490005 130.059998 140.490005 130.320007 C 140.499634 130.57637 140.628677 130.813446 140.83876 130.960709 C 141.048843 131.107956 141.31572 131.148392 141.559998 131.070007 C 141.839996 130.979996 141.990005 131.130005 141.990005 131.290009 C 141.981262 131.376465 141.928253 131.452194 141.850006 131.490005 C 141.595917 131.633743 141.438843 131.903076 141.438843 132.195007 C 141.438843 132.486923 141.595917 132.756256 141.850006 132.900009 Z"/>
    <path id="path58" fill="#d8371d" stroke="none" d="M 120.059998 134.110001 L 121.68 134.110001 L 121.68 135.75 L 120.059998 135.75 Z"/>
    <path id="path59" fill="#d8371d" stroke="none" d="M 122.510002 134.110001 L 124.129997 134.110001 L 124.129997 135.75 L 122.510002 135.75 Z"/>
    <path id="path60" fill="#d8371d" stroke="none" d="M 131.110001 122.509995 L 132.720001 122.509995 L 132.720001 125.309998 L 131.110001 125.309998 Z"/>
    <path id="path61" fill="#d8371d" stroke="none" d="M 135.190002 118.490005 L 136.809998 118.490005 L 136.809998 121.289993 L 135.190002 121.289993 Z"/>
    <path id="path62" fill="#d8371d" stroke="none" d="M 139.389999 114.910004 L 141.009995 114.910004 L 141.009995 117.709991 L 139.389999 117.709991 Z"/>
    <path id="path63" fill="#d8371d" stroke="none" d="M 147.570007 122.509995 L 149.190002 122.509995 L 149.190002 125.309998 L 147.570007 125.309998 Z"/>
    <path id="path64" fill="#d8371d" stroke="none" d="M 143.490005 118.490005 L 145.100006 118.490005 L 145.100006 121.289993 L 143.490005 121.289993 Z"/>
    <path id="path65" fill="#d8371d" stroke="none" d="M 156.289993 134.110001 L 157.910004 134.110001 L 157.910004 135.75 L 156.289993 135.75 Z"/>
    <path id="path66" fill="#d8371d" stroke="none" d="M 158.729996 134.110001 L 160.350006 134.110001 L 160.350006 135.75 L 158.729996 135.75 Z"/>
    <path id="path67" fill="#d8371d" stroke="none" d="M 132.770004 139.650009 C 132.513428 139.557449 132.242752 139.510086 131.970001 139.509995 C 131.693985 139.510132 131.420044 139.55748 131.160004 139.650009 C 130.165146 139.985641 129.496552 140.920059 129.5 141.970001 L 129.5 147.210007 L 134.440002 147.210007 L 134.440002 141.970001 C 134.438919 140.918411 133.766876 139.984787 132.770004 139.650009 Z M 132.770004 145.589996 L 131.070007 145.589996 L 131.070007 141.970001 C 131.070007 141.500565 131.450562 141.119995 131.919998 141.119995 C 132.389435 141.119995 132.770004 141.500565 132.770004 141.970001 Z"/>
    <path id="path68" fill="#d8371d" stroke="none" d="M 135.880005 149.830002 C 135.34285 149.194244 134.552292 148.828247 133.720001 148.830002 C 132.03183 148.905701 130.722244 150.331497 130.789993 152.020004 L 130.789993 159.190002 L 136.660004 159.190002 L 136.660004 152.020004 C 136.670639 151.220154 136.39386 150.443039 135.880005 149.830002 Z M 132.410004 157.540009 L 132.410004 151.990005 C 132.305984 151.459061 132.531464 150.917633 132.981613 150.617477 C 133.431763 150.317337 134.01825 150.317337 134.468399 150.617477 C 134.918549 150.917633 135.144028 151.459061 135.039993 151.990005 L 135.039993 157.540009 Z"/>
    <path id="path69" fill="#d8371d" stroke="none" d="M 140.179993 149.830002 C 139.656082 149.179138 138.865524 148.800644 138.029999 148.800644 C 137.194473 148.800644 136.403915 149.179138 135.880005 149.830002 C 135.372864 150.435181 135.096512 151.200439 135.100006 151.990005 L 135.100006 159.160004 L 141 159.160004 L 141 151.990005 C 140.992325 151.195374 140.701584 150.429535 140.179993 149.830002 Z M 136.710007 157.540009 L 136.710007 151.990005 C 136.618011 151.463593 136.84761 150.932846 137.294235 150.63942 C 137.74086 150.345993 138.319138 150.345993 138.765762 150.63942 C 139.212402 150.932846 139.441986 151.463593 139.350006 151.990005 L 139.350006 157.540009 Z"/>
    <path id="path70" fill="#d8371d" stroke="none" d="M 145.259995 151.830002 C 145.225647 151.090546 144.939896 150.384964 144.449997 149.830002 C 143.925781 149.190125 143.142197 148.819107 142.315002 148.819107 C 141.487808 148.819107 140.704224 149.190125 140.179993 149.830002 C 139.672867 150.435181 139.396515 151.200439 139.399994 151.990005 L 139.399994 159.160004 L 145.270004 159.160004 L 145.270004 151.990005 C 145.270203 151.936508 145.266861 151.883057 145.259995 151.830002 Z M 141 157.529999 L 141 151.979996 C 140.936371 151.18367 141.524567 150.48407 142.320007 150.410004 C 143.062454 150.477737 143.628296 151.104507 143.619995 151.850006 C 143.624954 151.893188 143.624954 151.936813 143.619995 151.979996 L 143.619995 157.529999 Z"/>
    <path id="path71" fill="#d8371d" stroke="none" d="M 146.559998 148.830002 C 145.744293 148.838837 144.973312 149.204239 144.449997 149.830002 C 143.944351 150.402893 143.657455 151.136078 143.639999 151.900009 C 143.63504 151.943192 143.63504 151.986816 143.639999 152.029999 L 143.639999 159.199997 L 149.509995 159.199997 L 149.509995 152.029999 C 149.577652 150.33223 148.25766 148.900375 146.559998 148.830002 Z M 145.240005 157.570007 L 145.240005 152.020004 C 145.23024 151.957047 145.23024 151.89296 145.240005 151.830002 C 145.24855 151.101944 145.813736 150.501953 146.539993 150.449997 C 147.335434 150.524063 147.92363 151.223663 147.860001 152.020004 L 147.860001 157.570007 Z"/>
    <path id="path72" fill="#d8371d" stroke="none" d="M 140.100006 139.509995 C 138.739746 139.509995 137.635513 140.609772 137.630005 141.970001 L 137.630005 147.210007 L 142.570007 147.210007 L 142.570007 141.970001 C 142.564499 140.609772 141.460251 139.509995 140.100006 139.509995 Z M 140.949997 145.589996 L 139.25 145.589996 L 139.25 141.970001 C 139.25 141.500565 139.630554 141.119995 140.100006 141.119995 C 140.569443 141.119995 140.949997 141.500565 140.949997 141.970001 Z"/>
    <path id="path73" fill="#d8371d" stroke="none" d="M 150.619995 141.199997 C 150.524841 140.900864 150.368164 140.624954 150.160004 140.389999 C 149.892883 140.074051 149.548309 139.83284 149.160004 139.690002 C 148.893509 139.578674 148.608704 139.517654 148.320007 139.509995 L 148.259995 139.509995 C 148.015869 139.510742 147.773209 139.547806 147.539993 139.619995 L 147.539993 139.619995 C 147.242859 139.709991 146.967224 139.859711 146.729996 140.059998 C 146.150055 140.519241 145.814301 141.220276 145.820007 141.960007 L 145.820007 147.199997 L 150.759995 147.199997 L 150.759995 141.960007 C 150.758759 141.700378 150.711349 141.443039 150.619995 141.199997 Z M 149.130005 145.589996 L 147.429993 145.589996 L 147.429993 141.970001 C 147.42926 141.636902 147.625397 141.334824 147.929993 141.199997 C 148.151291 141.093979 148.408707 141.093979 148.630005 141.199997 C 148.934601 141.334824 149.130753 141.636902 149.130005 141.970001 Z"/>
    <path id="path74" fill="#d8371d" stroke="none" d="M 140.479996 124.160004 L 140.169998 124.220001 L 140.169998 124.220001 C 139.35643 124.368698 138.559326 124.596436 137.789993 124.899994 C 136.778671 125.281754 135.848923 125.851822 135.050003 126.580002 C 133.624115 127.85347 132.800171 129.668335 132.779999 131.580002 L 132.779999 139.919998 L 131.169998 139.919998 L 131.169998 131.619995 C 131.195084 129.8125 131.797806 128.060425 132.889999 126.619995 C 133.339722 126.007034 133.871338 125.458588 134.470001 124.990005 C 134.72995 124.778412 135.003922 124.584641 135.289993 124.410004 C 135.749573 124.113922 136.230957 123.85318 136.729996 123.630005 L 136.729996 123.630005 C 137.817307 123.156479 138.959473 122.820557 140.130005 122.630005 L 140.210007 122.630005 L 140.210007 122.630005 Z"/>
    <path id="path75" fill="#d8371d" stroke="none" d="M 149.179993 139.690002 L 149.179993 139.919998 L 147.559998 139.919998 L 147.559998 131.619995 C 147.574722 131.416931 147.574722 131.213074 147.559998 131.009995 C 147.468582 130.094315 147.193069 129.206558 146.75 128.400009 C 145.860001 126.75 144.009995 124.949997 140.199997 124.220001 L 140.199997 124.220001 L 139.889999 124.160004 L 140.169998 122.580002 L 140.169998 122.580002 L 140.25 122.580002 C 142.701477 122.898438 144.98468 123.99971 146.759995 125.720001 C 147.056641 126.030838 147.32753 126.365265 147.570007 126.720001 C 147.881912 127.154083 148.153061 127.616043 148.380005 128.100006 C 148.925949 129.214462 149.209854 130.438995 149.210007 131.680008 Z"/>
    <path id="path76" fill="#d8371d" stroke="none" d="M 121.300003 137.940002 L 122.919998 137.940002 L 122.919998 144.220001 L 121.300003 144.220001 Z"/>
    <path id="path77" fill="#d8371d" stroke="none" d="M 157.520004 137.940002 L 159.139999 137.940002 L 159.139999 144.220001 L 157.520004 144.220001 Z"/>
    <path id="path78" fill="#d8371d" stroke="none" d="M 119.32 154.910004 L 117.699997 154.910004 L 117.699997 147.070007 L 113.230003 147.070007 L 113.230003 143.600006 L 109.760002 143.600006 L 109.519997 143.240005 C 106.325951 138.401199 100.907883 135.498535 95.110001 135.520004 L 95.110001 133.910004 C 101.295547 133.883163 107.097198 136.905563 110.620003 141.990005 L 114.849998 141.990005 L 114.849998 145.449997 L 119.32 145.449997 Z"/>
    <path id="path79" fill="#d8371d" stroke="none" d="M 72.629997 154.910004 L 71 154.910004 L 71 145.449997 L 75.470001 145.449997 L 75.470001 141.990005 L 79.699997 141.990005 C 83.228348 136.906662 89.032188 133.885071 95.220001 133.910004 L 95.220001 135.520004 C 89.422119 135.498535 84.004044 138.401199 80.809998 143.240005 L 80.57 143.600006 L 77.099998 143.600006 L 77.099998 147.070007 L 72.629997 147.070007 Z"/>
    <path id="path80" fill="#d8371d" stroke="none" d="M 109.309998 152.119995 C 108.865227 144.65036 102.677879 138.820465 95.195 138.820465 C 87.71212 138.820465 81.524773 144.65036 81.080002 152.119995 C 81.080002 152.393326 81.080002 152.66333 81.080002 152.930008 L 81.080002 159.110001 L 109.370003 159.110001 L 109.370003 152.930008 C 109.349998 152.66333 109.329994 152.393326 109.309998 152.119995 Z M 107.720001 157.490005 L 82.660004 157.490005 L 82.660004 152.930008 C 82.649986 149.354309 84.180321 145.947495 86.860001 143.580002 C 87.286827 143.193924 87.741379 142.839645 88.220001 142.520004 C 88.736938 142.174393 89.278374 141.866913 89.839996 141.600006 C 93.161057 140.02887 97.005409 139.999603 100.349998 141.520004 C 100.908257 141.768143 101.446518 142.059006 101.959999 142.389999 C 102.435738 142.691742 102.890144 143.025864 103.32 143.389999 C 103.90947 143.892807 104.451721 144.448456 104.940002 145.050003 C 106.738846 147.278534 107.719978 150.056046 107.720001 152.919998 Z"/>
    <path id="path81" fill="#d8371d" stroke="none" d="M 107.720001 152.119995 L 107.720001 159.119995 L 119.32 159.119995 L 119.32 152.119995 Z M 117.720001 157.490005 L 109.349998 157.490005 L 109.349998 153.740005 L 117.720001 153.740005 Z"/>
    <path id="path82" fill="#d8371d" stroke="none" d="M 95.190002 141.979996 C 92.826218 141.979996 90.910004 143.896225 90.910004 146.259995 C 90.910004 148.623779 92.826218 150.540009 95.190002 150.540009 C 97.55378 150.540009 99.470001 148.623779 99.470001 146.259995 C 99.470001 143.896225 97.55378 141.979996 95.190002 141.979996 Z M 95.190002 148.919998 C 93.720924 148.919998 92.529999 147.72908 92.529999 146.259995 C 92.529999 144.790924 93.720924 143.600006 95.190002 143.600006 C 96.659081 143.600006 97.849998 144.790924 97.849998 146.259995 C 97.844513 147.726807 96.656799 148.91452 95.190002 148.919998 Z"/>
    <path id="path83" fill="#d8371d" stroke="none" d="M 71 152.119995 L 71 159.119995 L 82.599998 159.119995 L 82.599998 152.119995 Z M 81 157.490005 L 72.629997 157.490005 L 72.629997 153.740005 L 81 153.740005 Z"/>
    <path id="path84" fill="#d8371d" stroke="none" d="M 85.239998 143.220001 L 86.860001 143.220001 L 86.860001 158.300003 L 85.239998 158.300003 Z"/>
    <path id="path85" fill="#d8371d" stroke="none" d="M 97.150002 147.070007 L 94.379997 147.070007 L 94.379997 144.080002 L 96 144.080002 L 96 145.460007 L 97.150002 145.460007 L 97.150002 147.070007 Z"/>
    <path id="path86" fill="#d8371d" stroke="none" d="M 88.220001 141.110001 L 89.839996 141.110001 L 89.839996 158.309998 L 88.220001 158.309998 Z"/>
    <path id="path87" fill="#d8371d" stroke="none" d="M 100.339996 141 L 101.959999 141 L 101.959999 158.300003 L 100.339996 158.300003 Z"/>
    <path id="path88" fill="#d8371d" stroke="none" d="M 103.32 143.029999 L 104.940002 143.029999 L 104.940002 158.309998 L 103.32 158.309998 Z"/>
    <path id="path89" fill="#d8371d" stroke="none" d="M 229.130005 138.930008 L 229 138.830002 L 228.289993 138.020004 L 223.839996 132.830002 L 219.339996 137.990005 L 218.630005 138.800003 L 218.509995 138.940002 L 217.970001 139.559998 L 218.509995 139.559998 L 227.779999 139.559998 L 229.779999 139.559998 Z M 221.509995 137.930008 L 223.839996 135.270004 L 226.169998 137.960007 Z"/>
    <path id="path90" fill="#d8371d" stroke="none" d="M 229.940002 141.630005 L 229.270004 141.089996 L 218.270004 141.089996 L 217.729996 141.520004 L 215.220001 143.520004 L 215.220001 150.889999 L 232.350006 150.889999 L 232.350006 143.520004 Z M 216.809998 144.309998 L 218.809998 142.710007 L 228.699997 142.710007 L 230.699997 144.309998 L 230.699997 149.309998 L 216.809998 149.309998 Z"/>
    <path id="path91" fill="#d8371d" stroke="none" d="M 232.320007 149.759995 L 231.759995 149.309998 L 215.759995 149.309998 L 215.199997 149.759995 L 212.710007 151.759995 L 212.710007 159.130005 L 234.820007 159.130005 L 234.820007 151.759995 Z M 233.190002 157.5 L 214.320007 157.5 L 214.320007 152.5 L 216.320007 150.900009 L 231.190002 150.900009 L 233.190002 152.5 Z"/>
    <path id="path92" fill="#d8371d" stroke="none" d="M 217.699997 138 L 217.699997 142.699997 L 229.940002 142.699997 L 229.940002 138 Z M 228.330002 139.619995 L 228.330002 141.080002 L 219.330002 141.080002 L 219.330002 139.619995 Z"/>
    <path id="path93" fill="#d8371d" stroke="none" d="M 205 138.940002 L 204.889999 138.809998 L 204.190002 138 L 199.720001 132.830002 L 195.220001 137.990005 L 195.139999 138.080002 L 194.509995 138.800003 L 194.380005 138.949997 L 194.380005 139.009995 L 193.899994 139.559998 L 195.190002 139.559998 L 203.699997 139.559998 L 205.699997 139.559998 Z M 197.380005 137.940002 L 199.710007 135.279999 L 202.039993 137.970001 Z"/>
    <path id="path94" fill="#d8371d" stroke="none" d="M 205.820007 141.630005 L 205.149994 141.089996 L 194.149994 141.089996 L 193.610001 141.520004 L 193.550003 141.570007 L 191.100006 143.570007 L 191.100006 150.940002 L 208.199997 150.940002 L 208.199997 143.570007 Z M 206.580002 149.290009 L 192.690002 149.290009 L 192.690002 144.290009 L 193.520004 143.630005 L 194.330002 142.979996 L 194.690002 142.690002 L 204.580002 142.690002 L 206.580002 144.290009 Z"/>
    <path id="path95" fill="#d8371d" stroke="none" d="M 208.199997 149.759995 L 207.639999 149.309998 L 191.639999 149.309998 L 191.080002 149.759995 L 190.199997 150.460007 L 189.639999 150.910004 L 189.399994 151.100006 L 188.589996 151.75 L 188.589996 159.119995 L 210.699997 159.119995 L 210.699997 151.75 Z M 190.199997 157.5 L 190.199997 152.5 L 192.199997 150.900009 L 207.070007 150.900009 L 209.070007 152.5 L 209.070007 157.5 Z"/>
    <path id="path96" fill="#d8371d" stroke="none" d="M 193.580002 138 L 193.580002 142.699997 L 205.820007 142.699997 L 205.820007 138 Z M 204.199997 139.619995 L 204.199997 141.080002 L 195.199997 141.080002 L 195.199997 139.619995 Z"/>
    <path id="path97" fill="#d8371d" stroke="none" d="M 207.389999 145.680008 L 216 145.680008 L 216 147.300003 L 207.389999 147.300003 Z"/>
    <path id="path98" fill="#d8371d" stroke="none" d="M 207.389999 157.520004 L 216 157.520004 L 216 159.139999 L 207.389999 159.139999 Z"/>
    <path id="path99" fill="#d8371d" stroke="none" d="M 195.320007 142.080002 L 196.929993 142.080002 L 196.929993 149.850006 L 195.320007 149.850006 Z"/>
    <path id="path100" fill="#d8371d" stroke="none" d="M 202.089996 142.080002 L 203.710007 142.080002 L 203.710007 149.850006 L 202.089996 149.850006 Z"/>
    <path id="path101" fill="#d8371d" stroke="none" d="M 219.559998 142.080002 L 221.179993 142.080002 L 221.179993 149.850006 L 219.559998 149.850006 Z"/>
    <path id="path102" fill="#d8371d" stroke="none" d="M 226.330002 142.080002 L 227.949997 142.080002 L 227.949997 149.850006 L 226.330002 149.850006 Z"/>
    <path id="path103" fill="#d8371d" stroke="none" d="M 172.520004 113.169998 L 165.929993 113.169998 L 165.929993 106.399994 L 168.559998 106.399994 L 168.559998 101.569992 L 172.520004 101.569992 L 172.520004 103.190002 L 170.179993 103.190002 L 170.179993 108.020004 L 167.550003 108.020004 L 167.550003 111.559998 L 172.520004 111.559998 L 172.520004 113.169998 Z"/>
    <path id="path104" fill="#d8371d" stroke="none" d="M 186.270004 113.169998 L 179.679993 113.169998 L 179.679993 111.559998 L 184.660004 111.559998 L 184.660004 108.020004 L 182.029999 108.020004 L 182.029999 103.190002 L 179.679993 103.190002 L 179.679993 101.569992 L 183.639999 101.569992 L 183.639999 106.399994 L 186.270004 106.399994 L 186.270004 113.169998 Z"/>
    <path id="path105" fill="#d8371d" stroke="none" d="M 171.710007 96.25 L 171.710007 113.25 L 180.529999 113.25 L 180.529999 96.25 Z M 173.330002 97.830002 L 178.910004 97.830002 L 178.910004 111.619995 L 173.330002 111.619995 Z"/>
    <path id="path106" fill="#d8371d" stroke="none" d="M 171.669998 112.459991 L 171.669998 113.270004 L 171.669998 113.270004 L 171.669998 112.459991 Z M 165.589996 149.290009 L 165.589996 150.100006 L 166.399994 150.100006 L 166.399994 149.290009 Z M 165.589996 141.199997 L 165.589996 147.040009 L 166.399994 147.040009 L 166.399994 141.199997 Z M 171.669998 112.459991 L 171.669998 113.270004 L 171.669998 113.270004 L 171.669998 112.459991 Z M 165.589996 149.290009 L 165.589996 150.100006 L 166.399994 150.100006 L 166.399994 149.290009 Z M 165.589996 141.199997 L 165.589996 147.040009 L 166.399994 147.040009 L 166.399994 141.199997 Z M 171.669998 112.459991 L 171.669998 113.270004 L 171.669998 113.270004 L 171.669998 112.459991 Z M 165.589996 149.290009 L 165.589996 150.100006 L 166.399994 150.100006 L 166.399994 149.290009 Z M 165.589996 141.199997 L 165.589996 147.040009 L 166.399994 147.040009 L 166.399994 141.199997 Z M 171.669998 112.459991 L 171.669998 113.270004 L 171.669998 113.270004 L 171.669998 112.459991 Z M 165.589996 149.290009 L 165.589996 150.100006 L 166.399994 150.100006 L 166.399994 149.290009 Z M 165.589996 141.199997 L 165.589996 147.040009 L 166.399994 147.040009 L 166.399994 141.199997 Z M 171.669998 112.459991 L 171.669998 113.270004 L 171.669998 113.270004 L 171.669998 112.459991 Z M 165.589996 149.290009 L 165.589996 150.100006 L 166.399994 150.100006 L 166.399994 149.290009 Z M 165.589996 141.199997 L 165.589996 147.040009 L 166.399994 147.040009 L 166.399994 141.199997 Z M 171.669998 112.459991 L 171.669998 113.270004 L 171.669998 113.270004 L 171.669998 112.459991 Z M 165.589996 149.290009 L 165.589996 150.100006 L 166.399994 150.100006 L 166.399994 149.290009 Z M 165.589996 141.199997 L 165.589996 147.040009 L 166.399994 147.040009 L 166.399994 141.199997 Z M 170.860001 111.649994 L 170.860001 113.169998 L 166.369995 113.169998 L 166.369995 111.649994 L 164.779999 111.649994 L 164.779999 142 L 165.589996 142 L 165.589996 147 L 166.399994 147 L 166.399994 113.270004 L 171.710007 113.270004 L 171.710007 111.649994 Z M 186.089996 149.290009 L 186.089996 150.910004 L 187.699997 150.910004 L 187.699997 149.290009 Z M 164.779999 157.509995 L 164.779999 159.130005 L 187.699997 159.130005 L 187.699997 157.509995 Z M 164.779999 111.649994 L 164.779999 150.910004 L 166.399994 150.910004 L 166.399994 149.290009 L 165.149994 149.290009 L 165.149994 147.040009 L 166.399994 147.040009 L 166.399994 113.270004 L 186.089996 113.270004 L 186.089996 147.059998 L 187.699997 147.059998 L 187.699997 111.649994 Z M 170.860001 111.649994 L 170.860001 113.169998 L 166.369995 113.169998 L 166.369995 111.649994 L 164.779999 111.649994 L 164.779999 142 L 165.589996 142 L 165.589996 147 L 166.399994 147 L 166.399994 113.270004 L 171.710007 113.270004 L 171.710007 111.649994 Z M 165.589996 149.290009 L 165.589996 150.100006 L 166.399994 150.100006 L 166.399994 149.290009 Z M 165.589996 141.199997 L 165.589996 147.040009 L 166.399994 147.040009 L 166.399994 141.199997 Z M 171.669998 112.459991 L 171.669998 113.270004 L 171.669998 113.270004 L 171.669998 112.459991 Z M 165.589996 149.290009 L 165.589996 150.100006 L 166.399994 150.100006 L 166.399994 149.290009 Z M 165.589996 141.199997 L 165.589996 147.040009 L 166.399994 147.040009 L 166.399994 141.199997 Z M 171.669998 112.459991 L 171.669998 113.270004 L 171.669998 113.270004 L 171.669998 112.459991 Z M 165.589996 149.290009 L 165.589996 150.100006 L 166.399994 150.100006 L 166.399994 149.290009 Z M 165.589996 141.199997 L 165.589996 147.040009 L 166.399994 147.040009 L 166.399994 141.199997 Z M 171.669998 112.459991 L 171.669998 113.270004 L 171.669998 113.270004 L 171.669998 112.459991 Z M 165.589996 149.290009 L 165.589996 150.100006 L 166.399994 150.100006 L 166.399994 149.290009 Z M 165.589996 141.199997 L 165.589996 147.040009 L 166.399994 147.040009 L 166.399994 141.199997 Z M 171.669998 112.459991 L 171.669998 113.270004 L 171.669998 113.270004 L 171.669998 112.459991 Z M 165.589996 149.290009 L 165.589996 150.100006 L 166.399994 150.100006 L 166.399994 149.290009 Z M 165.589996 141.199997 L 165.589996 147.040009 L 166.399994 147.040009 L 166.399994 141.199997 Z M 171.669998 112.459991 L 171.669998 113.270004 L 171.669998 113.270004 L 171.669998 112.459991 Z M 165.589996 149.290009 L 165.589996 150.100006 L 166.399994 150.100006 L 166.399994 149.290009 Z M 165.589996 141.199997 L 165.589996 147.040009 L 166.399994 147.040009 L 166.399994 141.199997 Z M 171.669998 112.459991 L 171.669998 113.270004 L 171.669998 113.270004 L 171.669998 112.459991 Z M 165.589996 149.290009 L 165.589996 150.100006 L 166.399994 150.100006 L 166.399994 149.290009 Z M 165.589996 141.199997 L 165.589996 147.040009 L 166.399994 147.040009 L 166.399994 141.199997 Z M 171.669998 112.459991 L 171.669998 113.270004 L 171.669998 113.270004 L 171.669998 112.459991 Z"/>
    <path id="path107" fill="#d8371d" stroke="none" d="M 163.529999 145.419998 L 163.529999 150.910004 L 170.669998 150.910004 L 170.669998 145.419998 Z M 165.149994 149.290009 L 165.149994 147.040009 L 169.059998 147.040009 L 169.059998 149.290009 Z"/>
    <path id="path108" fill="#d8371d" stroke="none" d="M 161.220001 149.290009 L 161.220001 159.130005 L 170.679993 159.130005 L 170.679993 149.290009 Z M 162.839996 157.509995 L 162.839996 150.910004 L 169.059998 150.910004 L 169.059998 157.509995 Z"/>
    <path id="path109" fill="#d8371d" stroke="none" d="M 181.520004 149.290009 L 181.520004 159.130005 L 190.190002 159.130005 L 190.190002 149.290009 Z M 183.139999 157.509995 L 183.139999 150.910004 L 188.580002 150.910004 L 188.580002 157.509995 Z"/>
    <path id="path110" fill="#d8371d" stroke="none" d="M 181.520004 145.440002 L 181.520004 149.290009 L 183.130005 149.290009 L 183.130005 147.059998 L 186.130005 147.059998 L 186.130005 145.440002 Z M 181.520004 145.440002 L 181.520004 149.290009 L 183.130005 149.290009 L 183.130005 147.059998 L 186.130005 147.059998 L 186.130005 145.440002 Z M 181.520004 145.440002 L 181.520004 150.910004 L 190.190002 150.910004 L 190.190002 145.440002 Z M 183.130005 149.290009 L 183.130005 147.059998 L 188.580002 147.059998 L 188.580002 149.290009 Z M 181.520004 145.440002 L 181.520004 149.290009 L 183.130005 149.290009 L 183.130005 147.059998 L 186.130005 147.059998 L 186.130005 145.440002 Z M 181.520004 145.440002 L 181.520004 149.290009 L 183.130005 149.290009 L 183.130005 147.059998 L 186.130005 147.059998 L 186.130005 145.440002 Z"/>
    <path id="path111" fill="#d8371d" stroke="none" d="M 171.580002 117.709991 L 173.190002 117.709991 L 173.190002 121.020004 L 171.580002 121.020004 Z"/>
    <path id="path112" fill="#d8371d" stroke="none" d="M 175.369995 117.709991 L 176.990005 117.709991 L 176.990005 121.020004 L 175.369995 121.020004 Z"/>
    <path id="path113" fill="#d8371d" stroke="none" d="M 171.580002 123.039993 L 173.190002 123.039993 L 173.190002 126.349991 L 171.580002 126.349991 Z"/>
    <path id="path114" fill="#d8371d" stroke="none" d="M 175.369995 123.039993 L 176.990005 123.039993 L 176.990005 126.349991 L 175.369995 126.349991 Z"/>
    <path id="path115" fill="#d8371d" stroke="none" d="M 171.580002 128.449997 L 173.190002 128.449997 L 173.190002 131.759995 L 171.580002 131.759995 Z"/>
    <path id="path116" fill="#d8371d" stroke="none" d="M 175.369995 128.449997 L 176.990005 128.449997 L 176.990005 131.759995 L 175.369995 131.759995 Z"/>
    <path id="path117" fill="#d8371d" stroke="none" d="M 179.039993 117.709991 L 180.660004 117.709991 L 180.660004 121.020004 L 179.039993 121.020004 Z"/>
    <path id="path118" fill="#d8371d" stroke="none" d="M 179.039993 123.039993 L 180.660004 123.039993 L 180.660004 126.349991 L 179.039993 126.349991 Z"/>
    <path id="path119" fill="#d8371d" stroke="none" d="M 179.039993 128.449997 L 180.660004 128.449997 L 180.660004 131.759995 L 179.039993 131.759995 Z"/>
    <path id="path120" fill="#d8371d" stroke="none" d="M 171.580002 133.960007 L 173.190002 133.960007 L 173.190002 137.270004 L 171.580002 137.270004 Z"/>
    <path id="path121" fill="#d8371d" stroke="none" d="M 175.369995 133.960007 L 176.990005 133.960007 L 176.990005 137.270004 L 175.369995 137.270004 Z"/>
    <path id="path122" fill="#d8371d" stroke="none" d="M 171.580002 139.290009 L 173.190002 139.290009 L 173.190002 142.610001 L 171.580002 142.610001 Z"/>
    <path id="path123" fill="#d8371d" stroke="none" d="M 175.369995 139.300003 L 176.990005 139.300003 L 176.990005 142.610001 L 175.369995 142.610001 Z"/>
    <path id="path124" fill="#d8371d" stroke="none" d="M 179.039993 133.960007 L 180.660004 133.960007 L 180.660004 137.270004 L 179.039993 137.270004 Z"/>
    <path id="path125" fill="#d8371d" stroke="none" d="M 179.039993 139.300003 L 180.660004 139.300003 L 180.660004 142.610001 L 179.039993 142.610001 Z"/>
    <path id="path126" fill="#d8371d" stroke="none" d="M 173.710007 150.830002 L 173.710007 159.059998 L 178.529999 159.059998 L 178.529999 150.830002 Z M 175.320007 152.449997 L 176.910004 152.449997 L 176.910004 157.449997 L 175.320007 157.449997 Z"/>
    <path id="path127" fill="#d8371d" stroke="none" d="M 175.320007 89.050003 L 175.320007 97.300003 L 176.929993 97.300003 L 176.929993 93.190002 L 181.050003 93.190002 L 181.050003 89.050003 Z M 179.429993 91.569992 L 176.929993 91.569992 L 176.929993 90.660004 L 179.429993 90.660004 Z"/>
    <path id="path128" fill="#d8371d" stroke="none" d="M 78.879997 131.400009 L 119.169998 131.400009 L 119.169998 133.020004 L 78.879997 133.020004 Z"/>
    <path id="path129" fill="#d8371d" stroke="none" d="M 41 157.540009 L 272.359985 157.540009 L 272.359985 159.199997 L 41 159.199997 Z"/>
    <path id="path130" fill="#d8371d" stroke="none" d="M 54.529999 125.069992 C 54.43 125.619995 54.34 126.179993 54.259998 126.729996 L 41 126.729996 L 41 125.069992 Z"/>
    <path id="path131" fill="#d8371d" stroke="none" d="M 272.369995 125.069992 L 272.369995 126.729996 L 259 126.729996 C 258.920013 126.179993 258.829987 125.619995 258.730011 125.069992 Z"/>
    <path id="path132" fill="#d8371d" stroke="none" d="M 156.610001 251.570007 C 104.627831 251.560486 60.370052 213.752472 52.240002 162.410004 L 54.240002 162.100006 C 62.228111 212.466599 105.653885 249.547836 156.649994 249.547836 C 207.646118 249.547836 251.071884 212.466599 259.059998 162.100006 L 261.059998 162.410004 C 252.920944 213.755569 208.656647 251.56192 156.669998 251.570007 Z"/>
    <path id="path133" fill="#d8371d" stroke="none" d="M 261 126.690002 L 260.75 126.690002 L 259 126.690002 C 258.920013 126.139999 258.829987 125.580002 258.730011 125.029999 C 249.933624 75.539063 206.906586 39.485199 156.639999 39.485199 C 106.373421 39.485199 63.346382 75.539063 54.549999 125.029999 C 54.450001 125.580002 54.360001 126.139999 54.279999 126.690002 L 52.490002 126.690002 L 52.240002 126.690002 C 52.32 126.150009 52.41 125.610001 52.509998 125.069992 C 61.330715 74.469574 105.256516 37.538559 156.619995 37.538559 C 207.98349 37.538559 251.909286 74.469574 260.730011 125.069992 C 260.830017 125.610001 260.920013 126.150009 261 126.690002 Z"/>
    <path id="path134" fill="#d8371d" stroke="none" d="M 107.309998 202.919998 L 107.309998 202.5 C 107.309998 200.229996 106.510002 199.080002 105.010002 199.080002 C 104.268005 199.041138 103.569 199.429474 103.209999 200.080002 C 102.780266 200.957169 102.616875 201.94101 102.739998 202.910004 L 102.739998 209.449997 C 102.675667 210.435211 102.787415 211.423996 103.07 212.369995 C 103.380257 213.163254 104.158875 213.672958 105.010002 213.639999 C 106.131371 213.65094 107.076363 212.805649 107.190002 211.690002 C 107.337753 210.90239 107.398117 210.100861 107.370003 209.300003 L 110.440002 209.300003 L 110.440002 209.979996 C 110.440002 214.259995 108.580002 216.5 105.040001 216.5 C 103.288124 216.6185 101.609016 215.780853 100.650002 214.309998 C 99.910004 213.110001 99.650002 211.960007 99.650002 209.040009 L 99.650002 203.529999 C 99.650002 200.400009 99.889999 199.309998 100.800003 198.070007 C 101.807091 196.820496 103.358398 196.138062 104.959999 196.240005 C 108.32 196.240005 110.300003 198.479996 110.300003 202.350006 L 110.300003 202.940002 Z"/>
    <path id="path135" fill="#d8371d" stroke="none" d="M 116.68 216.180008 L 113.68 216.180008 L 113.68 196.520004 L 116.68 196.520004 Z"/>
    <path id="path136" fill="#d8371d" stroke="none" d="M 131.25 216.180008 L 128.529999 216.180008 L 123.230003 203.089996 L 123.230003 216.180008 L 120.339996 216.180008 L 120.339996 196.520004 L 123.400002 196.520004 L 128.399994 208.75 L 128.399994 196.520004 L 131.289993 196.520004 Z"/>
    <path id="path137" fill="#d8371d" stroke="none" d="M 142.270004 202.919998 L 142.270004 202.5 C 142.270004 200.229996 141.470001 199.080002 139.970001 199.080002 C 139.227448 199.038696 138.527222 199.427704 138.169998 200.080002 C 137.740265 200.957169 137.576874 201.94101 137.699997 202.910004 L 137.699997 209.449997 C 137.639008 210.434464 137.747253 211.422104 138.020004 212.369995 C 138.345749 213.15509 139.120239 213.659515 139.970001 213.639999 C 141.09137 213.65094 142.036362 212.805649 142.149994 211.690002 C 142.29776 210.90239 142.358124 210.100861 142.330002 209.300003 L 145.389999 209.300003 L 145.389999 209.979996 C 145.389999 214.259995 143.539993 216.5 140 216.5 C 138.247696 216.620651 136.567551 215.782501 135.610001 214.309998 C 134.869995 213.110001 134.610001 211.960007 134.610001 209.040009 L 134.610001 203.529999 C 134.610001 200.400009 134.850006 199.309998 135.759995 198.070007 C 136.76709 196.820496 138.318405 196.138062 139.919998 196.240005 C 143.279999 196.240005 145.259995 198.479996 145.259995 202.350006 L 145.259995 202.940002 Z"/>
    <path id="path138" fill="#d8371d" stroke="none" d="M 151.639999 216.180008 L 148.639999 216.180008 L 148.639999 196.520004 L 151.639999 196.520004 Z"/>
    <path id="path139" fill="#d8371d" stroke="none" d="M 166.199997 216.180008 L 163.490005 216.180008 L 158.190002 203.089996 L 158.190002 216.180008 L 155.300003 216.180008 L 155.300003 196.520004 L 158.360001 196.520004 L 163.360001 208.75 L 163.360001 196.520004 L 166.240005 196.520004 Z"/>
    <path id="path140" fill="#d8371d" stroke="none" d="M 180.740005 216.180008 L 178 216.180008 L 172.699997 203.089996 L 172.699997 216.180008 L 169.809998 216.180008 L 169.809998 196.520004 L 172.869995 196.520004 L 177.869995 208.75 L 177.869995 196.520004 L 180.759995 196.520004 Z"/>
    <path id="path141" fill="#d8371d" stroke="none" d="M 187.570007 211.910004 L 186.779999 216.180008 L 183.779999 216.180008 L 187.550003 196.520004 L 191.710007 196.520004 L 195.710007 216.180008 L 192.589996 216.180008 L 191.759995 211.910004 Z M 189.639999 200.290009 L 188.050003 209.110001 L 191.259995 209.110001 Z"/>
    <path id="path142" fill="#d8371d" stroke="none" d="M 203.199997 216.180008 L 200.199997 216.180008 L 200.199997 199.320007 L 196.399994 199.320007 L 196.399994 196.520004 L 207 196.520004 L 207 199.320007 L 203.199997 199.320007 Z"/>
    <path id="path143" fill="#d8371d" stroke="none" d="M 212.839996 216.180008 L 209.839996 216.180008 L 209.839996 196.520004 L 212.839996 196.520004 Z"/>
    <path id="path144" fill="none" stroke="#d8371d" stroke-width="1.7" stroke-linecap="round" stroke-linejoin="round" d="M 232.679993 188.160004 L 81.949997 188.160004"/>
</svg>
