<svg id="Layer_1" data-name="Layer 1" xmlns="http://www.w3.org/2000/svg" viewBox="0 0 458.69 458.69"><defs><style>.cls-1{font-size:66.69px;letter-spacing:0.07em;}.cls-1,.cls-13{fill:#e51f39;}.cls-1,.cls-6{font-family:AlternateGotNo3D, Alternate Gothic No3 D;}.cls-2{letter-spacing:0.08em;}.cls-3{letter-spacing:0.08em;}.cls-4{letter-spacing:0.07em;}.cls-5{letter-spacing:0.07em;}.cls-6{font-size:122.19px;fill:#231f20;stroke:#231f20;stroke-miterlimit:10;stroke-width:1.07px;letter-spacing:0.03em;}.cls-7{letter-spacing:0.06em;}.cls-8{letter-spacing:0.09em;}.cls-9{letter-spacing:0.1em;}.cls-10{letter-spacing:0.06em;}.cls-11,.cls-12{fill:#211d1f;}.cls-12,.cls-14,.cls-15{stroke:#fff;stroke-linecap:round;stroke-linejoin:round;}.cls-12{stroke-width:2.14px;}.cls-14,.cls-15{fill:none;}.cls-14{stroke-width:3px;}.cls-15{stroke-width:3.22px;}.cls-16{fill:#fff;}</style></defs><text class="cls-1" transform="translate(97.37 182.65)">G<tspan class="cls-2" x="34.68" y="0">I</tspan><tspan class="cls-3" x="53.75" y="0">V</tspan><tspan x="88.1" y="0">E </tspan><tspan class="cls-4" x="132.78" y="0">B</tspan><tspan class="cls-5" x="167.66" y="0">A</tspan><tspan x="202.27" y="0">CK</tspan></text><text class="cls-6" transform="translate(46.97 281.61)">B<tspan class="cls-7" x="59.63" y="0">E</tspan><tspan class="cls-8" x="112.04" y="0">Y</tspan><tspan class="cls-9" x="176.56" y="0">ON</tspan><tspan class="cls-10" x="313.54" y="0">D</tspan></text><path class="cls-11" d="M278.65,275.36s6.13,3.36,12.07,0c5.06-2.87,9.15-11.2,8-16.08,0,0-1.9-11.29-5.53-4.59Z"/><path class="cls-12" d="M210.13,208.91S196.86,219,198.43,223.6a16.32,16.32,0,0,0,5.52,8Z"/><circle class="cls-13" cx="249.76" cy="240.53" r="48.99"/><path class="cls-14" d="M207.32,213.17c-6.77,15.36,1.61,30.92,16.39,35.59,15,4.73,31-1.92,42.53-11.56"/><text/><path class="cls-14" d="M220.22,209.11a15.05,15.05,0,0,0-1,11.39,14,14,0,0,0,4.81,7.07,15.87,15.87,0,0,0,12.06,2.63c5.41-.86,10.82-3.22,14.31-7.56,4.05-5,5.71-12.51,1.91-18.16C244.31,192.56,225.87,197.91,220.22,209.11Z"/><path class="cls-15" d="M197.69,247.25c14.05,37.34,64.5,31.77,85.42,10.52a58.88,58.88,0,0,0,8.2-10.52"/><path class="cls-14" d="M249.9,193s21.15-1.44,26.55,20.55"/><path class="cls-14" d="M247.12,290.66c-17.36-14.86-22-44.49-19.48-64.57,1.52-12.3,11.73-33.54,26.82-33.19"/><path class="cls-11" d="M254.73,216.12l38.4-5.84-2.47,5.84c.16-.38,7.06,3.9,7.44,4.17a29,29,0,0,1,10.76,14.45c4.27,13.63-2.67,27.44-12.37,36.84,0,0,9.43-15.94-18.18-29.19L274,251.82Z"/><path class="cls-16" d="M296.49,272.65a1.1,1.1,0,0,1-.66-.23,1.07,1.07,0,0,1-.26-1.38,14,14,0,0,0,.74-10.48c-1.93-6.29-7.81-11.91-17.48-16.73L275,252.26a1.08,1.08,0,0,1-.93.63,1,1,0,0,1-1-.56l-19.31-35.7a1.08,1.08,0,0,1,0-1,1.1,1.1,0,0,1,.8-.58l38.4-5.84a1.07,1.07,0,0,1,1.14,1.48l-2.05,4.85c.09-.22,6,3.43,6.35,3.7a33,33,0,0,1,8,8.11,27.28,27.28,0,0,1,4.64,13.19,34.47,34.47,0,0,1-.89,11.84,39.32,39.32,0,0,1-6.32,12.46,61.08,61.08,0,0,1-6.6,7.5A1.08,1.08,0,0,1,296.49,272.65Zm-18.18-31.33a1.11,1.11,0,0,1,.46.11c10.84,5.2,17.44,11.45,19.6,18.57a16.75,16.75,0,0,1,.55,7.51c.89-1,1.75-2,2.56-3.09s1.43-1.94,2.09-2.95,1.14-1.83,1.65-2.78.89-1.7,1.28-2.57.67-1.56.95-2.35.47-1.39.67-2.1.31-1.22.43-1.83.18-1,.25-1.53.08-.81.11-1.21,0-.57,0-.86c0-.58,0-1.15,0-1.72s0-1,.05-1.48c0-.93-.05-1.87-.14-2.8s-.22-1.76-.39-2.62-.38-1.64-.63-2.45-.52-1.52-.83-2.26-.64-1.42-1-2.1-.73-1.3-1.14-1.93-.82-1.19-1.26-1.76-.88-1.09-1.35-1.61-.92-1-1.4-1.45-.94-.89-1.43-1.31-.93-.78-1.42-1.15-.91-.69-1.38-1-.88-.6-1.33-.88-.81-.5-1.23-.74-.73-.41-1.1-.61l-1-.48c-.25-.12-.51-.25-.77-.36s-.37-.17-.56-.24l-.32-.13-.07,0a1.07,1.07,0,0,1-.61-.57,1.09,1.09,0,0,1,0-.85l1.73-4.08-35,5.33L274,249.42l3.38-7.47a1.05,1.05,0,0,1,.61-.56A.94.94,0,0,1,278.31,241.32Z"/><path class="cls-12" d="M198.37,223.45a34,34,0,0,1,9.42-19.7s11.84-7,22,3.29C229.76,207,213.64,205.32,198.37,223.45Z"/></svg>