<svg width="324" height="241" viewBox="0 0 324 241" xmlns="http://www.w3.org/2000/svg" xmlns:xlink="http://www.w3.org/1999/xlink">
    <path id="CK" fill="#d8371d" fill-rule="evenodd" stroke="none" d="M 144.323532 167.490692 L 144.323532 174.324219 L 148.012421 167.490692 L 150.757935 167.490692 L 147.262558 173.489685 L 151.253815 184 L 148.45993 184 L 145.678146 176.210999 L 144.323532 178.521088 L 144.323532 184 L 141.759445 184 L 141.759445 167.490692 Z M 139.03862 172.860748 L 136.486633 172.860748 C 136.486633 172.70755 136.486633 172.594666 136.486633 172.522095 C 136.486633 170.603058 135.841583 169.643555 134.551483 169.643555 C 133.849976 169.643555 133.346039 169.913666 133.039642 170.453903 C 132.854187 170.792557 132.741302 171.155396 132.700989 171.542435 C 132.668732 171.91333 132.652603 172.340683 132.652603 172.824463 L 132.652603 178.315475 C 132.652603 179.468506 132.745331 180.290955 132.930786 180.782806 C 133.204941 181.492371 133.757248 181.847137 134.587769 181.847137 C 135.902069 181.847137 136.559204 180.766693 136.559204 178.605743 C 136.559204 178.509003 136.559204 178.371918 136.559204 178.194534 L 139.111191 178.194534 C 139.119247 178.476746 139.123291 178.682343 139.123291 178.811371 C 139.123291 180.407867 138.800766 181.673767 138.155701 182.6091 C 137.397766 183.697632 136.208466 184.241898 134.587769 184.241898 C 132.8703 184.241898 131.636658 183.629105 130.88678 182.403503 C 130.491684 181.76651 130.257858 181.060989 130.185287 180.286926 C 130.120773 179.641861 130.088531 178.867813 130.088531 177.964737 L 130.088531 173.356644 C 130.088531 171.776245 130.189316 170.679688 130.3909 170.066864 C 130.745667 168.970276 131.390717 168.1922 132.32605 167.73259 C 132.9711 167.410065 133.712906 167.24881 134.551483 167.24881 C 135.954468 167.24881 137.047028 167.680176 137.829147 168.542938 C 138.643539 169.446014 139.05072 170.707886 139.05072 172.328583 C 139.05072 172.457611 139.046692 172.634979 139.03862 172.860748 Z"/>
    <path id="A-" fill="#d8371d" fill-rule="evenodd" stroke="none" d="M 124.353592 180.407867 L 120.83403 180.407867 L 120.168816 184 L 117.665207 184 L 120.83403 167.490692 L 124.341499 167.490692 L 127.679642 184 L 125.055084 184 Z M 123.918182 178.049393 L 122.563576 170.659515 L 121.245247 178.049393 Z"/>
    <path id="B-" fill="#d8371d" fill-rule="evenodd" stroke="none" d="M 107.257851 184 L 107.257851 167.490692 L 111.079788 167.490692 C 112.531158 167.490692 113.676117 167.821289 114.514687 168.482468 C 115.45002 169.224274 115.917679 170.292633 115.917679 171.687561 C 115.917679 172.776093 115.603218 173.654968 114.974289 174.324219 C 114.571129 174.7677 113.978493 175.106354 113.196365 175.340179 C 114.05912 175.590134 114.708199 175.90863 115.143616 176.295654 C 115.917679 176.98909 116.30471 177.996979 116.30471 179.319336 C 116.30471 180.786835 115.845116 181.95195 114.925911 182.814713 C 114.079269 183.604904 112.906097 184 111.406342 184 Z M 109.82193 174.203278 L 110.753227 174.203278 C 111.551483 174.203278 112.180405 173.985565 112.640007 173.550156 C 113.091545 173.122803 113.317307 172.566452 113.317307 171.881073 C 113.317307 171.252151 113.107666 170.748215 112.688385 170.369232 C 112.30941 170.022522 111.680496 169.849167 110.801605 169.849167 L 109.82193 169.849167 Z M 109.82193 181.641525 L 111.103973 181.641525 C 111.958672 181.641525 112.595657 181.427856 113.014938 181.000504 C 113.442291 180.565094 113.65596 180.004715 113.65596 179.319336 C 113.65596 178.545273 113.410042 177.900238 112.918182 177.384186 C 112.410202 176.835876 111.68856 176.561737 110.753227 176.561737 L 109.82193 176.561737 Z"/>
    <path id="E-" fill="#d8371d" fill-rule="evenodd" stroke="none" d="M 99.744484 167.490692 L 99.744484 169.849167 L 94.82193 169.849167 L 94.82193 174.191177 L 98.450348 174.191177 L 98.450348 176.549652 L 94.82193 176.549652 L 94.82193 181.641525 L 99.744484 181.641525 L 99.744484 184 L 92.257851 184 L 92.257851 167.490692 Z"/>
    <path id="V-" fill="#d8371d" fill-rule="evenodd" stroke="none" d="M 87.123795 184 L 83.954979 184 L 80.411224 167.490692 L 83.047874 167.490692 L 85.539383 180.045029 L 87.716438 167.490692 L 90.30471 167.490692 Z"/>
    <path id="I-" fill="#d8371d" fill-rule="evenodd" stroke="none" d="M 77.82193 167.490692 L 77.82193 184 L 75.257851 184 L 75.257851 167.490692 Z"/>
    <path id="G-" fill="#d8371d" fill-rule="evenodd" stroke="none" d="M 67.45472 175.799774 L 72.111191 175.799774 L 72.111191 184 L 70.780769 184 L 70.333267 182.597015 C 69.986549 183.064682 69.643867 183.415421 69.305214 183.649261 C 68.716599 184.044342 68.023178 184.241898 67.224922 184.241898 C 66.46698 184.241898 65.787666 184.070557 65.186958 183.727875 C 64.58625 183.385178 64.12867 182.911469 63.814209 182.306732 C 63.467491 181.637497 63.257851 180.911819 63.185284 180.129684 C 63.120777 179.468506 63.088524 178.7267 63.088524 177.904266 L 63.088524 173.356644 C 63.088524 171.776245 63.189312 170.679688 63.390892 170.066864 C 63.73761 168.978348 64.38266 168.200256 65.32605 167.73259 C 65.979172 167.410065 66.72097 167.24881 67.551483 167.24881 C 69.389885 167.24881 70.688042 167.982544 71.445984 169.450043 C 71.849144 170.224121 72.046684 171.360992 72.03862 172.860748 L 69.474541 172.860748 C 69.474541 171.885101 69.377785 171.175568 69.184265 170.732086 C 68.86174 170.006409 68.313454 169.643555 67.539383 169.643555 C 66.821762 169.643555 66.313789 169.925766 66.01545 170.490189 C 65.838058 170.828842 65.733238 171.191681 65.700989 171.578705 C 65.668732 171.941559 65.652611 172.368896 65.652611 172.860748 L 65.652611 177.904266 C 65.652611 179.137924 65.745331 180.032928 65.930786 180.589294 C 66.204933 181.427856 66.781441 181.847137 67.660332 181.847137 C 68.402145 181.847137 68.918182 181.516556 69.208458 180.855377 C 69.434227 180.347382 69.547112 179.585434 69.547112 178.569473 L 69.547112 177.904266 L 67.45472 177.904266 Z"/>
    <path id="I" fill="#4d4d4d" fill-rule="evenodd" stroke="none" d="M 256.82193 167.490692 L 256.82193 184 L 254.257858 184 L 254.257858 167.490692 Z"/>
    <path id="T-" fill="#4d4d4d" fill-rule="evenodd" stroke="none" d="M 247.938507 169.849167 L 247.938507 184 L 245.374435 184 L 245.374435 169.849167 L 242.169327 169.849167 L 242.169327 167.490692 L 251.131516 167.490692 L 251.131516 169.849167 Z"/>
    <path id="path1" fill="#4d4d4d" fill-rule="evenodd" stroke="none" d="M 238.353592 180.407867 L 234.83403 180.407867 L 234.168823 184 L 231.665207 184 L 234.83403 167.490692 L 238.341492 167.490692 L 241.679642 184 L 239.055084 184 Z M 237.918182 178.049393 L 236.563568 170.659515 L 235.245255 178.049393 Z"/>
    <path id="N-" fill="#4d4d4d" fill-rule="evenodd" stroke="none" d="M 229.413559 167.490692 L 229.413559 184 L 227.115555 184 L 222.688889 173.01799 L 222.688889 184 L 220.257858 184 L 220.257858 167.490692 L 222.82193 167.490692 L 226.982513 177.759125 L 226.982513 167.490692 Z"/>
    <path id="CINCIN-" fill="#4d4d4d" fill-rule="evenodd" stroke="none" d="M 216.685562 167.490692 L 216.685562 184 L 214.387573 184 L 209.960892 173.01799 L 209.960892 184 L 207.529861 184 L 207.529861 167.490692 L 210.093933 167.490692 L 214.254532 177.759125 L 214.254532 167.490692 Z M 204.530853 167.490692 L 204.530853 184 L 201.966766 184 L 201.966766 167.490692 Z M 199.258026 172.860748 L 196.706039 172.860748 C 196.706039 172.70755 196.706039 172.594666 196.706039 172.522095 C 196.706039 170.603058 196.061005 169.643555 194.770889 169.643555 C 194.069397 169.643555 193.565445 169.913666 193.259048 170.453903 C 193.073593 170.792557 192.960709 171.155396 192.920395 171.542435 C 192.888138 171.91333 192.872009 172.340683 192.872009 172.824463 L 192.872009 178.315475 C 192.872009 179.468506 192.964737 180.290955 193.150192 180.782806 C 193.424347 181.492371 193.976669 181.847137 194.807175 181.847137 C 196.121475 181.847137 196.77861 180.766693 196.77861 178.605743 C 196.77861 178.509003 196.77861 178.371918 196.77861 178.194534 L 199.330597 178.194534 C 199.338669 178.476746 199.342697 178.682343 199.342697 178.811371 C 199.342697 180.407867 199.020172 181.673767 198.375122 182.6091 C 197.617172 183.697632 196.427872 184.241898 194.807175 184.241898 C 193.089706 184.241898 191.856064 183.629105 191.106186 182.403503 C 190.71109 181.76651 190.477264 181.060989 190.404694 180.286926 C 190.340179 179.641861 190.307938 178.867813 190.307938 177.964737 L 190.307938 173.356644 C 190.307938 171.776245 190.408722 170.679688 190.610306 170.066864 C 190.965088 168.970276 191.610123 168.1922 192.545456 167.73259 C 193.190506 167.410065 193.932312 167.24881 194.770889 167.24881 C 196.173889 167.24881 197.266434 167.680176 198.048553 168.542938 C 198.862946 169.446014 199.270126 170.707886 199.270126 172.328583 C 199.270126 172.457611 199.266098 172.634979 199.258026 172.860748 Z M 187.466156 167.490692 L 187.466156 184 L 185.168152 184 L 180.741486 173.01799 L 180.741486 184 L 178.310455 184 L 178.310455 167.490692 L 180.874527 167.490692 L 185.03511 177.759125 L 185.03511 167.490692 Z M 175.311447 167.490692 L 175.311447 184 L 172.74736 184 L 172.74736 167.490692 Z M 170.03862 172.860748 L 167.486633 172.860748 C 167.486633 172.70755 167.486633 172.594666 167.486633 172.522095 C 167.486633 170.603058 166.841583 169.643555 165.551483 169.643555 C 164.849976 169.643555 164.346039 169.913666 164.039642 170.453903 C 163.854187 170.792557 163.741302 171.155396 163.700989 171.542435 C 163.668732 171.91333 163.652603 172.340683 163.652603 172.824463 L 163.652603 178.315475 C 163.652603 179.468506 163.745331 180.290955 163.930786 180.782806 C 164.204941 181.492371 164.757248 181.847137 165.587769 181.847137 C 166.902069 181.847137 167.559204 180.766693 167.559204 178.605743 C 167.559204 178.509003 167.559204 178.371918 167.559204 178.194534 L 170.111191 178.194534 C 170.119247 178.476746 170.123291 178.682343 170.123291 178.811371 C 170.123291 180.407867 169.800766 181.673767 169.155701 182.6091 C 168.397766 183.697632 167.208466 184.241898 165.587769 184.241898 C 163.8703 184.241898 162.636658 183.629105 161.88678 182.403503 C 161.491684 181.76651 161.257858 181.060989 161.185287 180.286926 C 161.120773 179.641861 161.088531 178.867813 161.088531 177.964737 L 161.088531 173.356644 C 161.088531 171.776245 161.189316 170.679688 161.3909 170.066864 C 161.745667 168.970276 162.390717 168.1922 163.32605 167.73259 C 163.9711 167.410065 164.712906 167.24881 165.551483 167.24881 C 166.954468 167.24881 168.047028 167.680176 168.829147 168.542938 C 169.643539 169.446014 170.05072 170.707886 170.05072 172.328583 C 170.05072 172.457611 170.046692 172.634979 170.03862 172.860748 Z"/>
    <path id="path2" fill="#4d4d4d" fill-rule="evenodd" stroke="none" d="M 65.456207 146.066956 L 65.456207 148 L 63.700508 148 L 63.700508 146.066956 Z"/>
    <path id="t-" fill="#4d4d4d" fill-rule="evenodd" stroke="none" d="M 62.735077 138.982071 L 62.735077 140.498352 L 61.192188 140.498352 L 61.192188 145.304382 C 61.192188 145.765472 61.277905 146.093552 61.449337 146.288635 C 61.62077 146.483704 61.886784 146.581253 62.247383 146.581253 C 62.43655 146.581253 62.652317 146.545776 62.894688 146.474854 L 62.894688 148 C 62.480885 148.082764 62.099598 148.124146 61.75082 148.124146 C 60.893654 148.124146 60.281826 147.899506 59.915314 147.450226 C 59.708412 147.20195 59.587227 146.900467 59.551758 146.545776 C 59.516289 146.256119 59.498554 145.901428 59.498554 145.48172 L 59.498554 140.498352 L 58.19508 140.498352 L 58.19508 138.982071 L 59.498554 138.982071 L 59.498554 136.499268 L 61.192188 136.499268 L 61.192188 138.982071 Z"/>
    <path id="s-" fill="#4d4d4d" fill-rule="evenodd" stroke="none" d="M 56.065155 140.977188 L 54.531132 141.651093 C 54.371521 141.237289 54.206005 140.938766 54.034569 140.755508 C 53.786289 140.483582 53.48185 140.347626 53.12125 140.347626 C 52.884792 140.347626 52.689713 140.406738 52.536015 140.524963 C 52.335026 140.67865 52.234531 140.885559 52.234531 141.14566 C 52.234531 141.417603 52.361626 141.659958 52.615822 141.872772 C 52.804989 142.026474 53.189228 142.262939 53.768555 142.582153 C 54.667099 143.0728 55.275974 143.480682 55.595196 143.805817 C 56.020821 144.243271 56.233631 144.813721 56.233631 145.517181 C 56.233631 146.285675 55.988308 146.918198 55.497658 147.414764 C 54.989269 147.923157 54.306503 148.177338 53.449337 148.177338 C 52.533054 148.177338 51.785263 147.861084 51.205936 147.228546 C 50.868984 146.862045 50.588192 146.335938 50.363556 145.650192 L 51.941914 145.091553 C 52.089703 145.546753 52.246353 145.880737 52.411877 146.093552 C 52.689716 146.454163 53.038486 146.63446 53.458202 146.63446 C 53.72422 146.63446 53.945896 146.557602 54.123241 146.4039 C 54.318321 146.232483 54.415859 146.007843 54.415859 145.730011 C 54.415859 145.452164 54.303543 145.206848 54.078907 144.994019 C 53.895649 144.816681 53.5853 144.606827 53.14785 144.364456 C 52.373447 143.938828 51.870979 143.640289 51.64043 143.468872 C 50.883759 142.889542 50.505428 142.171295 50.505428 141.314148 C 50.505428 140.592941 50.756664 139.992935 51.25914 139.514099 C 51.755707 139.041183 52.385269 138.804718 53.14785 138.804718 C 54.542961 138.804718 55.515388 139.52887 56.065155 140.977188 Z"/>
    <path id="e-" fill="#4d4d4d" fill-rule="evenodd" stroke="none" d="M 49.322304 143.761475 L 45.420742 143.761475 L 45.420742 144.577271 C 45.420742 145.345764 45.49168 145.868927 45.633556 146.146759 C 45.804989 146.471893 46.115337 146.63446 46.56461 146.63446 C 47.291721 146.63446 47.655273 146.137894 47.655273 145.144775 C 47.655273 145.091553 47.655273 145.002899 47.655273 144.878754 L 49.348907 144.878754 C 49.348907 145.056091 49.348907 145.183197 49.348907 145.26004 C 49.348907 146.199966 49.139053 146.903412 48.719337 147.370422 C 48.234592 147.908386 47.516357 148.177338 46.56461 148.177338 C 45.518276 148.177338 44.761616 147.861084 44.294609 147.228546 C 44.046326 146.897522 43.889675 146.528046 43.82465 146.120148 C 43.759621 145.724091 43.727108 145.280731 43.727108 144.79007 L 43.727108 142.094452 C 43.727108 141.172272 43.818737 140.524963 44.001991 140.152542 C 44.439442 139.253998 45.275906 138.804718 46.511406 138.804718 C 47.433598 138.804718 48.142967 139.082565 48.63953 139.638245 C 48.941017 139.969284 49.13018 140.347626 49.207031 140.773239 C 49.283882 141.192963 49.322304 141.692474 49.322304 142.27179 Z M 47.628674 142.28067 L 47.628674 141.792969 C 47.628674 141.296402 47.554779 140.932861 47.406994 140.702301 C 47.235558 140.424469 46.939987 140.285553 46.520275 140.285553 C 46.106468 140.285553 45.810898 140.424469 45.633556 140.702301 C 45.49168 140.932861 45.420742 141.296402 45.420742 141.792969 L 45.420742 142.28067 Z"/>
    <path id="2000" fill="#4d4d4d" fill-rule="evenodd" stroke="none" d="M 277.200562 140.744659 L 277.200562 145.151642 C 277.200562 145.837372 277.151794 146.400436 277.05426 146.840851 C 276.956726 147.28125 276.795654 147.672882 276.571014 148.015747 C 276.050781 148.790146 275.246857 149.177338 274.159119 149.177338 C 273.071411 149.177338 272.270416 148.790146 271.756134 148.015747 C 271.330505 147.377304 271.117676 146.422607 271.117676 145.151642 L 271.117676 140.744659 C 271.117676 140.064819 271.166443 139.503235 271.264008 139.059875 C 271.361542 138.616516 271.525574 138.223419 271.756134 137.880554 C 272.270416 137.10614 273.071411 136.718948 274.159119 136.718948 C 275.246857 136.718948 276.050781 137.10614 276.571014 137.880554 C 276.842926 138.294342 277.017334 138.755432 277.094177 139.263824 C 277.1651 139.719009 277.200562 140.212616 277.200562 140.744659 Z M 272.873383 140.372223 L 272.873383 145.524063 C 272.873383 146.038361 272.894073 146.381226 272.935455 146.552658 C 273.100983 147.191101 273.508881 147.510315 274.159119 147.510315 C 274.661621 147.510315 275.016296 147.321136 275.223206 146.94281 C 275.341431 146.729996 275.409393 146.508331 275.427124 146.277771 C 275.438965 146.094513 275.444885 145.843292 275.444885 145.524063 L 275.444885 140.372223 C 275.444885 139.85202 275.424194 139.509155 275.382813 139.343628 C 275.217285 138.7052 274.809387 138.385986 274.159119 138.385986 C 273.656647 138.385986 273.301971 138.575134 273.095062 138.953476 C 272.976837 139.16629 272.908844 139.38797 272.891113 139.618515 C 272.879303 139.807678 272.873383 140.058914 272.873383 140.372223 Z M 269.388947 140.744659 L 269.388947 145.151642 C 269.388947 145.837372 269.340179 146.400436 269.242645 146.840851 C 269.145081 147.28125 268.984009 147.672882 268.759369 148.015747 C 268.239166 148.790146 267.435211 149.177338 266.347504 149.177338 C 265.259766 149.177338 264.458771 148.790146 263.944489 148.015747 C 263.51886 147.377304 263.306061 146.422607 263.306061 145.151642 L 263.306061 140.744659 C 263.306061 140.064819 263.354828 139.503235 263.452362 139.059875 C 263.549896 138.616516 263.713928 138.223419 263.944489 137.880554 C 264.458771 137.10614 265.259766 136.718948 266.347504 136.718948 C 267.435211 136.718948 268.239166 137.10614 268.759369 137.880554 C 269.031311 138.294342 269.205688 138.755432 269.282532 139.263824 C 269.353485 139.719009 269.388947 140.212616 269.388947 140.744659 Z M 265.061737 140.372223 L 265.061737 145.524063 C 265.061737 146.038361 265.082428 146.381226 265.12381 146.552658 C 265.289337 147.191101 265.697235 147.510315 266.347504 147.510315 C 266.849976 147.510315 267.204651 147.321136 267.41156 146.94281 C 267.529785 146.729996 267.597778 146.508331 267.615509 146.277771 C 267.627319 146.094513 267.63324 145.843292 267.63324 145.524063 L 267.63324 140.372223 C 267.63324 139.85202 267.612549 139.509155 267.571167 139.343628 C 267.40564 138.7052 266.997772 138.385986 266.347504 138.385986 C 265.845032 138.385986 265.490326 138.575134 265.283417 138.953476 C 265.165192 139.16629 265.097229 139.38797 265.079498 139.618515 C 265.067657 139.807678 265.061737 140.058914 265.061737 140.372223 Z M 261.577301 140.744659 L 261.577301 145.151642 C 261.577301 145.837372 261.528534 146.400436 261.431 146.840851 C 261.333466 147.28125 261.172363 147.672882 260.947723 148.015747 C 260.427521 148.790146 259.623566 149.177338 258.535858 149.177338 C 257.448151 149.177338 256.647156 148.790146 256.132843 148.015747 C 255.707214 147.377304 255.494415 146.422607 255.494415 145.151642 L 255.494415 140.744659 C 255.494415 140.064819 255.543182 139.503235 255.640717 139.059875 C 255.738266 138.616516 255.902298 138.223419 256.132843 137.880554 C 256.647156 137.10614 257.448151 136.718948 258.535858 136.718948 C 259.623566 136.718948 260.427521 137.10614 260.947723 137.880554 C 261.219666 138.294342 261.394043 138.755432 261.470886 139.263824 C 261.54184 139.719009 261.577301 140.212616 261.577301 140.744659 Z M 257.250122 140.372223 L 257.250122 145.524063 C 257.250122 146.038361 257.270813 146.381226 257.312195 146.552658 C 257.477692 147.191101 257.88559 147.510315 258.535858 147.510315 C 259.03833 147.510315 259.393005 147.321136 259.599915 146.94281 C 259.71814 146.729996 259.786133 146.508331 259.803864 146.277771 C 259.815674 146.094513 259.821594 145.843292 259.821594 145.524063 L 259.821594 140.372223 C 259.821594 139.85202 259.800903 139.509155 259.759521 139.343628 C 259.593994 138.7052 259.186127 138.385986 258.535858 138.385986 C 258.033386 138.385986 257.678711 138.575134 257.471802 138.953476 C 257.353577 139.16629 257.285583 139.38797 257.267853 139.618515 C 257.256012 139.807678 257.250122 140.058914 257.250122 140.372223 Z M 253.490784 147.368439 L 253.490784 149 L 247.594101 149 L 247.594101 147.368439 C 249.166565 145.311249 250.209915 143.892502 250.724213 143.112183 C 251.232605 142.337784 251.566605 141.699341 251.726212 141.196869 C 251.856262 140.783081 251.921295 140.351532 251.921295 139.902267 C 251.921295 138.885498 251.528183 138.377106 250.741959 138.377106 C 250.357712 138.377106 250.053268 138.513062 249.828629 138.785004 C 249.586258 139.080566 249.465073 139.500275 249.465073 140.044144 C 249.465073 140.138733 249.468033 140.262863 249.473938 140.416565 L 247.718246 140.416565 C 247.718246 139.949554 247.735977 139.568268 247.771439 139.272705 C 247.883759 138.36824 248.273911 137.691376 248.94191 137.242111 C 249.462128 136.893341 250.082825 136.718948 250.804016 136.718948 C 251.702576 136.718948 252.417847 136.999725 252.94989 137.561325 C 253.475998 138.122925 253.739059 138.909134 253.739059 139.919998 C 253.739059 140.682587 253.582413 141.412643 253.269104 142.110199 C 252.949875 142.81366 252.228683 143.913177 251.105515 145.408783 C 250.44342 146.283691 249.952774 146.93689 249.63356 147.368439 Z"/>
    <path id="Path" fill="#d8371d" stroke="none" d="M 124.260002 124.260002 L 124.260002 125.540001 L 125.879997 125.540001 L 125.879997 124.260002 Z M 129.75 112.259995 C 129.629074 110.801529 128.38707 109.693253 126.924294 109.738556 C 125.46151 109.783844 124.290459 110.966843 124.260002 112.429993 L 124.260002 112.509995 L 124.370003 112.139999 C 124.467247 111.799911 124.776299 111.564056 125.129997 111.559998 L 125.129997 111.559998 C 125.478203 111.558762 125.788231 111.780212 125.900002 112.110001 L 125.900002 112.110001 C 126.062874 111.575699 126.588875 111.238113 127.142456 111.312576 C 127.696037 111.387054 128.11412 111.851654 128.130005 112.410004 L 128.130005 117.860001 L 126.129997 117.860001 L 126.660004 119.470001 L 128.169998 119.470001 L 128.169998 124.040001 L 128.229996 124.230003 L 128.229996 114.639999 L 129.789993 114.639999 L 129.789993 112.23999 Z M 135.399994 115.419998 L 134.240005 115.419998 L 134.240005 116.989998 L 134.550003 117.860001 L 134.240005 117.860001 L 134.240005 118.220001 L 135.850006 118.220001 L 135.850006 116.690002 Z M 139.860001 116.5 L 139.860001 116.5 C 139.360947 116.723183 138.879562 116.983932 138.419998 117.279999 L 138.889999 117.860001 L 137.600006 117.860001 C 137.001343 118.328598 136.469727 118.877029 136.020004 119.489998 L 138.179993 119.489998 C 138.978928 118.761826 139.908676 118.191757 140.919998 117.809998 Z M 141.800003 118.910004 C 141.265503 119.031212 140.750534 119.226425 140.270004 119.489998 L 142.270004 119.489998 Z M 135.369995 113.510002 L 136.559998 112.410004 L 135.559998 111.149994 L 132.559998 107.419998 L 132.559998 107.020004 L 131.179993 107.020004 L 131.179993 105.160004 L 129.559998 105.160004 L 129.559998 107.020004 L 124.459999 107.020004 L 124.459999 105.160004 L 122.839996 105.160004 L 122.839996 107.020004 L 121.519997 107.020004 L 121.519997 107.550003 L 112.290001 118.989998 L 102.959999 107.419998 L 102.959999 107.020004 L 101.57 107.020004 L 101.57 105.160004 L 99.93 105.160004 L 99.93 107.020004 L 94.830002 107.020004 L 94.830002 105.160004 L 93.209999 105.160004 L 93.209999 107.020004 L 91.889999 107.020004 L 91.889999 107.539993 L 82.25 119.540001 L 91.889999 119.540001 L 91.889999 125.709999 L 93.510002 125.709999 L 93.510002 119.540001 L 94.639999 119.540001 L 94.639999 125.709999 L 96.25 125.709999 L 96.25 119.529999 L 98.550003 119.529999 L 98.550003 125.529999 L 100.160004 125.529999 L 100.160004 119.529999 L 101.309998 119.529999 L 101.309998 125.700005 L 102.93 125.700005 L 102.93 119.529999 L 121.489998 119.529999 L 121.489998 125.529999 L 123.110001 125.529999 L 123.110001 124.340004 L 122.470001 124.340004 L 123.110001 122.169998 L 123.110001 119.529999 L 123.889999 119.529999 L 125.190002 115.120003 L 125.879997 117.220001 L 125.879997 112.470001 C 125.864914 112.37056 125.864914 112.269424 125.879997 112.169998 C 126.04287 111.635696 126.568878 111.298111 127.122452 111.372589 C 127.676033 111.447052 128.094116 111.911652 128.110001 112.470001 L 128.110001 117.919998 L 126.110001 117.919998 L 126.639999 119.529999 L 128.149994 119.529999 L 128.149994 124.040001 L 128.210007 124.230003 L 128.210007 124.230003 L 128.149994 124.230003 L 128.149994 125.419998 L 129.770004 125.419998 L 129.770004 119.419998 L 129.830002 119.419998 L 129.830002 117.840004 L 129.770004 117.840004 L 129.770004 112.220001 L 129.770004 112.220001 C 129.649078 110.76152 128.407074 109.653259 126.94429 109.698547 C 125.481514 109.743851 124.310455 110.926834 124.279999 112.389999 L 124.279999 117.840004 L 123.129997 117.840004 L 123.129997 108.589996 L 130.929993 108.589996 L 130.929993 116.220001 L 132.460007 116.220001 L 132.550003 116.139999 L 132.550003 112.199997 L 133.020004 113.510002 L 133.610001 115.160004 L 134.899994 113.959999 L 134.309998 112.309998 L 134.210007 112.039993 L 134.380005 112.23999 Z M 85.629997 117.840004 L 90.330002 112.009995 L 88.25 117.840004 Z M 89.970001 117.840004 L 91.889999 112.440002 L 91.889999 117.840004 Z M 93.510002 117.840004 L 93.510002 108.589996 L 94.650002 108.589996 L 94.650002 117.840004 Z M 96.269997 108.589996 L 98.550003 108.589996 L 98.550003 110.37999 C 98.197105 110.223953 97.815849 110.142258 97.43 110.139999 C 97.024757 110.141708 96.625015 110.233963 96.260002 110.410004 Z M 96.269997 117.840004 L 96.269997 112.839996 L 96.269997 112.839996 C 96.324776 112.259628 96.81205 111.816177 97.394997 111.816177 C 97.977943 111.816177 98.465225 112.259628 98.519997 112.839996 L 98.519997 117.840004 Z M 100.18 117.840004 L 100.18 112.839996 L 100.18 112.839996 C 100.18 112.839996 100.18 112.839996 100.18 112.770004 L 100.18 108.550003 L 101.330002 108.550003 L 101.330002 117.800003 Z M 102.949997 117.840004 L 102.949997 112.190002 L 104.949997 117.840004 Z M 106.68 117.840004 L 104.580002 112.039993 L 109.279999 117.849998 Z M 115.260002 117.840004 L 119.959999 112.009995 L 117.870003 117.840004 Z M 119.589996 117.840004 L 121.510002 112.449997 L 121.510002 117.840004 Z"/>
    <path id="path3" fill="#d8371d" stroke="none" d="M 154.580002 76.039993 L 153 76.039993 L 153 75.039993 C 153 70.5 154.529999 66.229996 157.080002 63.610001 C 158.537567 61.998291 160.588058 61.048859 162.759995 60.979996 L 162.809998 62.600006 L 162.809998 62.600006 C 161.073166 62.664398 159.437485 63.433487 158.279999 64.729996 C 156.009995 67.059998 154.660004 70.919998 154.660004 75.039993 Z"/>
    <path id="path4" fill="#d8371d" stroke="none" d="M 156.841965 64.324173 L 158.41478 63.936111 L 161.430725 76.159546 L 159.857895 76.547607 Z"/>
    <path id="path5" fill="#d8371d" stroke="none" d="M 155.839996 78.12999 L 155.839996 78.119995 L 157.460007 78.119995 L 155.839996 78.12999 Z"/>
    <path id="path6" fill="#d8371d" stroke="none" d="M 155.929993 76.039993 L 155.929993 75.959991 C 155.92691 75.401749 155.960312 74.843887 156.029999 74.289993 C 156.231659 72.083984 157.045578 69.97818 158.380005 68.209991 C 159.468491 66.737427 161.169876 65.842545 163 65.779999 L 163 67.399994 C 161.647461 67.460449 160.397644 68.138809 159.610001 69.23999 C 158.468002 70.773697 157.775497 72.595001 157.610001 74.5 C 157.557327 74.991577 157.530624 75.485596 157.529999 75.979996 Z"/>
    <path id="path7" fill="#d8371d" stroke="none" d="M 155.839996 78.12999 L 155.839996 78.119995 L 157.460007 78.119995 L 155.839996 78.12999 Z"/>
    <path id="path8" fill="#d8371d" stroke="none" d="M 151.169998 75.259995 L 151.169998 90.709991 L 157.570007 90.709991 L 157.570007 75.259995 Z M 152.779999 89.089996 L 152.779999 76.869995 L 156 76.869995 L 156 89.089996 Z"/>
    <path id="path9" fill="#d8371d" stroke="none" d="M 149.850006 89.089996 L 149.850006 112.089996 L 151.470001 113.590004 L 151.470001 90.709991 L 156 90.709991 L 156 116.220001 L 156.809998 116.220001 L 156.869995 116.220001 L 156.869995 134.860016 L 157.619995 134.860016 L 157.619995 89.089996 Z M 153.75 134.089996 C 153.654846 133.790863 153.498154 133.514954 153.289993 133.279999 L 151.470001 133.279999 L 151.470001 120.950005 C 151.243073 120.466042 150.971909 120.004082 150.660004 119.57 C 150.417542 119.215271 150.146652 118.880836 149.850006 118.57 L 149.850006 121.25 C 150.293076 122.056549 150.568588 122.944321 150.660004 123.860001 C 150.674713 124.063065 150.674713 124.266937 150.660004 124.470001 L 150.660004 132.470001 L 150.660004 132.470001 C 150.362854 132.559998 150.087219 132.709717 149.850006 132.910004 L 149.850006 134.850006 L 150.559998 134.850006 L 150.559998 134.850006 C 150.55925 134.516907 150.755402 134.214813 151.059998 134.079987 C 151.281296 133.973969 151.538712 133.973969 151.759995 134.079987 C 152.06459 134.214813 152.260742 134.516907 152.259995 134.850006 L 152.259995 134.850006 L 153.880005 134.850006 L 153.880005 134.850006 C 153.888077 134.574219 153.843964 134.299408 153.75 134.040009 Z M 150.699997 115.400002 L 150.699997 118.200005 L 151.470001 118.200005 L 151.470001 115.400002 Z"/>
    <path id="path10" fill="#d8371d" stroke="none" d="M 157.559998 82.970001 L 156 82.649994 C 156.316772 80.884125 157.054245 79.220551 158.149994 77.800003 C 159.081299 76.566803 160.433975 75.719604 161.949997 75.419998 L 161.949997 61.770004 L 163.570007 61.770004 L 163.570007 76.970001 L 162.759995 76.970001 C 161.419998 77.044785 160.186996 77.725708 159.410004 78.819992 C 158.467072 80.033539 157.832291 81.457504 157.559998 82.970001 Z"/>
    <path id="path11" fill="#d8371d" stroke="none" d="M 172.490005 76.039993 L 170.880005 76.039993 L 170.880005 75.039993 C 170.880005 70.919998 169.520004 67.039993 167.25 64.73999 C 166.09639 63.43692 164.459198 62.663498 162.720001 62.600006 L 162.720001 60.979996 C 164.909485 61.035339 166.980545 61.985931 168.449997 63.610001 C 171.009995 66.229996 172.529999 70.5 172.529999 75.039993 Z"/>
    <path id="path12" fill="#d8371d" stroke="none" d="M 164.026825 76.168945 L 167.038498 63.944473 L 168.61145 64.331985 L 165.599792 76.556458 Z"/>
    <path id="path13" fill="#d8371d" stroke="none" d="M 169.610001 78.12999 L 167.990005 78.12999 L 169.610001 78.119995 L 169.610001 78.12999 Z"/>
    <path id="path14" fill="#d8371d" stroke="none" d="M 167.910004 76.039993 C 167.914124 75.521912 167.884048 75.00412 167.820007 74.48999 C 167.661057 72.58046 166.967972 70.754181 165.820007 69.220001 C 165.047104 68.12764 163.81633 67.449615 162.479996 67.37999 L 162.429993 65.759995 L 162.429993 65.759995 C 164.270721 65.821243 165.981323 66.724472 167.070007 68.209991 C 168.409256 69.980164 169.226715 72.089615 169.429993 74.300003 C 169.491806 74.851151 169.521866 75.405396 169.520004 75.959991 Z"/>
    <path id="path15" fill="#d8371d" stroke="none" d="M 169.610001 78.12999 L 167.990005 78.12999 L 169.610001 78.119995 L 169.610001 78.12999 Z"/>
    <path id="path16" fill="#d8371d" stroke="none" d="M 167.889999 75.259995 L 167.889999 90.709991 L 174.289993 90.709991 L 174.289993 75.259995 Z M 169.5 89.089996 L 169.5 76.869995 L 172.679993 76.869995 L 172.679993 89.089996 Z"/>
    <path id="path17" fill="#d8371d" stroke="none" d="M 169.5 134.059998 L 167.880005 134.059998 L 167.880005 86.759995 L 156.759995 86.759995 L 156.759995 85.149994 L 169.5 85.149994 L 169.5 134.059998 Z"/>
    <path id="path18" fill="#d8371d" stroke="none" d="M 167.889999 90.709991 L 167.889999 134.040009 L 167.889999 134.040009 L 167.889999 104.520004 L 169.479996 104.520004 L 169.479996 90.709991 Z M 167.889999 89.089996 L 167.889999 134.869995 L 169.529999 134.869995 L 169.529999 133.26001 L 169.529999 133.26001 L 169.529999 90.709991 L 174 90.709991 L 174 106.139999 L 175.619995 106.139999 L 175.619995 89.139999 Z M 174.710007 132.160004 L 174.710007 134.869995 L 175.610001 134.869995 L 175.610001 132.160004 Z M 174.710007 126.830002 L 174.710007 130.140015 L 175.610001 130.140015 L 175.610001 126.830002 Z M 174.710007 121.32 L 174.710007 124.629997 L 175.610001 124.629997 L 175.610001 121.32 Z M 174.710007 115.910004 L 174.710007 119.220001 L 175.610001 119.220001 L 175.610001 115.910004 Z M 174.710007 110.580002 L 174.710007 113.889999 L 175.610001 113.889999 L 175.610001 110.580002 Z"/>
    <path id="path19" fill="#d8371d" stroke="none" d="M 167.899994 82.970001 C 167.633255 81.459427 167.005432 80.03569 166.070007 78.819992 C 165.296036 77.722321 164.061249 77.040421 162.720001 76.970001 L 161.919998 76.970001 L 161.919998 61.770004 L 163.529999 61.770004 L 163.529999 75.419998 C 165.047073 75.716919 166.40065 76.564682 167.330002 77.800003 C 168.429535 79.218292 169.167419 80.882843 169.479996 82.649994 Z"/>
    <path id="path20" fill="none" stroke="#cccccc" stroke-width="1.62" stroke-linecap="round" stroke-linejoin="round" d="M 226.300003 114.040001 C 226.720184 112.790939 227.98613 112.032715 229.285629 112.251801 C 230.585144 112.470871 231.532532 113.602219 231.520004 114.919998 C 231.523865 115.584175 231.273407 116.224648 230.820007 116.709999"/>
    <path id="path21" fill="none" stroke="#cccccc" stroke-width="1.62" stroke-linecap="round" stroke-linejoin="round" d="M 223.470001 116.730003 C 223.467331 116.018402 223.748825 115.335182 224.251999 114.832008 C 224.755188 114.328827 225.4384 114.047333 226.149994 114.050003 L 226.300003 114.050003 L 226.419998 113.770004"/>
    <path id="path22" fill="none" stroke="#cccccc" stroke-width="1.62" stroke-linecap="round" stroke-linejoin="round" d="M 233.309998 116.730003 L 230.820007 116.730003 L 231.009995 116.5"/>
    <path id="path23" fill="none" stroke="#cccccc" stroke-width="1.62" stroke-linecap="round" stroke-linejoin="round" d="M 224.270004 116.730003 L 221.669998 116.730003"/>
    <path id="path24" fill="none" stroke="#cccccc" stroke-width="1.62" stroke-linecap="round" stroke-linejoin="round" d="M 136.820007 83.199997 C 136.369598 82.709488 136.122894 82.065887 136.130005 81.399994 C 136.131958 80.093628 137.075531 78.979019 138.363647 78.761444 C 139.651764 78.543869 140.909088 79.286743 141.339996 80.520004"/>
    <path id="path25" fill="none" stroke="#cccccc" stroke-width="1.62" stroke-linecap="round" stroke-linejoin="round" d="M 141.229996 80.25 L 141.339996 80.520004 L 141.490005 80.520004 C 142.204254 80.517334 142.890015 80.799881 143.395065 81.304932 C 143.900116 81.809982 144.182663 82.495743 144.179993 83.209991"/>
    <path id="path26" fill="none" stroke="#cccccc" stroke-width="1.62" stroke-linecap="round" stroke-linejoin="round" d="M 136.630005 82.959991 L 136.820007 83.199997 L 134.330002 83.199997"/>
    <path id="path27" fill="none" stroke="#cccccc" stroke-width="1.62" stroke-linecap="round" stroke-linejoin="round" d="M 145.970001 83.199997 L 143.369995 83.199997"/>
    <path id="path28" fill="none" stroke="#cccccc" stroke-width="1.62" stroke-linecap="round" stroke-linejoin="round" d="M 191.279999 69.830002 C 191.279999 68.824844 192.094849 68.009995 193.100006 68.009995 C 194.105164 68.009995 194.919998 68.824844 194.919998 69.830002"/>
    <path id="path29" fill="none" stroke="#cccccc" stroke-width="1.62" stroke-linecap="round" stroke-linejoin="round" d="M 194.940002 69.830002 C 194.940002 68.824844 195.754837 68.009995 196.759995 68.009995 C 197.765152 68.009995 198.580002 68.824844 198.580002 69.830002"/>
    <path id="path30" fill="#d8371d" stroke="none" d="M 197.919998 106.679993 L 197.919998 123.889999 L 213.399994 123.889999 L 213.399994 106.679993 Z M 211.789993 122.270004 L 199.539993 122.270004 L 199.539993 108.270004 L 211.789993 108.270004 Z"/>
    <path id="path31" fill="#d8371d" stroke="none" d="M 198.449997 137.860016 L 198.449997 139.480011 L 200.059998 139.480011 L 200.059998 137.860016 Z M 196.649994 122.270004 L 196.649994 136.519989 L 197.460007 135.869995 L 197.820007 135.579987 L 198.270004 135.579987 L 198.270004 123.889999 L 212.910004 123.889999 L 212.910004 137.890015 L 209.710007 137.890015 L 209.710007 139.51001 L 214.529999 139.51001 L 214.529999 122.270004 Z M 205.220001 137.860016 L 205.220001 139.480011 L 206.839996 139.480011 L 206.839996 137.860016 Z"/>
    <path id="path32" fill="#d8371d" stroke="none" d="M 203.220001 106.529999 L 203.220001 106.679993 L 204.729996 106.679993 L 204.729996 106.529999 Z M 203.220001 106.529999 L 203.220001 106.679993 L 204.729996 106.679993 L 204.729996 106.529999 Z M 198.910004 99.470001 L 198.910004 108.149994 L 212.179993 108.149994 L 212.179993 99.470001 Z M 210.559998 101.039993 L 210.559998 106.48999 L 200.559998 106.48999 L 200.559998 101.039993 Z M 203.220001 106.48999 L 203.220001 106.639999 L 204.729996 106.639999 L 204.729996 106.48999 Z"/>
    <path id="path33" fill="#d8371d" stroke="none" d="M 196.330002 106.679993 L 214.740005 106.679993 L 214.740005 108.300003 L 196.330002 108.300003 Z"/>
    <path id="path34" fill="#d8371d" stroke="none" d="M 204.759995 83.610001 L 206.380005 83.610001 L 206.380005 86.229996 L 204.759995 86.229996 Z"/>
    <path id="path35" fill="none" stroke="#d8371d" stroke-width="1.62" stroke-linecap="round" stroke-linejoin="round" d="M 201.589996 110.009995 L 201.589996 112.459991"/>
    <path id="path36" fill="none" stroke="#d8371d" stroke-width="1.62" stroke-linecap="round" stroke-linejoin="round" d="M 204.289993 110.009995 L 204.289993 112.459991"/>
    <path id="path37" fill="none" stroke="#d8371d" stroke-width="1.62" stroke-linecap="round" stroke-linejoin="round" d="M 201.589996 113.950005 L 201.589996 116.400002"/>
    <path id="path38" fill="none" stroke="#d8371d" stroke-width="1.62" stroke-linecap="round" stroke-linejoin="round" d="M 204.289993 113.950005 L 204.289993 116.400002"/>
    <path id="path39" fill="none" stroke="#d8371d" stroke-width="1.62" stroke-linecap="round" stroke-linejoin="round" d="M 201.589996 117.950005 L 201.589996 120.400002"/>
    <path id="path40" fill="none" stroke="#d8371d" stroke-width="1.62" stroke-linecap="round" stroke-linejoin="round" d="M 204.289993 117.950005 L 204.289993 120.400002"/>
    <path id="path41" fill="none" stroke="#d8371d" stroke-width="1.62" stroke-linecap="round" stroke-linejoin="round" d="M 206.910004 110.009995 L 206.910004 112.459991"/>
    <path id="path42" fill="none" stroke="#d8371d" stroke-width="1.62" stroke-linecap="round" stroke-linejoin="round" d="M 209.619995 110.009995 L 209.619995 112.459991"/>
    <path id="path43" fill="none" stroke="#d8371d" stroke-width="1.62" stroke-linecap="round" stroke-linejoin="round" d="M 206.910004 113.950005 L 206.910004 116.400002"/>
    <path id="path44" fill="none" stroke="#d8371d" stroke-width="1.62" stroke-linecap="round" stroke-linejoin="round" d="M 209.619995 113.950005 L 209.619995 116.400002"/>
    <path id="path45" fill="none" stroke="#d8371d" stroke-width="1.62" stroke-linecap="round" stroke-linejoin="round" d="M 206.910004 117.950005 L 206.910004 120.400002"/>
    <path id="path46" fill="none" stroke="#d8371d" stroke-width="1.62" stroke-linecap="round" stroke-linejoin="round" d="M 209.619995 117.950005 L 209.619995 120.400002"/>
    <path id="path47" fill="#d8371d" stroke="none" d="M 200.460007 100.589996 L 198.970001 99.949997 L 203.320007 89.929993 L 208.009995 89.929993 L 212.119995 99.959991 L 210.619995 100.569992 L 206.919998 91.539993 L 204.380005 91.539993 L 200.460007 100.589996 Z"/>
    <path id="path48" fill="#d8371d" stroke="none" d="M 203.419998 85.429993 L 203.419998 91.039993 L 207.770004 91.039993 L 207.770004 85.429993 Z M 206.160004 87.039993 L 206.160004 89.37999 L 205 89.37999 L 205 87.039993 Z"/>
    <path id="path49" fill="#d8371d" stroke="none" d="M 201.600006 100.270004 L 203.220001 100.270004 L 203.220001 107.339996 L 201.600006 107.339996 Z"/>
    <path id="path50" fill="#d8371d" stroke="none" d="M 207.789993 100.270004 L 209.410004 100.270004 L 209.410004 107.339996 L 207.789993 107.339996 Z"/>
    <path id="path51" fill="#d8371d" stroke="none" d="M 204.729996 100.270004 L 206.350006 100.270004 L 206.350006 107.339996 L 204.729996 107.339996 Z"/>
    <path id="path52" fill="#d8371d" stroke="none" d="M 120.82 124.260002 L 120.82 152.040009 L 129.820007 152.040009 L 129.820007 124.260002 Z M 128.210007 150.399994 L 122.440002 150.399994 L 122.440002 125.879997 L 128.210007 125.879997 Z"/>
    <path id="path53" fill="#d8371d" stroke="none" d="M 129.830002 124.040001 L 129.830002 124.300003 C 129.82074 124.369431 129.800491 124.436943 129.770004 124.5 C 129.678391 124.705048 129.503845 124.861412 129.289993 124.93 C 128.873322 125.061646 128.428101 124.834579 128.289993 124.419998 L 128.240005 124.260002 L 128.240005 124.260002 L 128.179993 124.07 L 126.669998 119.470001 L 126.139999 117.860001 L 125.910004 117.160004 L 125.220001 115.059998 L 123.919998 119.470001 L 123.139999 122.110001 L 122.5 124.279999 L 122.440002 124.480003 C 122.41346 124.557976 122.376457 124.631981 122.330002 124.700005 C 122.179192 124.922585 121.928848 125.057098 121.660004 125.059998 C 121.613785 125.06916 121.566216 125.06916 121.519997 125.059998 L 121.43 125.059998 C 121.10041 124.959671 120.868683 124.664017 120.849998 124.32 L 120.849998 124.32 C 120.835625 124.237289 120.835625 124.152718 120.849998 124.07 L 121.480003 121.93 L 123.099998 116.440002 L 124.25 112.529999 L 124.360001 112.160004 C 124.457253 111.819901 124.766304 111.584045 125.120003 111.580002 L 125.120003 111.580002 C 125.468201 111.578766 125.778229 111.800217 125.889999 112.12999 L 125.889999 112.12999 L 127.779999 117.879997 L 128.179993 119.099998 L 129.740005 123.860001 L 129.740005 123.950005 C 129.772369 123.977531 129.802475 124.007629 129.830002 124.040001 Z"/>
    <path id="path54" fill="#d8371d" stroke="none" d="M 129.770004 117.840004 L 129.770004 114.620003 L 128.210007 114.620003 L 128.210007 124.230003 L 129.759995 124.230003 L 129.759995 123.790001 L 129.759995 123.879997 C 129.763565 123.923264 129.763565 123.966743 129.759995 124.010002 L 129.759995 117.809998 Z M 129.770004 119.450005 L 129.770004 123.82 L 129.770004 123.910004 C 129.773575 123.953262 129.773575 123.996742 129.770004 124.040001 L 129.770004 119.450005 Z M 129.770004 119.450005 L 129.770004 123.82 L 129.770004 123.910004 C 129.773575 123.953262 129.773575 123.996742 129.770004 124.040001 L 129.770004 119.450005 Z M 134.360001 112.209991 L 134.289993 112.279999 L 134.880005 113.93 L 135.369995 113.470001 Z M 133 113.480003 L 132.529999 113.910004 L 132.529999 116.110001 L 133.589996 115.110001 Z M 129.770004 114.620003 L 128.210007 114.620003 L 128.210007 124.230003 L 129.820007 124.230003 L 129.820007 116.230003 L 130.899994 116.230003 L 130.899994 114.610001 Z M 134.360001 112.209991 L 134.289993 112.279999 L 134.880005 113.93 L 135.369995 113.470001 Z M 133 113.480003 L 132.529999 113.910004 L 132.529999 116.110001 L 133.589996 115.110001 Z M 129.770004 114.620003 L 128.210007 114.620003 L 128.210007 124.230003 L 129.820007 124.230003 L 129.820007 116.230003 L 130.899994 116.230003 L 130.899994 114.610001 Z M 134.360001 112.209991 L 134.289993 112.279999 L 134.880005 113.93 L 135.369995 113.470001 Z M 133 113.480003 L 132.529999 113.910004 L 132.529999 116.110001 L 133.589996 115.110001 Z M 129.770004 114.620003 L 128.210007 114.620003 L 128.210007 124.230003 L 129.820007 124.230003 L 129.820007 116.230003 L 130.899994 116.230003 L 130.899994 114.610001 Z M 134.360001 112.209991 L 134.289993 112.279999 L 134.880005 113.93 L 135.369995 113.470001 Z M 133 113.480003 L 132.529999 113.910004 L 132.529999 116.110001 L 133.589996 115.110001 Z M 129.770004 114.620003 L 128.210007 114.620003 L 128.210007 124.230003 L 129.820007 124.230003 L 129.820007 116.230003 L 130.899994 116.230003 L 130.899994 114.610001 Z M 134.360001 112.209991 L 134.289993 112.279999 L 134.880005 113.93 L 135.369995 113.470001 Z M 133 113.480003 L 132.529999 113.910004 L 132.529999 116.110001 L 133.589996 115.110001 Z M 129.770004 114.620003 L 128.210007 114.620003 L 128.210007 124.230003 L 129.820007 124.230003 L 129.820007 116.230003 L 130.899994 116.230003 L 130.899994 114.610001 Z M 134.360001 112.209991 L 134.289993 112.279999 L 134.880005 113.93 L 135.369995 113.470001 Z M 133 113.480003 L 132.529999 113.910004 L 132.529999 116.110001 L 133.589996 115.110001 Z M 129.770004 114.620003 L 128.210007 114.620003 L 128.210007 124.230003 L 129.820007 124.230003 L 129.820007 116.230003 L 130.899994 116.230003 L 130.899994 114.610001 Z M 134.360001 112.209991 L 134.289993 112.279999 L 134.880005 113.93 L 135.369995 113.470001 Z M 133 113.480003 L 132.529999 113.910004 L 132.529999 116.110001 L 133.589996 115.110001 Z M 129.770004 114.620003 L 128.210007 114.620003 L 128.210007 124.230003 L 129.820007 124.230003 L 129.820007 116.230003 L 130.899994 116.230003 L 130.899994 114.610001 Z M 134.360001 112.209991 L 134.289993 112.279999 L 134.880005 113.93 L 135.369995 113.470001 Z M 132.529999 113.910004 L 132.529999 116.110001 L 133.589996 115.110001 L 133 113.459999 Z M 128.210007 114.650002 L 128.210007 124.260002 L 129.820007 124.260002 L 129.820007 116.260002 L 130.899994 116.260002 L 130.899994 114.639999 L 129.759995 114.639999 Z M 157.580002 114.650002 L 155.960007 114.650002 L 154.860001 114.650002 L 151.470001 111.5 L 149.850006 110 L 143.919998 104.48999 L 143.380005 105.080002 L 143.919998 104.470001 L 143.320007 103.940002 L 135.539993 111.169998 L 134.360001 112.270004 L 134.289993 112.339996 L 133 113.540001 L 132.529999 113.970001 L 131.800003 114.650002 L 130.910004 114.650002 L 129.770004 114.650002 L 128.210007 114.650002 L 128.210007 152.040009 L 158.449997 152.040009 L 158.449997 114.650002 Z M 156.830002 150.420013 L 129.830002 150.420013 L 129.830002 116.239998 L 130.910004 116.239998 L 132.440002 116.239998 L 132.529999 116.160004 L 133.589996 115.160004 L 134.880005 113.959999 L 135.369995 113.5 L 136.559998 112.399994 L 143.330002 106.110001 L 149.850006 112.169998 L 151.470001 113.669998 L 154.210007 116.220001 L 155.960007 116.220001 L 156.770004 116.220001 L 156.830002 116.220001 Z M 129.770004 114.639999 L 128.210007 114.639999 L 128.210007 124.25 L 129.820007 124.25 L 129.820007 116.25 L 130.899994 116.25 L 130.899994 114.629997 Z M 133 113.5 L 132.529999 113.93 L 132.529999 116.129997 L 133.589996 115.129997 Z M 134.360001 112.229996 L 134.289993 112.300003 L 134.880005 113.950005 L 135.369995 113.489998 Z M 129.770004 114.639999 L 128.210007 114.639999 L 128.210007 124.25 L 129.820007 124.25 L 129.820007 116.25 L 130.899994 116.25 L 130.899994 114.629997 Z M 133 113.5 L 132.529999 113.93 L 132.529999 116.129997 L 133.589996 115.129997 Z M 134.360001 112.229996 L 134.289993 112.300003 L 134.880005 113.950005 L 135.369995 113.489998 Z M 129.770004 114.639999 L 128.210007 114.639999 L 128.210007 124.25 L 129.820007 124.25 L 129.820007 116.25 L 130.899994 116.25 L 130.899994 114.629997 Z M 133 113.5 L 132.529999 113.93 L 132.529999 116.129997 L 133.589996 115.129997 Z M 134.360001 112.229996 L 134.289993 112.300003 L 134.880005 113.950005 L 135.369995 113.489998 Z M 129.770004 114.639999 L 128.210007 114.639999 L 128.210007 124.25 L 129.820007 124.25 L 129.820007 116.25 L 130.899994 116.25 L 130.899994 114.629997 Z M 133 113.5 L 132.529999 113.93 L 132.529999 116.129997 L 133.589996 115.129997 Z M 134.360001 112.229996 L 134.289993 112.300003 L 134.880005 113.950005 L 135.369995 113.489998 Z M 129.770004 114.639999 L 128.210007 114.639999 L 128.210007 124.25 L 129.820007 124.25 L 129.820007 116.25 L 130.899994 116.25 L 130.899994 114.629997 Z M 133 113.5 L 132.529999 113.93 L 132.529999 116.129997 L 133.589996 115.129997 Z M 134.360001 112.229996 L 134.289993 112.300003 L 134.880005 113.950005 L 135.369995 113.489998 Z M 129.770004 114.639999 L 128.210007 114.639999 L 128.210007 124.25 L 129.820007 124.25 L 129.820007 116.25 L 130.899994 116.25 L 130.899994 114.629997 Z M 133 113.5 L 132.529999 113.93 L 132.529999 116.129997 L 133.589996 115.129997 Z M 134.360001 112.229996 L 134.289993 112.300003 L 134.880005 113.950005 L 135.369995 113.489998 Z M 129.770004 114.639999 L 128.210007 114.639999 L 128.210007 124.25 L 129.820007 124.25 L 129.820007 116.25 L 130.899994 116.25 L 130.899994 114.629997 Z M 133 113.5 L 132.529999 113.93 L 132.529999 116.129997 L 133.589996 115.129997 Z M 134.360001 112.229996 L 134.289993 112.300003 L 134.880005 113.950005 L 135.369995 113.489998 Z M 129.770004 114.639999 L 128.210007 114.639999 L 128.210007 124.25 L 129.820007 124.25 L 129.820007 116.25 L 130.899994 116.25 L 130.899994 114.629997 Z M 133 113.5 L 132.529999 113.93 L 132.529999 116.129997 L 133.589996 115.129997 Z M 134.360001 112.229996 L 134.289993 112.300003 L 134.880005 113.950005 L 135.369995 113.489998 Z M 129.770004 119.470001 L 129.770004 123.840004 L 129.770004 123.93 C 129.773575 123.973259 129.773575 124.016739 129.770004 124.059998 L 129.770004 119.470001 Z M 129.770004 119.470001 L 129.770004 123.840004 L 129.770004 123.93 C 129.773575 123.973259 129.773575 124.016739 129.770004 124.059998 L 129.770004 119.470001 Z M 129.770004 117.860001 L 129.770004 114.639999 L 128.210007 114.639999 L 128.210007 124.25 L 129.759995 124.25 L 129.759995 123.809998 L 129.759995 123.900002 C 129.763565 123.94326 129.763565 123.98674 129.759995 124.029999 L 129.759995 117.830002 Z"/>
    <path id="path55" fill="#d8371d" stroke="none" d="M 157 124.260002 L 157 152.040009 L 166 152.040009 L 166 124.260002 Z M 164.389999 150.399994 L 158.610001 150.399994 L 158.610001 125.879997 L 164.389999 125.879997 Z"/>
    <path id="path56" fill="#d8371d" stroke="none" d="M 158.520004 124.910004 L 156.979996 124.419998 L 161.669998 109.509995 L 165.929993 124.400002 L 164.369995 124.840004 L 161.600006 115.129997 L 158.520004 124.910004 Z"/>
    <path id="path57" fill="#d8371d" stroke="none" d="M 143.279999 118.690002 C 142.781143 118.688858 142.284042 118.749313 141.800003 118.870003 C 141.265503 118.991211 140.750534 119.186424 140.270004 119.450005 C 137.442657 120.972191 136.193466 124.363159 137.35762 127.355766 C 138.521774 130.348358 141.734055 132.003784 144.846786 131.21521 C 147.959518 130.426666 149.996201 127.441521 149.595123 124.2556 C 149.194046 121.069679 146.481049 118.682465 143.270004 118.690002 Z M 143.279999 129.799988 C 141.357025 129.812134 139.61647 128.663666 138.871216 126.89093 C 138.125961 125.118202 138.523087 123.071037 139.877106 121.705544 C 141.23114 120.340042 143.274872 119.925659 145.053833 120.655922 C 146.832779 121.386185 147.995911 123.116997 148 125.040001 C 148.005554 127.655586 145.895538 129.783478 143.279999 129.799988 Z"/>
    <path id="path58" fill="#d8371d" stroke="none" d="M 146.740005 124.200005 C 146.722961 123.230988 145.975693 122.4319 145.009995 122.349998 C 144.669296 121.730431 144.017059 121.346764 143.309998 121.349998 C 142.610535 121.364799 141.96965 121.744019 141.619995 122.349998 C 140.629089 122.40728 139.849243 123.217628 139.830002 124.209999 C 139.832336 124.529976 139.918549 124.843742 140.080002 125.120003 C 139.917587 125.392204 139.831238 125.703026 139.830002 126.020004 C 139.847046 126.989014 140.594299 127.788109 141.559998 127.870003 C 141.897415 128.492767 142.551758 128.877655 143.259995 128.869995 C 143.959457 128.855194 144.600342 128.475983 144.949997 127.870003 C 145.940903 127.812721 146.720764 127.002373 146.740005 126.010002 C 146.738754 125.693031 146.65242 125.382202 146.490005 125.110001 C 146.651459 124.83374 146.737656 124.519974 146.740005 124.200005 Z M 145 125.809998 C 145.078262 125.847801 145.131271 125.923531 145.139999 126.010002 C 145.139999 126.18 144.899994 126.309998 144.690002 126.230003 C 144.444962 126.135048 144.169083 126.164871 143.949997 126.309998 C 143.729965 126.463104 143.596222 126.712021 143.589996 126.980003 C 143.589996 127.239998 142.970001 127.239998 142.970001 126.980003 C 142.963043 126.722794 142.832794 126.484634 142.619995 126.340004 C 142.486771 126.241875 142.32547 126.189278 142.160004 126.190002 C 142.073944 126.175453 141.986053 126.175453 141.899994 126.190002 C 141.630005 126.279999 141.470001 126.129997 141.470001 125.970001 C 141.470001 125.809998 141.580002 125.790001 141.610001 125.770004 C 141.869766 125.630676 142.031876 125.359779 142.031876 125.065002 C 142.031876 124.770226 141.869766 124.499329 141.610001 124.360001 C 141.610001 124.360001 141.470001 124.270004 141.470001 124.160004 C 141.470001 124.050003 141.720001 123.860001 141.919998 123.940002 C 142.164307 124.040337 142.44278 124.010231 142.660004 123.860001 C 142.882584 123.70919 143.01709 123.458847 143.020004 123.190002 C 143.020004 122.93 143.639999 122.93 143.639999 123.190002 C 143.649628 123.446365 143.778687 123.683449 143.98877 123.830704 C 144.198837 123.977951 144.465729 124.018394 144.710007 123.940002 C 144.990005 123.849998 145.139999 124 145.139999 124.160004 C 145.131271 124.246468 145.078262 124.322197 145 124.360001 C 144.745926 124.503738 144.588837 124.773079 144.588837 125.065002 C 144.588837 125.356918 144.745926 125.626259 145 125.770004 Z"/>
    <path id="path59" fill="#d8371d" stroke="none" d="M 123.190002 126.970001 L 124.809998 126.970001 L 124.809998 128.610016 L 123.190002 128.610016 Z"/>
    <path id="path60" fill="#d8371d" stroke="none" d="M 125.639999 126.970001 L 127.260002 126.970001 L 127.260002 128.610016 L 125.639999 128.610016 Z"/>
    <path id="path61" fill="#d8371d" stroke="none" d="M 134.240005 115.379997 L 135.850006 115.379997 L 135.850006 118.18 L 134.240005 118.18 Z"/>
    <path id="path62" fill="#d8371d" stroke="none" d="M 138.320007 111.360001 L 139.940002 111.360001 L 139.940002 114.160004 L 138.320007 114.160004 Z"/>
    <path id="path63" fill="#d8371d" stroke="none" d="M 142.520004 107.779999 L 144.139999 107.779999 L 144.139999 110.580002 L 142.520004 110.580002 Z"/>
    <path id="path64" fill="#d8371d" stroke="none" d="M 150.699997 115.379997 L 152.320007 115.379997 L 152.320007 118.18 L 150.699997 118.18 Z"/>
    <path id="path65" fill="#d8371d" stroke="none" d="M 146.619995 111.360001 L 148.229996 111.360001 L 148.229996 114.160004 L 146.619995 114.160004 Z"/>
    <path id="path66" fill="#d8371d" stroke="none" d="M 159.419998 126.970001 L 161.039993 126.970001 L 161.039993 128.610016 L 159.419998 128.610016 Z"/>
    <path id="path67" fill="#d8371d" stroke="none" d="M 161.860001 126.970001 L 163.479996 126.970001 L 163.479996 128.610016 L 161.860001 128.610016 Z"/>
    <path id="path68" fill="#d8371d" stroke="none" d="M 135.899994 132.519989 C 135.643433 132.42746 135.372757 132.380096 135.100006 132.380005 C 134.82399 132.380127 134.550034 132.42749 134.289993 132.519989 C 133.295151 132.855621 132.626541 133.79007 132.630005 134.839996 L 132.630005 140.040009 L 137.570007 140.040009 L 137.570007 134.839996 C 137.568924 133.788422 136.896881 132.854797 135.899994 132.519989 Z M 135.899994 138.459991 L 134.199997 138.459991 L 134.199997 134.839996 C 134.199997 134.370544 134.580551 133.98999 135.050003 133.98999 C 135.51944 133.98999 135.899994 134.370544 135.899994 134.839996 Z"/>
    <path id="path69" fill="#d8371d" stroke="none" d="M 139 142.690002 C 138.462845 142.05426 137.672287 141.688263 136.839996 141.690002 C 135.151825 141.765717 133.842255 143.191498 133.910004 144.880005 L 133.910004 152.040009 L 139.779999 152.040009 L 139.779999 144.869995 C 139.788239 144.073578 139.511612 143.300415 139 142.690002 Z M 135.529999 150.399994 L 135.529999 144.850006 C 135.42598 144.319061 135.651459 143.777649 136.101608 143.477478 C 136.551758 143.177338 137.138245 143.177338 137.588394 143.477478 C 138.038544 143.777649 138.264023 144.319061 138.160004 144.850006 L 138.160004 150.399994 Z"/>
    <path id="path70" fill="#d8371d" stroke="none" d="M 143.309998 142.690002 C 142.786087 142.039124 141.995529 141.660645 141.160004 141.660645 C 140.324463 141.660645 139.53392 142.039124 139.009995 142.690002 C 138.502869 143.295166 138.226517 144.060425 138.229996 144.850006 L 138.229996 152.040009 L 144.089996 152.040009 L 144.089996 144.869995 C 144.098236 144.073578 143.821609 143.300415 143.309998 142.690002 Z M 139.839996 150.399994 L 139.839996 144.850006 C 139.748016 144.323578 139.9776 143.792847 140.42424 143.49942 C 140.870865 143.205994 141.449142 143.205994 141.895767 143.49942 C 142.342392 143.792847 142.571991 144.323578 142.479996 144.850006 L 142.479996 150.399994 Z"/>
    <path id="path71" fill="#d8371d" stroke="none" d="M 148.389999 144.660004 C 148.355652 143.920532 148.069885 143.214966 147.580002 142.660004 C 147.055771 142.020111 146.272202 141.649109 145.445007 141.649109 C 144.617798 141.649109 143.834229 142.020111 143.309998 142.660004 C 142.802856 143.265167 142.52652 144.030426 142.529999 144.820007 L 142.529999 152.040009 L 148.399994 152.040009 L 148.399994 144.869995 C 148.402771 144.799835 148.399414 144.729584 148.389999 144.660004 Z M 144.149994 150.399994 L 144.149994 144.850006 C 144.086365 144.05368 144.674576 143.354065 145.470001 143.279999 C 146.212448 143.347717 146.77829 143.974518 146.770004 144.720001 C 146.774963 144.763184 146.774963 144.806824 146.770004 144.850006 L 146.770004 150.399994 Z"/>
    <path id="path72" fill="#d8371d" stroke="none" d="M 149.690002 141.660004 C 148.874298 141.668854 148.103317 142.034241 147.580002 142.660004 C 147.074356 143.23291 146.78746 143.966064 146.770004 144.730011 C 146.765045 144.773193 146.765045 144.816803 146.770004 144.860016 L 146.770004 152.040009 L 152.639999 152.040009 L 152.639999 144.869995 C 152.675217 144.052948 152.384033 143.255432 151.830658 142.653259 C 151.277267 142.051117 150.507126 141.693756 149.690002 141.660004 Z M 148.369995 150.399994 L 148.369995 144.850006 C 148.360245 144.787048 148.360245 144.722961 148.369995 144.660004 C 148.37854 143.931946 148.943741 143.33197 149.669998 143.279999 C 150.465424 143.354065 151.053635 144.05368 150.990005 144.850006 L 150.990005 150.399994 Z"/>
    <path id="path73" fill="#d8371d" stroke="none" d="M 143.229996 132.380005 C 141.869751 132.380005 140.765503 133.479767 140.759995 134.839996 L 140.759995 140.040009 L 145.699997 140.040009 L 145.699997 134.839996 C 145.694489 133.479767 144.59024 132.380005 143.229996 132.380005 Z M 144.080002 138.459991 L 142.380005 138.459991 L 142.380005 134.839996 C 142.380005 134.370544 142.760559 133.98999 143.229996 133.98999 C 143.699448 133.98999 144.080002 134.370544 144.080002 134.839996 Z"/>
    <path id="path74" fill="#d8371d" stroke="none" d="M 153.75 134.040009 C 153.654846 133.740875 153.498154 133.464966 153.289993 133.230011 C 153.022873 132.914032 152.678299 132.672852 152.289993 132.529999 C 152.023514 132.418671 151.738708 132.357635 151.449997 132.350006 L 151.389999 132.350006 C 151.145874 132.350739 150.903214 132.387817 150.669998 132.459991 L 150.669998 132.459991 C 150.372864 132.549988 150.097229 132.699707 149.860001 132.899994 C 149.28006 133.359253 148.944305 134.060272 148.949997 134.799988 L 148.949997 140.040009 L 153.889999 140.040009 L 153.889999 134.839996 C 153.893616 134.566925 153.84613 134.295593 153.75 134.040009 Z M 152.259995 138.429993 L 150.559998 138.429993 L 150.559998 134.839996 C 150.55925 134.506897 150.755402 134.204834 151.059998 134.070007 C 151.281296 133.963959 151.538712 133.963959 151.759995 134.070007 C 152.06459 134.204834 152.260742 134.506897 152.259995 134.839996 Z"/>
    <path id="path75" fill="#d8371d" stroke="none" d="M 143.610001 117.040001 L 143.300003 117.099998 L 143.300003 117.099998 C 142.486435 117.248695 141.689316 117.47644 140.919998 117.779999 C 139.908676 118.161758 138.978928 118.731827 138.179993 119.459999 C 136.75412 120.733467 135.930176 122.54834 135.910004 124.459999 L 135.910004 132.799988 L 134.300003 132.799988 L 134.300003 124.5 C 134.325089 122.692497 134.927795 120.940422 136.020004 119.5 C 136.469727 118.887032 137.001343 118.338593 137.600006 117.870003 C 137.859955 117.658417 138.133911 117.464645 138.419998 117.290001 C 138.879562 116.993927 139.360947 116.733177 139.860001 116.510002 L 139.860001 116.510002 C 140.947311 116.036484 142.089478 115.700554 143.259995 115.510002 L 143.339996 115.510002 L 143.339996 115.510002 Z"/>
    <path id="path76" fill="#d8371d" stroke="none" d="M 152.309998 132.559998 L 152.309998 132.790009 L 150.690002 132.790009 L 150.690002 124.489998 C 150.704712 124.286934 150.704712 124.083069 150.690002 123.879997 C 150.598587 122.964317 150.323074 122.076553 149.880005 121.270004 C 148.990005 119.620003 147.139999 117.82 143.330002 117.090004 L 143.330002 117.090004 L 143 117.040001 L 143.279999 115.459999 L 143.279999 115.459999 L 143.360001 115.459999 C 145.811478 115.778442 148.094681 116.879707 149.869995 118.599998 C 150.166641 118.910843 150.437531 119.245277 150.679993 119.599998 C 150.991913 120.034081 151.263062 120.49604 151.490005 120.980003 C 152.03595 122.09446 152.319855 123.319 152.320007 124.559998 Z"/>
    <path id="path77" fill="#d8371d" stroke="none" d="M 124.43 130.799988 L 126.050003 130.799988 L 126.050003 137.079987 L 124.43 137.079987 Z"/>
    <path id="path78" fill="#d8371d" stroke="none" d="M 160.649994 130.799988 L 162.270004 130.799988 L 162.270004 137.079987 L 160.649994 137.079987 Z"/>
    <path id="path79" fill="#d8371d" stroke="none" d="M 122.449997 147.769989 L 120.830002 147.769989 L 120.830002 139.929993 L 116.360001 139.929993 L 116.360001 136.470001 L 112.889999 136.470001 L 112.650002 136.100006 C 109.455956 131.2612 104.037888 128.358521 98.239998 128.380005 L 98.239998 126.770004 C 104.424706 126.746635 110.224838 129.76825 113.75 134.850006 L 118 134.850006 L 118 138.320007 L 122.470001 138.320007 Z"/>
    <path id="path80" fill="#d8371d" stroke="none" d="M 75.75 147.769989 L 74.139999 147.769989 L 74.139999 138.320007 L 78.610001 138.320007 L 78.610001 134.850006 L 82.830002 134.850006 C 86.358345 129.766663 92.162186 126.745071 98.349998 126.770004 L 98.349998 128.380005 C 92.552116 128.358521 87.134048 131.2612 83.940002 136.100006 L 83.699997 136.470001 L 80.220001 136.470001 L 80.220001 139.929993 L 75.75 139.929993 Z"/>
    <path id="path81" fill="#d8371d" stroke="none" d="M 112.440002 145.040009 C 111.995232 137.570343 105.807877 131.740448 98.324997 131.740448 C 90.842125 131.740448 84.65477 137.570343 84.209999 145.040009 C 84.209999 145.313339 84.209999 145.583344 84.209999 145.850006 L 84.209999 152.029999 L 112.5 152.029999 L 112.5 145.850006 C 112.480003 145.550003 112.459999 145.279999 112.440002 145.040009 Z M 110.849998 150.410004 L 85.790001 150.410004 L 85.790001 145.850006 C 85.779984 142.274323 87.310326 138.867493 89.989998 136.5 C 90.416832 136.113922 90.871384 135.759644 91.349998 135.440002 C 91.866936 135.094391 92.408371 134.786896 92.970001 134.519989 C 96.291061 132.948883 100.135406 132.919617 103.480003 134.440002 C 104.038254 134.688141 104.576523 134.979004 105.089996 135.309998 C 105.565735 135.611755 106.020142 135.945862 106.449997 136.309998 C 107.039467 136.812805 107.581726 137.368439 108.07 137.970001 C 109.868851 140.198547 110.849976 142.976044 110.849998 145.839996 Z"/>
    <path id="path82" fill="#d8371d" stroke="none" d="M 110.849998 145.040009 L 110.849998 152.040009 L 122.449997 152.040009 L 122.449997 145.040009 Z M 120.849998 150.410004 L 112.480003 150.410004 L 112.480003 146.660004 L 120.849998 146.660004 Z"/>
    <path id="path83" fill="#d8371d" stroke="none" d="M 98.32 134.850006 C 95.956223 134.850006 94.040001 136.766235 94.040001 139.130005 C 94.040001 141.493774 95.956223 143.410004 98.32 143.410004 C 100.683777 143.410004 102.599998 141.493774 102.599998 139.130005 C 102.599998 136.766235 100.683777 134.850006 98.32 134.850006 Z M 98.32 141.790009 C 96.850922 141.790009 95.660004 140.599091 95.660004 139.130005 C 95.660004 137.660919 96.850922 136.470001 98.32 136.470001 C 99.789078 136.470001 100.980003 137.660919 100.980003 139.130005 C 100.974518 140.596802 99.786797 141.784515 98.32 141.790009 Z"/>
    <path id="path84" fill="#d8371d" stroke="none" d="M 74.139999 145.040009 L 74.139999 152.040009 L 85.739998 152.040009 L 85.739998 145.040009 Z M 84.139999 150.410004 L 75.760002 150.410004 L 75.760002 146.660004 L 84.120003 146.660004 Z"/>
    <path id="path85" fill="#d8371d" stroke="none" d="M 88.370003 136.089996 L 89.989998 136.089996 L 89.989998 151.170013 L 88.370003 151.170013 Z"/>
    <path id="path86" fill="#d8371d" stroke="none" d="M 100.279999 139.940002 L 97.510002 139.940002 L 97.510002 136.940002 L 99.129997 136.940002 L 99.129997 138.320007 L 100.279999 138.320007 L 100.279999 139.940002 Z"/>
    <path id="path87" fill="#d8371d" stroke="none" d="M 91.349998 133.970001 L 92.970001 133.970001 L 92.970001 151.170013 L 91.349998 151.170013 Z"/>
    <path id="path88" fill="#d8371d" stroke="none" d="M 103.470001 133.860016 L 105.089996 133.860016 L 105.089996 151.160004 L 103.470001 151.160004 Z"/>
    <path id="path89" fill="#d8371d" stroke="none" d="M 106.449997 135.890015 L 108.07 135.890015 L 108.07 151.170013 L 106.449997 151.170013 Z"/>
    <path id="path90" fill="#d8371d" stroke="none" d="M 232.259995 131.799988 L 232.160004 131.679993 L 231.449997 130.869995 L 227 125.709999 L 222.5 130.869995 L 221.789993 131.679993 L 221.669998 131.820007 L 221.130005 132.440002 L 221.669998 132.440002 L 230.940002 132.440002 L 232.940002 132.440002 Z M 224.639999 130.799988 L 226.970001 128.140015 L 229.300003 130.829987 Z"/>
    <path id="path91" fill="#d8371d" stroke="none" d="M 233.070007 134.5 L 232.399994 133.959991 L 221.399994 133.959991 L 220.860001 134.390015 L 218.350006 136.390015 L 218.350006 143.76001 L 235.479996 143.76001 L 235.479996 136.390015 Z M 219.940002 137.179993 L 221.940002 135.579987 L 231.830002 135.579987 L 233.830002 137.179993 L 233.830002 142.179993 L 219.940002 142.179993 Z"/>
    <path id="path92" fill="#d8371d" stroke="none" d="M 235.449997 142.630005 L 234.889999 142.179993 L 218.889999 142.179993 L 218.330002 142.630005 L 215.839996 144.630005 L 215.839996 152.040009 L 237.949997 152.040009 L 237.949997 144.670013 Z M 236.320007 150.369995 L 217.449997 150.369995 L 217.449997 145.369995 L 219.449997 143.769989 L 234.320007 143.769989 L 236.320007 145.369995 Z"/>
    <path id="path93" fill="#d8371d" stroke="none" d="M 220.830002 130.869995 L 220.830002 135.570007 L 233.070007 135.570007 L 233.070007 130.869995 Z M 231.460007 132.48999 L 231.460007 133.950012 L 222.460007 133.950012 L 222.460007 132.48999 Z"/>
    <path id="path94" fill="#d8371d" stroke="none" d="M 208.139999 131.809998 L 208.029999 131.679993 L 207.330002 130.869995 L 202.850006 125.709999 L 198.350006 130.869995 L 198.270004 130.959991 L 197.639999 131.679993 L 197.509995 131.829987 L 197.509995 131.890015 L 197.029999 132.440002 L 198.320007 132.440002 L 206.830002 132.440002 L 208.830002 132.440002 Z M 200.520004 130.809998 L 202.850006 128.149994 L 205.179993 130.839996 Z"/>
    <path id="path95" fill="#d8371d" stroke="none" d="M 209 134.5 L 208.330002 133.959991 L 197.330002 133.959991 L 196.789993 134.390015 L 196.729996 134.440002 L 194.279999 136.440002 L 194.279999 143.809998 L 211.410004 143.809998 L 211.410004 136.440002 Z M 209.759995 142.160004 L 195.820007 142.160004 L 195.820007 137.160004 L 196.649994 136.5 L 197.460007 135.850006 L 197.820007 135.559998 L 207.710007 135.559998 L 209.710007 137.160004 Z"/>
    <path id="path96" fill="#d8371d" stroke="none" d="M 211.330002 142.630005 L 210.770004 142.179993 L 194.770004 142.179993 L 194.210007 142.630005 L 193.330002 143.329987 L 192.770004 143.779999 L 192.529999 143.970001 L 191.720001 144.619995 L 191.720001 152.040009 L 213.830002 152.040009 L 213.830002 144.670013 Z M 193.330002 150.369995 L 193.330002 145.369995 L 195.330002 143.769989 L 210.199997 143.769989 L 212.199997 145.369995 L 212.199997 150.369995 Z"/>
    <path id="path97" fill="#d8371d" stroke="none" d="M 196.710007 130.869995 L 196.710007 135.570007 L 209 135.570007 L 209 130.869995 Z M 207.330002 132.48999 L 207.330002 133.950012 L 198.330002 133.950012 L 198.330002 132.48999 Z"/>
    <path id="path98" fill="#d8371d" stroke="none" d="M 210.509995 138.540009 L 219.119995 138.540009 L 219.119995 140.160004 L 210.509995 140.160004 Z"/>
    <path id="path99" fill="#d8371d" stroke="none" d="M 210.509995 150.380005 L 219.119995 150.380005 L 219.119995 152 L 210.509995 152 Z"/>
    <path id="path100" fill="#d8371d" stroke="none" d="M 198.449997 134.950012 L 200.059998 134.950012 L 200.059998 142.720001 L 198.449997 142.720001 Z"/>
    <path id="path101" fill="#d8371d" stroke="none" d="M 205.220001 134.950012 L 206.839996 134.950012 L 206.839996 142.720001 L 205.220001 142.720001 Z"/>
    <path id="path102" fill="#d8371d" stroke="none" d="M 222.690002 134.940002 L 224.309998 134.940002 L 224.309998 142.709991 L 222.690002 142.709991 Z"/>
    <path id="path103" fill="#d8371d" stroke="none" d="M 229.460007 134.940002 L 231.080002 134.940002 L 231.080002 142.709991 L 229.460007 142.709991 Z"/>
    <path id="path104" fill="none" stroke="none" d="M 175.649994 95.23999 L 172.5 95.23999 L 172.5 100.069992 L 169.869995 100.069992 L 169.869995 105.229996 L 175.649994 105.229996 L 175.649994 95.23999 Z"/>
    <path id="path105" fill="#d8371d" stroke="none" d="M 175.649994 106.039993 L 169.059998 106.039993 L 169.059998 99.259995 L 171.690002 99.259995 L 171.690002 94.429993 L 175.649994 94.429993 L 175.649994 96.050003 L 173.309998 96.050003 L 173.309998 100.87999 L 170.679993 100.87999 L 170.679993 104.419998 L 175.649994 104.419998 L 175.649994 106.039993 Z"/>
    <path id="path106" fill="#d8371d" stroke="none" d="M 189.399994 106.039993 L 182.809998 106.039993 L 182.809998 104.419998 L 187.789993 104.419998 L 187.789993 100.87999 L 185.160004 100.87999 L 185.160004 96.050003 L 182.809998 96.050003 L 182.809998 94.429993 L 186.770004 94.429993 L 186.770004 99.259995 L 189.399994 99.259995 L 189.399994 106.039993 Z"/>
    <path id="path107" fill="none" stroke="none" d="M 175.649994 89.919998 L 182.850006 89.919998 L 182.850006 105.319992 L 175.649994 105.319992 Z"/>
    <path id="path108" fill="#d8371d" stroke="none" d="M 174.839996 89.119995 L 174.839996 106.119995 L 183.660004 106.119995 L 183.660004 89.119995 Z M 176.460007 90.729996 L 182 90.729996 L 182 104.520004 L 176.419998 104.520004 Z"/>
    <path id="path109" fill="#d8371d" stroke="none" d="M 174.800003 105.330002 L 174.800003 106.139999 L 174.800003 106.139999 L 174.800003 105.330002 Z M 168.720001 142.160004 L 168.720001 142.970001 L 169.529999 142.970001 L 169.529999 142.160004 Z M 168.720001 134.070007 L 168.720001 139.910004 L 169.529999 139.910004 L 169.529999 134.040009 Z M 174.800003 105.330002 L 174.800003 106.139999 L 174.800003 106.139999 L 174.800003 105.330002 Z M 168.720001 142.160004 L 168.720001 142.970001 L 169.529999 142.970001 L 169.529999 142.160004 Z M 168.720001 134.070007 L 168.720001 139.910004 L 169.529999 139.910004 L 169.529999 134.040009 Z M 174.800003 105.330002 L 174.800003 106.139999 L 174.800003 106.139999 L 174.800003 105.330002 Z M 168.720001 142.160004 L 168.720001 142.970001 L 169.529999 142.970001 L 169.529999 142.160004 Z M 168.720001 134.070007 L 168.720001 139.910004 L 169.529999 139.910004 L 169.529999 134.040009 Z M 174.800003 105.330002 L 174.800003 106.139999 L 174.800003 106.139999 L 174.800003 105.330002 Z M 168.720001 142.160004 L 168.720001 142.970001 L 169.529999 142.970001 L 169.529999 142.160004 Z M 168.720001 134.070007 L 168.720001 139.910004 L 169.529999 139.910004 L 169.529999 134.040009 Z M 174.800003 105.330002 L 174.800003 106.139999 L 174.800003 106.139999 L 174.800003 105.330002 Z M 168.720001 142.160004 L 168.720001 142.970001 L 169.529999 142.970001 L 169.529999 142.160004 Z M 168.720001 134.070007 L 168.720001 139.910004 L 169.529999 139.910004 L 169.529999 134.040009 Z M 174.800003 105.330002 L 174.800003 106.139999 L 174.800003 106.139999 L 174.800003 105.330002 Z M 168.720001 142.160004 L 168.720001 142.970001 L 169.529999 142.970001 L 169.529999 142.160004 Z M 168.720001 134.070007 L 168.720001 139.910004 L 169.529999 139.910004 L 169.529999 134.040009 Z M 174 104.520004 L 174 106.039993 L 169.5 106.039993 L 169.5 104.520004 L 167.910004 104.520004 L 167.910004 134.869995 L 168.720001 134.869995 L 168.720001 139.869995 L 169.529999 139.869995 L 169.529999 106.139999 L 174.839996 106.139999 L 174.839996 104.520004 Z M 189.229996 142.160004 L 189.229996 143.779999 L 190.839996 143.779999 L 190.839996 142.160004 Z M 167.919998 150.380005 L 167.919998 152.040009 L 190.839996 152.040009 L 190.839996 150.420013 Z M 167.919998 104.520004 L 167.919998 143.779999 L 169.539993 143.779999 L 169.539993 142.160004 L 168.289993 142.160004 L 168.289993 139.910004 L 169.539993 139.910004 L 169.539993 106.139999 L 189.229996 106.139999 L 189.229996 139.929993 L 190.839996 139.929993 L 190.839996 104.520004 Z M 174 104.520004 L 174 106.039993 L 169.5 106.039993 L 169.5 104.520004 L 167.910004 104.520004 L 167.910004 134.869995 L 168.720001 134.869995 L 168.720001 139.869995 L 169.529999 139.869995 L 169.529999 106.139999 L 174.839996 106.139999 L 174.839996 104.520004 Z M 168.729996 142.160004 L 168.729996 142.970001 L 169.539993 142.970001 L 169.539993 142.160004 Z M 168.729996 134.070007 L 168.729996 139.910004 L 169.539993 139.910004 L 169.539993 134.040009 Z M 174.809998 105.330002 L 174.809998 106.139999 L 174.809998 106.139999 L 174.809998 105.330002 Z M 168.729996 142.160004 L 168.729996 142.970001 L 169.539993 142.970001 L 169.539993 142.160004 Z M 168.729996 134.070007 L 168.729996 139.910004 L 169.539993 139.910004 L 169.539993 134.040009 Z M 174.809998 105.330002 L 174.809998 106.139999 L 174.809998 106.139999 L 174.809998 105.330002 Z M 168.729996 142.160004 L 168.729996 142.970001 L 169.539993 142.970001 L 169.539993 142.160004 Z M 168.729996 134.070007 L 168.729996 139.910004 L 169.539993 139.910004 L 169.539993 134.040009 Z M 174.809998 105.330002 L 174.809998 106.139999 L 174.809998 106.139999 L 174.809998 105.330002 Z M 168.729996 142.160004 L 168.729996 142.970001 L 169.539993 142.970001 L 169.539993 142.160004 Z M 168.729996 134.070007 L 168.729996 139.910004 L 169.539993 139.910004 L 169.539993 134.040009 Z M 174.809998 105.330002 L 174.809998 106.139999 L 174.809998 106.139999 L 174.809998 105.330002 Z M 168.729996 142.160004 L 168.729996 142.970001 L 169.539993 142.970001 L 169.539993 142.160004 Z M 168.729996 134.070007 L 168.729996 139.910004 L 169.539993 139.910004 L 169.539993 134.040009 Z M 174.809998 105.330002 L 174.809998 106.139999 L 174.809998 106.139999 L 174.809998 105.330002 Z M 168.729996 142.160004 L 168.729996 142.970001 L 169.539993 142.970001 L 169.539993 142.160004 Z M 168.729996 134.070007 L 168.729996 139.910004 L 169.539993 139.910004 L 169.539993 134.040009 Z M 174.809998 105.330002 L 174.809998 106.139999 L 174.809998 106.139999 L 174.809998 105.330002 Z M 168.729996 142.160004 L 168.729996 142.970001 L 169.539993 142.970001 L 169.539993 142.160004 Z M 168.729996 134.070007 L 168.729996 139.910004 L 169.539993 139.910004 L 169.539993 134.040009 Z M 174.809998 105.330002 L 174.809998 106.139999 L 174.809998 106.139999 L 174.809998 105.330002 Z"/>
    <path id="path110" fill="#d8371d" stroke="none" d="M 166.660004 138.290009 L 166.660004 143.779999 L 173.800003 143.779999 L 173.800003 138.290009 Z M 168.279999 142.160004 L 168.279999 139.910004 L 172.190002 139.910004 L 172.190002 142.160004 Z"/>
    <path id="path111" fill="#d8371d" stroke="none" d="M 164.350006 142.160004 L 164.350006 152.040009 L 173.809998 152.040009 L 173.809998 142.200012 Z M 165.970001 150.380005 L 165.970001 143.779999 L 172.190002 143.779999 L 172.190002 150.380005 Z"/>
    <path id="path112" fill="#d8371d" stroke="none" d="M 184.649994 142.160004 L 184.649994 152.040009 L 193.320007 152.040009 L 193.320007 142.200012 Z M 186.270004 150.380005 L 186.270004 143.779999 L 191.710007 143.779999 L 191.710007 150.380005 Z"/>
    <path id="path113" fill="#d8371d" stroke="none" d="M 184.649994 138.309998 L 184.649994 142.160004 L 186.259995 142.160004 L 186.259995 139.929993 L 189.259995 139.929993 L 189.259995 138.309998 Z M 184.649994 138.309998 L 184.649994 142.160004 L 186.259995 142.160004 L 186.259995 139.929993 L 189.259995 139.929993 L 189.259995 138.309998 Z M 184.649994 138.309998 L 184.649994 143.779999 L 193.320007 143.779999 L 193.320007 138.309998 Z M 186.259995 142.160004 L 186.259995 139.929993 L 191.710007 139.929993 L 191.710007 142.160004 Z M 184.649994 138.309998 L 184.649994 142.160004 L 186.259995 142.160004 L 186.259995 139.929993 L 189.259995 139.929993 L 189.259995 138.309998 Z M 184.649994 138.309998 L 184.649994 142.160004 L 186.259995 142.160004 L 186.259995 139.929993 L 189.259995 139.929993 L 189.259995 138.309998 Z"/>
    <path id="path114" fill="#d8371d" stroke="none" d="M 174.710007 110.580002 L 176.320007 110.580002 L 176.320007 113.889999 L 174.710007 113.889999 Z"/>
    <path id="path115" fill="#d8371d" stroke="none" d="M 178.5 110.569992 L 180.119995 110.569992 L 180.119995 113.879997 L 178.5 113.879997 Z"/>
    <path id="path116" fill="#d8371d" stroke="none" d="M 174.710007 115.910004 L 176.320007 115.910004 L 176.320007 119.220001 L 174.710007 119.220001 Z"/>
    <path id="path117" fill="#d8371d" stroke="none" d="M 178.5 115.910004 L 180.119995 115.910004 L 180.119995 119.220001 L 178.5 119.220001 Z"/>
    <path id="path118" fill="#d8371d" stroke="none" d="M 174.710007 121.32 L 176.320007 121.32 L 176.320007 124.629997 L 174.710007 124.629997 Z"/>
    <path id="path119" fill="#d8371d" stroke="none" d="M 178.5 121.32 L 180.119995 121.32 L 180.119995 124.629997 L 178.5 124.629997 Z"/>
    <path id="path120" fill="#d8371d" stroke="none" d="M 182.169998 110.569992 L 183.789993 110.569992 L 183.789993 113.879997 L 182.169998 113.879997 Z"/>
    <path id="path121" fill="#d8371d" stroke="none" d="M 182.169998 115.910004 L 183.789993 115.910004 L 183.789993 119.220001 L 182.169998 119.220001 Z"/>
    <path id="path122" fill="#d8371d" stroke="none" d="M 182.169998 121.32 L 183.789993 121.32 L 183.789993 124.629997 L 182.169998 124.629997 Z"/>
    <path id="path123" fill="#d8371d" stroke="none" d="M 174.710007 126.830002 L 176.320007 126.830002 L 176.320007 130.140015 L 174.710007 130.140015 Z"/>
    <path id="path124" fill="#d8371d" stroke="none" d="M 178.5 126.830002 L 180.119995 126.830002 L 180.119995 130.140015 L 178.5 130.140015 Z"/>
    <path id="path125" fill="#d8371d" stroke="none" d="M 174.710007 132.160004 L 176.320007 132.160004 L 176.320007 135.480011 L 174.710007 135.480011 Z"/>
    <path id="path126" fill="#d8371d" stroke="none" d="M 178.5 132.160004 L 180.119995 132.160004 L 180.119995 135.470001 L 178.5 135.470001 Z"/>
    <path id="path127" fill="#d8371d" stroke="none" d="M 182.169998 126.830002 L 183.789993 126.830002 L 183.789993 130.140015 L 182.169998 130.140015 Z"/>
    <path id="path128" fill="#d8371d" stroke="none" d="M 182.169998 132.160004 L 183.789993 132.160004 L 183.789993 135.470001 L 182.169998 135.470001 Z"/>
    <path id="path129" fill="#d8371d" stroke="none" d="M 176.839996 143.649994 L 176.839996 151.880005 L 181.660004 151.880005 L 181.660004 143.649994 Z M 178.449997 145.269989 L 180 145.269989 L 180 150.269989 L 178.410004 150.269989 Z"/>
    <path id="path130" fill="#d8371d" stroke="none" d="M 178.449997 81.919998 L 178.449997 90.169998 L 180.059998 90.169998 L 180.059998 86.039993 L 184.179993 86.039993 L 184.179993 81.919998 Z M 182.559998 84.440002 L 180.059998 84.440002 L 180.059998 83.529999 L 182.559998 83.529999 Z"/>
    <path id="path131" fill="#d8371d" stroke="none" d="M 82.010002 124.260002 L 122.300003 124.260002 L 122.300003 125.879997 L 82.010002 125.879997 Z"/>
    <path id="path132" fill="#808080" stroke="none" d="M 59.330002 124.82 C 59.23 125.370003 59.139999 125.93 59.060001 126.480003 L 42.799999 126.480003 L 42.799999 124.82 Z"/>
    <path id="path133" fill="#808080" stroke="none" d="M 278.170013 124.419998 L 278.170013 126.040001 L 261.779999 126.040001 C 261.700012 125.489998 261.609985 124.93 261.51001 124.379997 Z"/>
    <path id="path134" fill="none" stroke="#808080" stroke-width="1.7" stroke-linecap="round" stroke-linejoin="round" d="M 58.509998 126.450005 C 58.599998 125.959999 58.68 125.450005 58.77 124.980003 C 67.464828 75.961349 110.016479 40.20546 159.80014 40.084976 C 209.583801 39.964493 252.308014 75.514023 261.23999 124.489998 C 261.339996 125.020004 261.429993 125.489998 261.51001 126.07"/>
</svg>
