<svg width="55" height="49" viewBox="0 0 55 49" xmlns="http://www.w3.org/2000/svg" xmlns:xlink="http://www.w3.org/1999/xlink">
    <g id="Layer2">
        <g id="Layer1-2">
            <path id="Path" fill="none" stroke="#211d1e" stroke-width="1.819024" stroke-linecap="round" stroke-linejoin="round" d="M 30.633945 4.147373 L 27.396084 0.909512"/>
            <path id="path1" fill="none" stroke="#211d1e" stroke-width="1.819024" stroke-linecap="round" stroke-linejoin="round" d="M 27.396084 4.147373 L 30.633945 0.909512"/>
            <path id="path2" fill="none" stroke="#e51f39" stroke-width="1.819024" stroke-linecap="round" stroke-linejoin="round" d="M 23.5252 6.570313 C 23.5252 7.386063 22.863907 8.047359 22.048153 8.047359 C 21.232403 8.047359 20.57111 7.386063 20.57111 6.570313 C 20.57111 5.754562 21.232403 5.093266 22.048153 5.093266 C 22.863907 5.093266 23.5252 5.754562 23.5252 6.570313 Z"/>
            <path id="path3" fill="none" stroke="#e51f39" stroke-width="1.819024" stroke-linecap="round" stroke-linejoin="round" d="M 14.168144 16.182034 L 9.715174 16.182034"/>
            <path id="path4" fill="#e6e6e6" stroke="none" d="M 42.75592 46.872601 C 42.75592 47.925446 36.605534 48.778938 29.018654 48.778938 C 21.43177 48.778938 15.281387 47.925446 15.281387 46.872601 C 15.281387 45.819763 21.43177 44.966263 29.018654 44.966263 C 36.605534 44.966263 42.75592 45.819763 42.75592 46.872601 Z"/>
            <path id="path5" fill="none" stroke="#e51f39" stroke-width="1.819024" stroke-linecap="round" stroke-linejoin="round" d="M 22.193676 16.225689 C 17.053719 17.006779 13.244507 21.409016 13.210091 26.60787 C 13.175674 31.806726 16.926262 36.25901 22.055428 37.108086 L 22.055428 37.108086"/>
            <path id="path6" fill="none" stroke="#e51f39" stroke-width="1.819024" stroke-linecap="round" stroke-linejoin="round" d="M 27.927242 16.975128 C 29.948933 17.842953 31.646667 19.324341 32.780396 21.209816 C 33.460007 22.450069 34.277699 23.609484 35.217884 24.665962 C 36.145271 25.692768 37.258728 26.534651 38.499405 27.14711 C 39.598099 27.700092 41.606297 27.954754 41.649956 29.511841 C 41.649956 30.676016 40.616745 31.476385 39.547165 31.82564 C 39.285225 31.91497 39.014458 31.975952 38.739517 32.007542 C 37.270031 32.099937 35.804405 31.774525 34.512104 31.068926 C 32.795334 30.16787 31.360283 28.810863 30.364731 27.14711"/>
            <path id="path7" fill="none" stroke="#e51f39" stroke-width="1.819024" stroke-linecap="round" stroke-linejoin="round" d="M 27.927242 16.975128 C 25.948143 18.604973 23.808968 21.959255 20.847599 21.508137 C 20.294228 21.441856 19.814114 21.09499 19.577377 20.590443 C 19.340637 20.085896 19.380722 19.494946 19.683422 19.026989 C 20.36393 18.033878 21.165638 17.129513 22.069981 16.334835 C 22.95039 15.498081 23.714382 14.544914 24.652996 13.773647 C 26.49773 12.242729 28.804928 11.378811 31.201485 11.321602 L 31.419765 11.321602 C 35.342331 11.308979 38.948532 13.472137 40.7841 16.938747 L 45.207962 16.938747"/>
            <path id="path8" fill="none" stroke="#211d1e" stroke-width="1.819024" stroke-linecap="round" stroke-linejoin="round" d="M 0.918375 13.635403 L 9.715174 13.635403 L 9.715174 16.189312 L 9.715174 31.687391 L 0.918375 31.687391 L 0.918375 13.635403 Z"/>
            <path id="path9" fill="none" stroke="#211d1e" stroke-width="1.819024" stroke-linecap="round" stroke-linejoin="round" d="M 45.193413 13.635403 L 53.990211 13.635403 L 53.990211 31.680117 L 45.193413 31.680117 Z"/>
            <path id="path10" fill="none" stroke="#e51f39" stroke-width="1.819024" stroke-linecap="round" stroke-linejoin="round" d="M 39.547165 31.82564 C 39.830933 33.193542 38.470299 34.139435 37.044186 34.648762 C 36.487965 34.862873 35.909565 35.014183 35.319748 35.099884 L 35.217884 35.099884 C 33.977329 35.261406 32.71637 35.06974 31.579838 34.546898 C 29.834835 33.707031 28.354664 32.403072 27.301495 30.77788"/>
            <path id="path11" fill="none" stroke="#e51f39" stroke-width="1.819024" stroke-linecap="round" stroke-linejoin="round" d="M 37.044186 34.648762 C 37.233368 36.402302 34.599419 37.595581 33.035057 37.944836 C 32.998756 37.941414 32.962215 37.941414 32.925919 37.944836 C 32.700356 37.988487 32.4748 38.024872 32.256516 38.0467 L 32.256516 38.0467 C 31.231907 38.153641 30.196419 38.024204 29.22966 37.668343 C 27.339703 36.925835 25.6978 35.66478 24.492924 34.030296"/>
            <path id="path12" fill="none" stroke="#e51f39" stroke-width="1.819024" stroke-linecap="round" stroke-linejoin="round" d="M 32.256516 38.068527 L 32.256516 38.068527 C 31.223034 38.934734 29.958099 39.478657 28.618465 39.632889 C 26.079113 40.011246 23.808968 38.905281 22.069981 37.122635 L 22.069981 37.122635"/>
            <path id="path13" fill="none" stroke="none" d="M 31.565289 25.735546 L 23.437889 35.296333"/>
            <path id="path14" fill="none" stroke="#211d1e" stroke-width="1.819024" stroke-linecap="round" stroke-linejoin="round" d="M 5.305861 26.324911 L 5.305861 30.785158"/>
            <path id="path15" fill="none" stroke="#211d1e" stroke-width="1.819024" stroke-linecap="round" stroke-linejoin="round" d="M 49.588173 26.324911 L 49.588173 30.785158"/>
        </g>
    </g>
</svg>
