<svg id="Layer_1" data-name="Layer 1" xmlns="http://www.w3.org/2000/svg" viewBox="0 0 458.69 458.69"><defs><style>.cls-1,.cls-3{font-size:59.74px;font-family:AlternateGotNo3D, Alternate Gothic No3 D;}.cls-1,.cls-8{fill:#e51f39;}.cls-1{letter-spacing:-0.01em;}.cls-2{letter-spacing:0.02em;}.cls-3,.cls-9{fill:#8b1f3b;}.cls-3{letter-spacing:0.02em;}.cls-4{letter-spacing:0.04em;}.cls-5{letter-spacing:0.03em;}.cls-6{letter-spacing:0.04em;}.cls-7{fill:none;stroke:#e51f39;stroke-linecap:round;stroke-linejoin:round;stroke-width:7.85px;stroke-dasharray:0 19.45;}.cls-10{fill:#fdb813;}.cls-11{fill:#4cb748;}.cls-12{fill:#96ba3d;}.cls-13{fill:#a45d0b;}.cls-14{fill:#dba012;}</style></defs><text class="cls-1" transform="translate(118.98 375.41)">F<tspan class="cls-2" x="21.5" y="0">ALL</tspan></text><text class="cls-3" transform="translate(219.21 375.4)">F<tspan class="cls-4" x="23.24" y="0">E</tspan><tspan class="cls-5" x="48.03" y="0">A</tspan><tspan class="cls-6" x="76.64" y="0">S</tspan><tspan x="104.47" y="0">T</tspan></text><circle class="cls-7" cx="229.85" cy="192.35" r="120.74" transform="translate(-68.69 218.87) rotate(-45)"/><circle class="cls-8" cx="169.1" cy="163.4" r="10.57"/><circle class="cls-8" cx="132.35" cy="204.79" r="10.57"/><circle class="cls-8" cx="165.91" cy="234.4" r="10.57"/><circle class="cls-8" cx="300.93" cy="165.08" r="10.57"/><circle class="cls-8" cx="329.41" cy="194.22" r="10.57"/><circle class="cls-8" cx="322.19" cy="238.61" r="10.57"/><circle class="cls-9" cx="161.79" cy="147.53" r="3.19"/><circle class="cls-9" cx="156.38" cy="128.29" r="3.19"/><circle class="cls-9" cx="168.81" cy="216.08" r="3.19"/><circle class="cls-9" cx="156.86" cy="207.27" r="3.19"/><circle class="cls-9" cx="151.68" cy="197.41" r="3.19"/><circle class="cls-9" cx="138.54" cy="184.89" r="3.19"/><circle class="cls-9" cx="183.42" cy="251.77" r="3.19"/><circle class="cls-9" cx="158.6" cy="271.36" r="3.19"/><circle class="cls-9" cx="160.05" cy="251.77" r="3.19"/><circle class="cls-9" cx="204.47" cy="274.71" r="3.19"/><circle class="cls-9" cx="234.66" cy="298.84" r="3.19"/><circle class="cls-9" cx="253.55" cy="276.13" r="3.19"/><circle class="cls-9" cx="262.81" cy="282.65" r="3.19"/><circle class="cls-9" cx="280.59" cy="276.13" r="3.19"/><circle class="cls-9" cx="161.68" cy="178.84" r="3.19"/><circle class="cls-9" cx="141.73" cy="166.58" r="3.19"/><circle class="cls-9" cx="274.96" cy="178.7" r="3.19"/><circle class="cls-9" cx="230.07" cy="122.35" r="3.19"/><circle class="cls-9" cx="267.97" cy="106.99" r="3.19"/><circle class="cls-9" cx="245.15" cy="101.01" r="3.19"/><circle class="cls-9" cx="240.9" cy="115.55" r="3.19"/><circle class="cls-9" cx="238.51" cy="84.28" r="3.19"/><circle class="cls-9" cx="205.88" cy="115.75" r="3.19"/><circle class="cls-9" cx="177.93" cy="114.98" r="3.19"/><circle class="cls-9" cx="285.33" cy="175.66" r="3.19"/><circle class="cls-9" cx="300.93" cy="144.34" r="3.19"/><circle class="cls-9" cx="290.06" cy="215.03" r="3.19"/><circle class="cls-9" cx="232.43" cy="256.28" r="3.19"/><circle class="cls-9" cx="318.84" cy="135.4" r="3.19"/><circle class="cls-9" cx="301.04" cy="204.08" r="3.19"/><circle class="cls-9" cx="318.84" cy="173.97" r="3.19"/><circle class="cls-9" cx="318.84" cy="149.64" r="3.19"/><circle class="cls-9" cx="184.2" cy="178.7" r="3.19"/><circle class="cls-8" cx="284.11" cy="256.28" r="10.57"/><circle class="cls-8" cx="236.66" cy="274.02" r="10.57"/><circle class="cls-8" cx="201.16" cy="291.64" r="10.57"/><circle class="cls-8" cx="301.04" cy="122.02" r="10.57"/><circle class="cls-8" cx="257.4" cy="121.98" r="10.57"/><circle class="cls-8" cx="198.45" cy="99.42" r="10.57"/><path class="cls-10" d="M170.75,204.08a11.9,11.9,0,1,1,5.73-23.1"/><path class="cls-10" d="M128.21,186.82a11.9,11.9,0,0,1,5.73-23.11"/><path class="cls-10" d="M151.13,159.82a11.9,11.9,0,0,1,5.73-23.1"/><path class="cls-10" d="M282.58,182.14a11.9,11.9,0,1,1,7.3,22.65"/><path class="cls-10" d="M308.72,209.68A11.9,11.9,0,0,1,296.3,230"/><path class="cls-10" d="M310.86,256.66a11.9,11.9,0,1,1-18.3,15.22"/><path class="cls-10" d="M340,170.19a11.9,11.9,0,1,1-7.3-22.66"/><path class="cls-10" d="M213.5,101a11.9,11.9,0,0,1,20.84,11.51"/><path class="cls-10" d="M293.61,100.33a11.9,11.9,0,1,1-21.36-10.49"/><path class="cls-10" d="M178.11,91.06a11.9,11.9,0,1,1-17.63,16"/><path class="cls-10" d="M207.28,248.54a11.9,11.9,0,0,1,7.3,22.66"/><path class="cls-10" d="M163.68,279.08a11.9,11.9,0,1,1,19.22,14"/><path class="cls-10" d="M124.26,223.9a11.9,11.9,0,1,1,8.56,22.21"/><path class="cls-10" d="M244.55,303.27a11.9,11.9,0,0,1,23.14-5.56"/><path class="cls-10" d="M182.79,120.7a11.9,11.9,0,1,1,19.31,13.92"/><path class="cls-11" d="M152.77,188.23c-2.28.14-4.37-3.7-4.67-8.57s1.31-8.93,3.6-9.07"/><path class="cls-12" d="M151.68,170.59c2.28-.14,4.37,3.7,4.67,8.57s-1.32,8.93-3.6,9.07"/><path class="cls-11" d="M144.69,228.87c-1.67-1.56-.32-5.72,3-9.28s7.4-5.18,9.07-3.62"/><path class="cls-12" d="M156.75,216c1.67,1.57.32,5.72-3,9.28s-7.39,5.18-9.06,3.62"/><path class="cls-11" d="M282,242.17c-2-1-1.89-5.41.33-9.75s5.66-7,7.7-6"/><path class="cls-12" d="M290,226.42c2,1,1.89,5.41-.33,9.75s-5.66,7-7.7,6"/><path class="cls-11" d="M240.92,261.67c-2-1-1.89-5.41.32-9.76s5.67-7,7.71-6"/><path class="cls-12" d="M248.93,245.92c2,1,1.89,5.4-.33,9.75s-5.66,7-7.7,6"/><path class="cls-11" d="M273.19,293.18c-1.18-1.95,1.23-5.59,5.4-8.13s8.51-3,9.7-1.05"/><path class="cls-12" d="M288.28,284c1.19,1.95-1.23,5.59-5.4,8.12s-8.51,3-9.7,1.06"/><path class="cls-11" d="M216.65,280.44c2-1.18,5.59,1.24,8.12,5.42s3,8.51,1,9.7"/><path class="cls-12" d="M225.82,295.55c-2,1.18-5.59-1.24-8.12-5.42s-3-8.52-1-9.7"/><path class="cls-11" d="M168,260.05c.61-2.2,4.92-2.93,9.62-1.62s8,4.15,7.4,6.35"/><path class="cls-12" d="M185,264.76c-.61,2.21-4.92,2.93-9.62,1.63s-8-4.16-7.41-6.36"/><path class="cls-11" d="M283,169.24c-2.28.14-4.37-3.7-4.67-8.57s1.31-8.93,3.6-9.07"/><path class="cls-12" d="M281.9,151.61c2.28-.14,4.37,3.69,4.67,8.56s-1.32,8.93-3.6,9.07"/><path class="cls-11" d="M275.38,128.54c-2.06-1-2-5.36.12-9.76s5.52-7.14,7.58-6.14"/><path class="cls-12" d="M283.06,112.63c2.06,1,2,5.37-.12,9.76s-5.52,7.14-7.58,6.14"/><path class="cls-11" d="M312.86,190.35c-1.28,1.9-5.6,1.22-9.64-1.51s-6.29-6.48-5-8.37"/><path class="cls-12" d="M298.2,180.49c1.28-1.9,5.6-1.22,9.64,1.5s6.29,6.48,5,8.38"/><path class="cls-11" d="M302.16,254.65c-2.21-.6-3-4.9-1.72-9.61s4.09-8,6.29-7.46"/><path class="cls-12" d="M306.71,237.58c2.21.59,3,4.89,1.71,9.6s-4.08,8.06-6.29,7.46"/><path class="cls-11" d="M336.74,220.3c-1.28,1.9-5.6,1.22-9.64-1.51s-6.29-6.48-5-8.37"/><path class="cls-12" d="M322.08,210.44c1.28-1.9,5.6-1.23,9.64,1.5s6.29,6.48,5,8.38"/><path class="cls-11" d="M209.09,128.29c-1.53-1.7.18-5.72,3.82-9s7.82-4.51,9.35-2.8"/><path class="cls-12" d="M222.24,116.5c1.53,1.71-.19,5.73-3.82,9s-7.83,4.5-9.35,2.8"/><path class="cls-11" d="M208.9,86.35c-.39-2.25,3.19-4.76,8-5.6s9,.31,9.42,2.56"/><path class="cls-12" d="M226.3,83.29c.4,2.25-3.18,4.76-8,5.6s-9-.3-9.41-2.56"/><path class="cls-11" d="M252.44,83.35c2-1.12,5.54,1.44,7.91,5.71s2.67,8.62.67,9.73"/><path class="cls-12" d="M261,98.78c-2,1.11-5.54-1.45-7.91-5.71s-2.67-8.63-.67-9.74"/><path class="cls-11" d="M163.71,130.84c-.87-2.11,2.07-5.34,6.57-7.21s8.87-1.68,9.75.43"/><path class="cls-12" d="M180,124c.88,2.11-2.06,5.34-6.57,7.22s-8.87,1.68-9.75-.44"/><path class="cls-11" d="M130,154.34c-2-1-1.92-5.39.28-9.75s5.63-7.05,7.68-6"/><path class="cls-12" d="M137.91,138.56c2,1,1.92,5.39-.28,9.75s-5.64,7.06-7.68,6"/><path class="cls-11" d="M144.78,125.74c-1.76-1.46-.66-5.69,2.46-9.44s7.08-5.61,8.84-4.15"/><path class="cls-12" d="M156.06,112.14c1.76,1.46.65,5.69-2.46,9.44s-7.08,5.61-8.84,4.15"/><path class="cls-11" d="M142,249.89c1.65-1.58,5.72,0,9.09,3.53s4.76,7.67,3.11,9.25"/><path class="cls-12" d="M154.17,262.66c-1.65,1.58-5.72,0-9.09-3.53s-4.76-7.67-3.11-9.25"/><path class="cls-13" d="M229.38,132.56c-11,0-20.52,3.05-27.34,12.23-3.17-2.75-5.92-5.59-9.12-7.75-2-1.39-4.86-2.68-7.16-2.43-4.45.48-8.82,1.92-13.13,3.28-2.71.86-3.63,3.34-2.07,5.66a7.73,7.73,0,0,0,4.09,2.71,66.27,66.27,0,0,0,7.76,1.17c2.2.33,3.7,1.38,3.78,3.85.1,3.17.19,6.34.36,9.5.41,7.81,3.76,13.71,11.22,16.8,1.49.62,2.71,1,2.5,3.14s-1,3.23-2.92,3.73c-2.27.6-4.56,1.14-6.85,1.67a14.81,14.81,0,0,0-11,9.14c-2.27,5.46-2.41,11.08-1.42,16.82,1.73,10,5.4,19.32,9.71,28.45,3.11,6.6,6.5,13.13,5.39,20.94-.46,3.17,1.49,4.86,4.63,5.23s5.95-1.25,6.67-4.23a16.31,16.31,0,0,0-.76-9.33c-1.15-3.39-2.35-6.92-2.53-10.44-.3-6.23.15-12.5.29-18.76l.79,0,1.15,2.1A46.55,46.55,0,0,0,216,241.23c4.2,3.17,8.77,5.45,14.12,5.17V132.57Z"/><path class="cls-14" d="M285.39,137.48c-3-.93-6.13-1.6-9.16-2.52a10.35,10.35,0,0,0-10.6,2.38c-2.76,2.47-5.57,4.9-8.56,7.52-6.92-9.34-16.33-12.16-27-12.29V246.4c.57,0,1.14-.07,1.73-.16,8.83-1.37,14.74-7,19.76-13.77,2-2.73,3.72-5.71,6-9.25.2,5,.33,9.3.56,13.61a37.52,37.52,0,0,1-2.91,17.5c-1,2.37-.78,5.53-.38,8.22.21,1.37,1.83,3,3.21,3.62,4.58,2,8.53-.62,8-5.6-.64-5.44,1-10.17,3-14.92,2.33-5.4,5.06-10.65,7.12-16.15,3.33-8.91,6.33-17.95,5.26-27.74-1-9-5.8-14.37-14.61-16.17-1.86-.38-3.72-.81-5.54-1.34s-2.17-2.09-2.32-3.86.94-2.23,2.28-2.76c6-2.39,9.86-6.78,10.87-13.19.57-3.65.37-7.4.61-11.11.32-4.82.76-5.31,5.48-6.12,2.23-.39,4.5-.5,6.72-1a5,5,0,0,0,4.32-4.87C289.29,138.75,287.3,138.07,285.39,137.48Z"/></svg>