<svg id="Layer_1" data-name="Layer 1" xmlns="http://www.w3.org/2000/svg" viewBox="0 0 458.69 458.69"><defs><style>.cls-1{fill:#dba012;}.cls-2,.cls-4{fill:none;stroke-linecap:round;stroke-linejoin:round;}.cls-2{stroke:#000;stroke-width:6.49px;}.cls-3{fill:#231f20;stroke:#231f20;stroke-miterlimit:10;stroke-width:1.91px;}.cls-4{stroke:#fff;stroke-width:6.82px;}.cls-5{fill:#e51f39;}</style></defs><path class="cls-1" d="M330.07,111.92c-5.88-1.81-11.92-3.12-17.81-4.91-7.81-2.37-14.57-.77-20.6,4.62-5.38,4.82-10.84,9.53-16.64,14.63-13.45-18.15-31.75-23.64-52.5-23.89-.45,0-.89,0-1.35,0-21.35,0-39.87,5.94-53.13,23.8-6.17-5.36-11.51-10.87-17.74-15.08-4-2.7-9.45-5.22-13.91-4.73-8.65.94-17.16,3.75-25.53,6.39-5.26,1.66-7.06,6.5-4,11a14.94,14.94,0,0,0,7.94,5.27c4.87,1.34,10,1.52,15.09,2.28,4.27.65,7.2,2.69,7.35,7.48.18,6.16.36,12.33.69,18.48.81,15.18,7.32,26.65,21.81,32.66,2.9,1.2,5.28,2,4.87,6.09-.39,4-2,6.28-5.67,7.25-4.42,1.18-8.87,2.22-13.32,3.25-10.13,2.34-17.39,8.09-21.41,17.78-4.41,10.61-4.69,21.54-2.76,32.69,3.37,19.45,10.5,37.56,18.87,55.31,6.06,12.84,12.65,25.52,10.48,40.72-.88,6.16,2.9,9.45,9,10.16,6.4.75,11.56-2.42,13-8.23,1.5-6.17.57-12.09-1.48-18.13-2.24-6.59-4.58-13.46-4.91-20.3-.6-12.11.28-24.3.55-36.46l1.54-.06L170.7,284c6.26,11.4,13.92,21.72,24.38,29.59,8.17,6.15,17,10.58,27.44,10,1.11-.06,2.23-.13,3.37-.3,17.17-2.66,28.65-13.58,38.41-26.77,3.93-5.32,7.23-11.1,11.66-18,.38,9.69.62,18.08,1.07,26.45.64,11.78-.8,23-5.65,34-2,4.61-1.52,10.75-.73,16,.4,2.66,3.54,5.86,6.22,7,8.92,3.92,16.6-1.21,15.46-10.88-1.24-10.57,1.91-19.79,5.89-29,4.54-10.51,9.85-20.71,13.85-31.41,6.47-17.32,12.3-34.88,10.23-53.93-1.89-17.4-11.28-27.92-28.41-31.42-3.62-.74-7.23-1.57-10.77-2.61s-4.21-4.06-4.51-7.5c-.31-3.63,1.83-4.34,4.44-5.37,11.72-4.65,19.16-13.18,21.12-25.65,1.11-7.08.72-14.39,1.19-21.58.62-9.38,1.48-10.33,10.65-11.91,4.33-.75,8.76-1,13.07-1.85,5.27-1.06,8.22-4.69,8.39-9.46C337.65,114.38,333.78,113.06,330.07,111.92Z"/><path class="cls-2" d="M331,232.42c.19,1,.34,2.1.46,3.16,2.06,19-3.75,36.61-10.23,53.94-4,10.68-9.32,20.87-13.86,31.41-4,9.2-7.14,18.43-5.88,29,1.15,9.65-6.52,14.81-15.45,10.87-2.68-1.18-5.84-4.38-6.23-7.06-.8-5.19-1.29-11.33.73-15.95,4.85-11,6.3-22.25,5.65-34-.46-8.4-.69-16.79-1.07-26.49-4.43,6.91-7.71,12.67-11.64,18-9.77,13.21-21.26,24.12-38.44,26.79-1.14.16-2.25.23-3.36.31-10.38.53-19.27-3.89-27.44-10-10.46-7.9-18.13-18.21-24.39-29.62-.72-1.33-1.49-2.71-2.25-4.08-.5,0-1,.07-1.53.07-.27,12.18-1.14,24.36-.53,36.46.3,6.87,2.67,13.74,4.88,20.3,2.06,6,3,11.95,1.49,18.13-1.41,5.8-6.56,9-13,8.25-6.1-.73-9.88-4-9-10.16,2.17-15.23-4.43-27.9-10.46-40.72-8.4-17.75-15.54-35.88-18.89-55.31-.08-.5-.2-1-.23-1.53"/><path class="cls-2" d="M152.92,176.34c-9.49-14.15-6.14-25.17-6.56-38.89-.16-4.81-3.09-6.83-7.33-7.48-5-.76-10.23-.95-15.12-2.29a14.79,14.79,0,0,1-7.93-5.26c-3.06-4.51-1.26-9.32,4-11,8.4-2.63,16.91-5.46,25.54-6.37,4.46-.5,10,2,13.93,4.73,6.22,4.2,11.56,9.7,17.71,15.08C190.44,107,209,101,230.33,101c.42,0,.88,0,1.33,0,20.77.27,39,5.72,52.48,23.89,5.81-5.11,11.26-9.81,16.65-14.62,6-5.42,12.78-7,20.61-4.61,5.88,1.79,11.91,3.09,17.82,4.88,3.7,1.15,7.56,2.48,7.41,7.6-.19,4.77-3.13,8.39-8.4,9.46-4.31.88-8.74,1.11-13.09,1.87-9.16,1.57-10,2.52-10.65,11.91-.42,6.68-.12,13.47-1,20"/><path class="cls-3" d="M152.31,193.38a2.11,2.11,0,0,1-4.2-.34c.17-1.44-1.75-2.92-4.22-3.18-8.14-1-8.81,8.45-9.5,12.64l8.87-1.16a2.09,2.09,0,0,1,.55,4.14l-10.16,1.34s-4.2,24.54-4.2,24.6C127,243.67,115,245.19,109,239.33c-6.6-6.38-2.91-17.61,7.42-18.55,2.75-.24,3.08,4,.37,4.17-6.53.5-9.07,7.36-4.86,11.38,3.82,3.78,11.68,3,13.44-5.74l4-23.21-4.73.62a2.09,2.09,0,0,1-.55-4.14l6-.79.94-5.53C134.13,180.15,153,184.5,152.31,193.38Z"/><path class="cls-3" d="M173.44,223.21l-1,5.3c-1.61,8.11-13,10.56-16.62,6.39-3.34,3.94-9.42,5.1-12.64,1.9-2.86-2.83-2.18-6.66-1.64-9.82,2.23-12.88,2.18-16.44,7.1-19.16a7.37,7.37,0,0,1,8.55.83l.21-1.09a2.08,2.08,0,0,1,4.08.77c0,.12-2.64,14.77-2.64,14.77-.71,4.08-1.78,9.44,1.71,9.82a7.64,7.64,0,0,0,6.56-3c1.76-2.2,1.76-4.79,2.22-7.44A2.08,2.08,0,1,1,173.44,223.21Zm-19.43,6c.59-3.05.86-6.14,1.16-9.23.22-2.22,1.31-6-.3-8a3.37,3.37,0,0,0-3.59-.78,3,3,0,0,0-.58.26c-2.88,1.56-2.79,3.21-5,15.91-.54,3.11-.87,5.17.43,6.42,2.2,2.19,6.38-.73,7.34-2.87A8.08,8.08,0,0,0,154,229.18Z"/><path class="cls-3" d="M188.61,221.84l-.78,4.44c-2.06,10.13-13.76,10.39-17,6.06-2.3-3-1.85-7.77-1.28-11.59v-.06l6.68-38.22c.41-2.73,4.54-2,4.07.7l-6.62,38.23c-.27,1.58-1,6.48.45,8.43,1.22,1.56,8.33,2.08,9.63-4.26l.73-4.43C185,218.46,189.09,219.16,188.61,221.84Z"/><path class="cls-3" d="M201.42,219.72l-.78,4.44c-2.06,10.13-11.29,10.39-14.53,6.07-2.3-3-1.85-7.77-1.29-11.59v-.06l6.68-38.23c.41-2.73,4.54-2,4.07.71L189,219.29c-.27,1.57-1,6.48.45,8.43,1.22,1.56,5.86,2.08,7.16-4.27l.73-4.43C197.77,216.35,201.9,217.05,201.42,219.72Z"/><path class="cls-3" d="M261.93,177.53c-.23,2.76-4.37,2.41-4.2-.35.17-1.44-1.75-2.91-4.22-3.18-8.14-.95-8.8,8.46-9.5,12.65l8.87-1.17a2.09,2.09,0,0,1,.55,4.15L243.27,191s-4.2,24.54-4.19,24.6c-2.43,12.26-14.47,13.78-20.47,7.91-6.59-6.37-2.9-17.6,7.43-18.55,2.76-.24,3.08,4,.37,4.17-6.53.5-9.07,7.37-4.86,11.39,3.82,3.77,11.68,3,13.44-5.74l4-23.21-4.73.62a2.09,2.09,0,0,1-.54-4.14l6-.79.94-5.53C243.75,164.29,262.61,168.65,261.93,177.53Z"/><path class="cls-3" d="M265.32,191.15c7.13,3.7,1.13,19.52-9.8,20.41.49,10.51,15.23,6.86,19.46-.71a10.08,10.08,0,0,0,1.32-4,2.09,2.09,0,0,1,4.16.47,14.09,14.09,0,0,1-1.91,5.83c-4.44,7.76-17.18,11.21-22.91,7.4C245,213.59,256,186.33,265.32,191.15Zm-1.2,7.17c1.36-7.72-7.07-1.39-8.38,9C260.36,206.36,263.48,202.08,264.12,198.32Z"/><path class="cls-3" d="M333.61,201.15c-.88,5-3,13.52-11,13-1.56-.09-4.11-.57-5.42-2-5.82,7.71-17,1.94-15.19-6.2.6-2.69,4.65-1.74,4.05.95a4.23,4.23,0,0,0,3.1,4.58c3.12.72,5.68-1.93,5.92-5.11-.38-5.59-3.15-5.88-6.57-9.77-3.14-3.56-2.78-7.17-1.35-9.38,2.8-4.46,10.12-4.77,12.52.85a8.91,8.91,0,0,1-.31,7.58,2.09,2.09,0,0,1-3.7-1.95,4.94,4.94,0,0,0,.19-4c-1-2.42-4.13-2-5.2-.27-3,4.74,8.84,7.16,8.56,16.81.28,3.53,2.61,3.9,3.69,4,4.13.23,5.78-5.13,6.59-9.81A2.1,2.1,0,0,1,333.61,201.15Z"/><path class="cls-3" d="M334.36,207c1.28,1.62,5.95,1.89,7.1-4.25l.78-4.5a2.09,2.09,0,0,1,4.13.7l-.78,4.5c-1.9,9.93-11.22,10.44-14.52,6.06-2.23-3-1.94-8-1.29-11.64l3.32-19-2.39.31a2.09,2.09,0,0,1-.55-4.14l3.68-.48,2.57-14.83a2.07,2.07,0,0,1,4.07.71L338.16,174l4.32-.56a2.09,2.09,0,0,1,.54,4.14l-5.6.73L334,198.5C333.65,200.67,332.92,205.05,334.36,207Z"/><path class="cls-3" d="M306.17,205.35l-.42,2c-1.61,8.11-11.4,10.56-15,6.39-3.35,3.95-9.43,5.11-12.64,1.91-2.87-2.84-2.18-6.67-1.65-9.82,2.23-12.89,2.18-16.45,7.11-19.17a7.37,7.37,0,0,1,8.54.84l.21-1.1a2.08,2.08,0,0,1,4.08.77c0,.13-2.63,14.78-2.63,14.78-.71,4.07-1.79,9.44,1.7,9.81,4,.42,5.74-3.93,6.55-6.93C302.77,202.16,306.77,202.47,306.17,205.35ZM288.93,208c.6-3.05.87-6.15,1.17-9.23.21-2.23,1.3-6-.3-8a3.35,3.35,0,0,0-3.6-.78,3,3,0,0,0-.58.25c-2.88,1.57-2.78,3.22-5,15.92-.55,3.1-.87,5.16.42,6.41,2.2,2.2,6.39-.73,7.34-2.87A7.83,7.83,0,0,0,288.93,208Z"/><path class="cls-2" d="M147.53,255.94,170,253l52.69-6.77,60.7-7.81,46.51-6c4.39-.57,9.11-.69,13.33-2a13.58,13.58,0,0,0,6.47-4.07c6.51-7.82,5.59-23.93-5.1-27.68"/><path class="cls-4" d="M192.56,133.75a45.24,45.24,0,0,1,34.27-14.48"/><circle class="cls-5" cx="117.58" cy="176.34" r="6.86"/><circle class="cls-5" cx="363.36" cy="185.61" r="6.86"/><circle class="cls-5" cx="103.84" cy="191.85" r="6.86"/><circle class="cls-5" cx="97.65" cy="172.8" r="6.86"/></svg>