<svg id="Layer_1" data-name="Layer 1" xmlns="http://www.w3.org/2000/svg" viewBox="0 0 458.69 458.69"><defs><style>.cls-1{fill:#e9e9ea;}.cls-2{fill:#cbccce;}.cls-3{font-size:47.78px;letter-spacing:0.07em;}.cls-13,.cls-3{fill:#e51f39;}.cls-3,.cls-8{font-family:AlternateGotNo3D, Alternate Gothic No3 D;}.cls-4{letter-spacing:0.08em;}.cls-5{letter-spacing:0.08em;}.cls-6{letter-spacing:0.07em;}.cls-7{letter-spacing:0.07em;}.cls-8{font-size:87.54px;fill:#77787b;letter-spacing:0.1em;}.cls-9{letter-spacing:0.12em;}.cls-10{letter-spacing:0.09em;}.cls-11{letter-spacing:0.1em;}.cls-12{fill:#231f20;}.cls-14{fill:#fff;}.cls-15{fill:#a7a9ac;}.cls-16{fill:none;stroke:#e51f39;stroke-miterlimit:10;stroke-width:1.97px;}</style></defs><circle class="cls-1" cx="225.28" cy="156.53" r="65.68"/><path class="cls-2" d="M245.09,159a72.18,72.18,0,0,1-32.36,60.25c-1.58,1.05-3.2,2-4.87,3a68.33,68.33,0,0,1-7.35-129.95q2.64,1.06,5.17,2.37A72.25,72.25,0,0,1,245.09,159Z"/><text class="cls-3" transform="translate(129.11 279.15)">G<tspan class="cls-4" x="24.84" y="0">I</tspan><tspan class="cls-5" x="38.51" y="0">V</tspan><tspan x="63.11" y="0">E </tspan><tspan class="cls-6" x="95.13" y="0">B</tspan><tspan class="cls-7" x="120.11" y="0">A</tspan><tspan x="144.91" y="0">CK</tspan></text><text class="cls-8" transform="translate(93.01 350.59)">B<tspan class="cls-9" x="48.58" y="0">E</tspan><tspan class="cls-10" x="92" y="0">Y</tspan><tspan class="cls-11" x="138.22" y="0">OND</tspan></text><path class="cls-12" d="M225,87.74a68.32,68.32,0,0,0-17.09,134.47A68.32,68.32,0,1,0,225,87.74Zm0,132.68a63.78,63.78,0,0,1-12.22-1.17A64.37,64.37,0,1,1,225,220.42Z"/><circle class="cls-13" cx="226.42" cy="109.06" r="4.33"/><path class="cls-13" d="M264.77,100.58c-.91-8-4.44-17.13-10.72-20.78-3.89-2.23-8.31-2.17-13.12.2a23.16,23.16,0,0,0-8.79,8.13A39.18,39.18,0,0,0,230,91.9a43.7,43.7,0,0,0-4.51,17.1l2,.1a41.35,41.35,0,0,1,4.66-17,29.15,29.15,0,0,1,2.27-3.69,20.69,20.69,0,0,1,7.45-6.63c4.21-2.07,8-2.15,11.25-.26,5.23,3,8.41,10.64,9.52,17.55Z"/><circle class="cls-13" cx="230.9" cy="147.02" r="4.33"/><circle class="cls-13" cx="202.3" cy="203.07" r="4.33"/><circle class="cls-13" cx="259.6" cy="181.15" r="4.33"/><circle class="cls-14" cx="225.14" cy="185.48" r="4.33"/><circle class="cls-15" cx="270.09" cy="137.34" r="4.33"/><circle class="cls-14" cx="180.88" cy="126.64" r="4.33"/><circle class="cls-13" cx="178.64" cy="160.39" r="4.33"/><path class="cls-16" d="M178.64,159s16.21-39.33,52.27-12"/><path class="cls-14" d="M180.66,127.61c.45.1,45,10.52,43.49,57.84l2,.06c1.55-48.94-44.58-59.73-45-59.83"/><path class="cls-15" d="M284.14,190.13c13.27-12.41,18.65-23.46,16-32.9a21.67,21.67,0,0,0-7.56-10.83,38.16,38.16,0,0,0-4.54-3.18,62.74,62.74,0,0,0-17.74-6.84l-.39,1.93c.15,0,10.36,2.17,18.61,7.62a29.63,29.63,0,0,1,4.42,3.47,18.36,18.36,0,0,1,5.3,8.37c2.16,7.61-1.61,16.55-11.15,26.66Z"/><path class="cls-13" d="M158.58,172.23c-2.83,14.84-.81,25.28,6,31,4.51,3.81,10.51,5.06,16.41,5.06h0a47.22,47.22,0,0,0,5.88-.38h0a69.25,69.25,0,0,0,15.77-4l-.73-1.83a67.89,67.89,0,0,1-17.34,4,43.64,43.64,0,0,1-5.94.07c-4.74-.27-9.3-1.53-12.81-4.49-5.59-4.72-7.6-13.11-6-25Z"/><path class="cls-16" d="M200.44,203.82s48.68,25.46,59.16-22.67"/></svg>