<svg id="Layer_1" data-name="Layer 1" xmlns="http://www.w3.org/2000/svg" viewBox="0 0 458.69 458.69"><defs><style>.cls-1,.cls-6{fill:#bcbec0;}.cls-2,.cls-6{font-size:51.82px;font-family:AlternateGotNo3D, Alternate Gothic No3 D;}.cls-11,.cls-2{fill:#e51f39;}.cls-2{letter-spacing:0em;}.cls-3{letter-spacing:0.02em;}.cls-4{letter-spacing:0.04em;}.cls-5{letter-spacing:0.02em;}.cls-6{letter-spacing:0.04em;}.cls-7{letter-spacing:0.03em;}.cls-8{letter-spacing:0.02em;}.cls-9{letter-spacing:0.03em;}.cls-10{fill:none;stroke:#211d1f;stroke-linecap:round;stroke-linejoin:round;stroke-width:6.81px;}.cls-12{fill:#211d1f;}.cls-13{fill:#fff;}</style></defs><path class="cls-1" d="M305.78,157.37H158.61a12.3,12.3,0,0,0-12.27,12.27v6.18H133.11a3.4,3.4,0,0,0-3.4,3.41v43a3.41,3.41,0,0,0,3.4,3.41h95.68V263.2A12.27,12.27,0,0,0,220,274.93v33.2a12.24,12.24,0,0,0,24.47,0v-33.2a12.27,12.27,0,0,0-8.83-11.73V222.26a3.41,3.41,0,0,0-3.4-3.41H136.52V182.63h9.82v6.18a12.3,12.3,0,0,0,12.27,12.27H305.78a12.3,12.3,0,0,0,12.27-12.27V169.64A12.3,12.3,0,0,0,305.78,157.37Z"/><text class="cls-2" transform="translate(84.94 375.18)">P<tspan class="cls-3" x="22.65" y="0">AI</tspan><tspan class="cls-4" x="58.92" y="0">N</tspan><tspan class="cls-5" x="85.25" y="0">T</tspan></text><text class="cls-6" transform="translate(199.72 375.18)">T<tspan class="cls-3" x="21.35" y="0">HE </tspan><tspan class="cls-7" x="75.56" y="0">T</tspan><tspan class="cls-8" x="96.7" y="0">O</tspan><tspan class="cls-9" x="121.11" y="0">W</tspan><tspan class="cls-3" x="155.68" y="0">N</tspan></text><path class="cls-1" d="M153.62,153.23V102.7h9.11V109h2.6v-8.44h1.79V97.67h1.43V92.93h1.64l1.52-3.32L173.14,93h1.77v4.53h1.61v2.87H178V109h1.88V101.4h1.77V84.78H184V82.1h6.72v2.68h2.49v16.4h1.64v9.47h1.7V86.21h5.28v2.15h1.79v1.88H206v2h2.3V76.62h1.37V74.11h.8V71.44s.31-6.37,5.29-8.86c0,0,4.56,2.06,5,8.68V74h1.07v2.6h1.08V103h3.2V87.63l2.12-3.31,2.51,3.57v6.48h4.1v9.52h2.78V86.36l2.61-8.49V73.08h8.33v4.74l2.81,8.35v17.46h5V94h6.53v-3h10.71v13.23h6.09V97.41l3.4-4.09h2.77l3.74,4.37v6.48h2.78V97.68l2.92-4.07h3.3l3.3,4.11v55.51"/><polyline class="cls-10" points="147.92 173.39 129.71 173.39 129.71 216.42 179.15 216.42 228.79 216.42 228.79 259.76"/><rect class="cls-11" x="142.94" y="151.53" width="171.71" height="43.71" rx="7.2"/><rect class="cls-12" x="216.56" y="256.86" width="24.46" height="57.66" rx="5.76"/><circle class="cls-13" cx="228.79" cy="300.31" r="4.66"/></svg>